G04 Layer: TopLayer*
G04 EasyEDA v6.4.7, 2020-10-15T22:52:29+02:00*
G04 9b8f394e45984ab69384a79ff89e00da,6cad3e709bf64c02bac7d46d3581b9cb,10*
G04 Gerber Generator version 0.2*
G04 Scale: 100 percent, Rotated: No, Reflected: No *
G04 Dimensions in millimeters *
G04 leading zeros omitted , absolute positions ,3 integer and 3 decimal *
%FSLAX33Y33*%
%MOMM*%
G90*
D02*

%ADD11C,0.399999*%
%ADD12C,1.299997*%
%ADD13C,1.799996*%
%ADD14R,1.799996X1.799996*%
%ADD15R,1.799996X1.574800*%
%ADD16C,1.193800*%
%ADD17C,1.879600*%
%ADD18C,1.574800*%
%ADD19C,4.999990*%
%ADD20R,1.574800X1.574800*%
%ADD21C,1.199998*%
%ADD22C,3.999992*%

%LPD*%
G54D11*
G01X17780Y9144D02*
G01X19050Y10414D01*
G01X24130Y10414D01*
G01X24130Y23114D02*
G01X29845Y28829D01*
G01X45720Y28829D01*
G01X49530Y25019D01*
G01X24130Y18034D02*
G01X26035Y19939D01*
G01X26035Y23114D01*
G01X30480Y27559D01*
G01X44450Y27559D01*
G01X46990Y25019D01*
G01X46990Y3429D02*
G01X44450Y889D01*
G01X28575Y889D01*
G01X24130Y5334D01*
G01X31750Y2794D02*
G01X43815Y2794D01*
G01X46990Y5969D01*
G01X31750Y5334D02*
G01X43815Y5334D01*
G01X46990Y8509D01*
G01X43180Y10414D02*
G01X45720Y12954D01*
G01X55245Y12954D01*
G01X46990Y22479D02*
G01X48260Y21209D01*
G01X54610Y21209D01*
G01X55245Y20574D01*
G01X55245Y12954D02*
G01X59690Y17399D01*
G01X59690Y17431D01*
G01X55245Y15494D02*
G01X59473Y19722D01*
G01X59690Y19722D01*
G01X55245Y18034D02*
G01X59222Y22011D01*
G01X59690Y22011D01*
G01X43180Y23114D02*
G01X46355Y19939D01*
G01X46990Y19939D01*
G01X55245Y20574D02*
G01X59690Y25019D01*
G01X64770Y25019D01*
G01X67310Y22479D01*
G01X67310Y19304D01*
G01X65437Y17431D01*
G01X64770Y17431D01*
G01X55245Y23114D02*
G01X58420Y26289D01*
G01X65405Y26289D01*
G01X68580Y23114D01*
G01X68580Y18034D01*
G01X65686Y15140D01*
G01X64770Y15140D01*
G01X17780Y24384D02*
G01X19050Y25654D01*
G01X24130Y25654D01*
G01X17780Y21844D02*
G01X19050Y23114D01*
G01X24130Y23114D01*
G01X17780Y19304D02*
G01X19050Y20574D01*
G01X24130Y20574D01*
G01X17780Y16764D02*
G01X19050Y18034D01*
G01X24130Y18034D01*
G01X8105Y13893D02*
G01X8105Y12468D01*
G01X12700Y7874D01*
G01X16510Y7874D01*
G01X17780Y6604D01*
G01X17780Y14224D02*
G01X19050Y15494D01*
G01X24130Y15494D01*
G01X17780Y11684D02*
G01X19050Y12954D01*
G01X24130Y12954D01*
G01X17780Y6604D02*
G01X19050Y7874D01*
G01X24130Y7874D01*
G01X49530Y22479D02*
G01X54610Y22479D01*
G01X55245Y23114D01*
G01X43180Y15494D02*
G01X55245Y15494D01*
G01X43180Y18034D02*
G01X55245Y18034D01*
G01X43180Y10414D02*
G01X43180Y7874D01*
G01X43180Y15494D02*
G01X43180Y12954D01*
G01X43180Y20574D02*
G01X43180Y18034D01*
G01X43180Y25654D02*
G01X43180Y23114D01*
G01X31750Y7874D02*
G01X35560Y7874D01*
G01X31750Y10414D02*
G01X35560Y10414D01*
G01X31750Y12954D02*
G01X35560Y12954D01*
G01X31750Y15494D02*
G01X35560Y15494D01*
G01X31750Y18034D02*
G01X35560Y18034D01*
G01X31750Y20574D02*
G01X35560Y20574D01*
G01X31750Y23114D02*
G01X35560Y23114D01*
G01X10945Y15274D02*
G01X11649Y15274D01*
G01X17780Y9144D01*
G01X8104Y16653D02*
G01X12810Y16653D01*
G01X17780Y11684D01*
G01X10945Y18034D02*
G01X13970Y18034D01*
G01X17780Y14224D01*
G01X10945Y23553D02*
G01X16949Y23553D01*
G01X17780Y24384D01*
G01X8104Y22173D02*
G01X17450Y22173D01*
G01X17780Y21844D01*
G01X10945Y20793D02*
G01X16290Y20793D01*
G01X17780Y19304D01*
G01X8104Y19414D02*
G01X15129Y19414D01*
G01X17780Y16764D01*
G54D12*
G01X51703Y30734D03*
G01X53703Y30734D03*
G54D13*
G01X26670Y33274D03*
G54D14*
G01X26670Y30734D03*
G54D13*
G01X46990Y19939D03*
G01X46990Y22479D03*
G54D15*
G01X46990Y25019D03*
G54D13*
G01X49530Y19939D03*
G01X49530Y22479D03*
G54D15*
G01X49530Y25019D03*
G54D16*
G01X20320Y16764D03*
G01X17780Y16764D03*
G01X20320Y21844D03*
G01X17780Y21844D03*
G01X20320Y9144D03*
G01X17780Y9144D03*
G01X20320Y6604D03*
G01X17780Y6604D03*
G54D13*
G01X41429Y30734D03*
G01X32230Y30734D03*
G01X55245Y12954D03*
G01X55245Y15494D03*
G01X55245Y18034D03*
G01X55245Y20574D03*
G01X55245Y23114D03*
G54D14*
G01X55245Y25654D03*
G54D16*
G01X20320Y11684D03*
G01X17780Y11684D03*
G01X20320Y14224D03*
G01X17780Y14224D03*
G01X20320Y19304D03*
G01X17780Y19304D03*
G01X20320Y24384D03*
G01X17780Y24384D03*
G54D17*
G01X35560Y23114D03*
G01X43180Y23114D03*
G01X43180Y25654D03*
G01X35560Y25654D03*
G54D13*
G01X54610Y8509D03*
G01X54610Y5969D03*
G01X54610Y3429D03*
G01X46990Y8509D03*
G01X46990Y5969D03*
G01X46990Y3429D03*
G54D17*
G01X35560Y12954D03*
G01X43180Y12954D03*
G01X35560Y20574D03*
G01X43180Y20574D03*
G01X35560Y15494D03*
G01X43180Y15494D03*
G01X35560Y10414D03*
G01X43180Y10414D03*
G01X35560Y18034D03*
G01X43180Y18034D03*
G01X35560Y7874D03*
G01X43180Y7874D03*
G54D18*
G01X10945Y18034D03*
G54D19*
G01X9525Y30533D03*
G54D20*
G01X10945Y12514D03*
G54D18*
G01X10945Y15274D03*
G01X10945Y20793D03*
G01X10945Y23553D03*
G01X8104Y13894D03*
G01X8104Y16654D03*
G01X8104Y19413D03*
G01X8104Y22173D03*
G54D19*
G01X9525Y5533D03*
G54D21*
G01X16160Y27272D03*
G01X17760Y27272D03*
G01X16960Y28476D03*
G01X18560Y28476D03*
G01X19360Y27272D03*
G54D13*
G01X31750Y25654D03*
G01X31750Y23114D03*
G01X31750Y20574D03*
G01X31750Y18034D03*
G01X31750Y15494D03*
G01X31750Y12954D03*
G01X31750Y10414D03*
G01X31750Y7874D03*
G01X31750Y5334D03*
G01X31750Y2794D03*
G01X24130Y2794D03*
G01X24130Y5334D03*
G01X24130Y7874D03*
G01X24130Y10414D03*
G01X24130Y18034D03*
G01X24130Y20574D03*
G01X24130Y12954D03*
G01X24130Y15494D03*
G01X24130Y23114D03*
G01X24130Y25654D03*
G01X64770Y22011D03*
G01X64770Y19722D03*
G01X64770Y17431D03*
G01X64770Y15140D03*
G01X64770Y12851D03*
G01X62230Y23161D03*
G01X62230Y20870D03*
G01X62230Y18582D03*
G01X62230Y16291D03*
G01X62230Y13992D03*
G01X59690Y22011D03*
G01X59690Y19722D03*
G01X59690Y17431D03*
G01X59690Y15140D03*
G01X59690Y12851D03*
G54D22*
G01X62484Y30506D03*
G01X62484Y5560D03*
G54D21*
G01X21499Y32324D02*
G01X21499Y33524D01*
G01X21499Y27574D02*
G01X21499Y28774D01*
G01X14060Y27574D02*
G01X14060Y28774D01*
G01X14060Y32324D02*
G01X14060Y33524D01*
M00*
M02*
