G04 Layer: TopSilkLayer*
G04 EasyEDA v6.4.7, 2020-10-15T22:52:29+02:00*
G04 9b8f394e45984ab69384a79ff89e00da,6cad3e709bf64c02bac7d46d3581b9cb,10*
G04 Gerber Generator version 0.2*
G04 Scale: 100 percent, Rotated: No, Reflected: No *
G04 Dimensions in millimeters *
G04 leading zeros omitted , absolute positions ,3 integer and 3 decimal *
%FSLAX33Y33*%
%MOMM*%
G90*
D02*

%ADD10C,0.254000*%
%ADD23C,0.499999*%
%ADD24C,0.203200*%
%ADD25C,0.202999*%
%ADD26C,0.200660*%
%ADD27C,0.299999*%
%ADD28C,0.152400*%
%ADD29C,0.100000*%
%ADD30C,0.127000*%

%LPD*%
G54D10*
G01X52049Y32680D02*
G01X52049Y31880D01*
G01X51649Y32280D02*
G01X52449Y32280D01*
G01X25400Y29464D02*
G01X25400Y34544D01*
G01X27940Y34544D01*
G01X27940Y29464D01*
G01X25400Y29464D01*
G54D24*
G01X48260Y24384D02*
G01X48260Y26289D01*
G01X45720Y26289D01*
G01X45720Y18669D01*
G01X48260Y18669D01*
G54D25*
G01X48260Y18669D02*
G01X48260Y24384D01*
G54D24*
G01X50800Y24384D02*
G01X50800Y26289D01*
G01X48260Y26289D01*
G01X48260Y18669D01*
G01X50800Y18669D01*
G54D25*
G01X50800Y18669D02*
G01X50800Y24384D01*
G54D26*
G01X16512Y15496D02*
G01X21592Y15496D01*
G01X21592Y18036D01*
G01X16512Y18036D01*
G01X16512Y15496D01*
G01X16512Y20576D02*
G01X21592Y20576D01*
G01X21592Y23116D01*
G01X16512Y23116D01*
G01X16512Y20576D01*
G01X16512Y7876D02*
G01X21592Y7876D01*
G01X21592Y10416D01*
G01X16512Y10416D01*
G01X16512Y7876D01*
G01X16512Y5336D02*
G01X21592Y5336D01*
G01X21592Y7876D01*
G01X16512Y7876D01*
G01X16512Y5336D01*
G54D10*
G01X39429Y29334D02*
G01X34230Y29334D01*
G01X34230Y29334D02*
G01X34230Y32133D01*
G01X39429Y32133D02*
G01X34230Y32133D01*
G01X39429Y29334D02*
G01X39429Y32133D01*
G01X38470Y29334D02*
G01X38470Y32133D01*
G54D24*
G01X56515Y25019D02*
G01X56515Y26924D01*
G01X53975Y26924D01*
G01X53975Y11684D01*
G01X56515Y11684D01*
G54D25*
G01X56515Y11684D02*
G01X56515Y25019D01*
G54D26*
G01X16512Y10416D02*
G01X21592Y10416D01*
G01X21592Y12956D01*
G01X16512Y12956D01*
G01X16512Y10416D01*
G01X16512Y12956D02*
G01X21592Y12956D01*
G01X21592Y15496D01*
G01X16512Y15496D01*
G01X16512Y12956D01*
G01X16512Y18036D02*
G01X21592Y18036D01*
G01X21592Y20576D01*
G01X16512Y20576D01*
G01X16512Y18036D01*
G01X16512Y23116D02*
G01X21592Y23116D01*
G01X21592Y25656D01*
G01X16512Y25656D01*
G01X16512Y23116D01*
G54D10*
G01X36830Y23114D02*
G01X36576Y23114D01*
G01X41910Y23114D02*
G01X42164Y23114D01*
G01X36830Y23114D02*
G01X36830Y23876D01*
G01X36830Y22352D02*
G01X36830Y23114D01*
G01X41910Y22352D02*
G01X36830Y22352D01*
G01X41910Y23114D02*
G01X41910Y22352D01*
G01X41910Y23876D02*
G01X41910Y23114D01*
G01X36830Y23876D02*
G01X41910Y23876D01*
G01X41910Y25654D02*
G01X42164Y25654D01*
G01X36830Y25654D02*
G01X36576Y25654D01*
G01X41910Y25654D02*
G01X41910Y24892D01*
G01X41910Y26416D02*
G01X41910Y25654D01*
G01X36830Y26416D02*
G01X41910Y26416D01*
G01X36830Y25654D02*
G01X36830Y26416D01*
G01X36830Y24892D02*
G01X36830Y25654D01*
G01X41910Y24892D02*
G01X36830Y24892D01*
G01X52519Y6528D02*
G01X49070Y6528D01*
G01X49070Y5478D01*
G01X52489Y5478D01*
G01X52519Y5478D01*
G01X52519Y6528D01*
G01X52541Y4037D02*
G01X49092Y4037D01*
G01X49092Y2986D01*
G01X52511Y2986D01*
G01X52541Y2986D01*
G01X52541Y4037D01*
G01X52511Y9088D02*
G01X49062Y9088D01*
G01X49062Y8038D01*
G01X52482Y8038D01*
G01X52511Y8038D01*
G01X52511Y9088D01*
G01X51800Y8960D02*
G01X51800Y8090D01*
G01X51022Y8981D02*
G01X51022Y8111D01*
G01X51800Y8990D02*
G01X51051Y8240D01*
G01X51021Y8240D01*
G01X51021Y8780D02*
G01X51291Y9050D01*
G01X51800Y8390D02*
G01X51561Y8150D01*
G01X51561Y8120D01*
G01X49851Y8960D02*
G01X49851Y8090D01*
G01X51771Y6450D02*
G01X51771Y5580D01*
G01X50992Y6471D02*
G01X50992Y5601D01*
G01X51771Y6480D02*
G01X51021Y5730D01*
G01X50991Y5730D01*
G01X50991Y6270D02*
G01X51260Y6540D01*
G01X51771Y5880D02*
G01X51530Y5640D01*
G01X51530Y5610D01*
G01X49821Y6450D02*
G01X49821Y5580D01*
G01X51771Y3888D02*
G01X51771Y3018D01*
G01X50992Y3909D02*
G01X50992Y3039D01*
G01X51771Y3918D02*
G01X51021Y3168D01*
G01X50991Y3168D01*
G01X50991Y3708D02*
G01X51260Y3978D01*
G01X51771Y3318D02*
G01X51530Y3078D01*
G01X51530Y3048D01*
G01X49821Y3888D02*
G01X49821Y3018D01*
G01X51740Y9829D02*
G01X51740Y9529D01*
G01X49886Y9529D01*
G01X49886Y9804D01*
G01X55600Y1429D02*
G01X45999Y1429D01*
G01X55600Y10568D02*
G01X45999Y10568D01*
G01X46000Y9053D02*
G01X46000Y10508D01*
G01X46000Y6513D02*
G01X46000Y7964D01*
G01X46000Y3973D02*
G01X46000Y5424D01*
G01X46000Y1433D02*
G01X46000Y2884D01*
G01X55600Y2884D02*
G01X55600Y1433D01*
G01X55600Y5424D02*
G01X55600Y3973D01*
G01X55600Y7964D02*
G01X55600Y6513D01*
G01X55600Y10508D02*
G01X55600Y9053D01*
G01X36830Y12954D02*
G01X36576Y12954D01*
G01X41910Y12954D02*
G01X42164Y12954D01*
G01X36830Y12954D02*
G01X36830Y13716D01*
G01X36830Y12192D02*
G01X36830Y12954D01*
G01X41910Y12192D02*
G01X36830Y12192D01*
G01X41910Y12954D02*
G01X41910Y12192D01*
G01X41910Y13716D02*
G01X41910Y12954D01*
G01X36830Y13716D02*
G01X41910Y13716D01*
G01X36830Y20574D02*
G01X36576Y20574D01*
G01X41910Y20574D02*
G01X42164Y20574D01*
G01X36830Y20574D02*
G01X36830Y21336D01*
G01X36830Y19812D02*
G01X36830Y20574D01*
G01X41910Y19812D02*
G01X36830Y19812D01*
G01X41910Y20574D02*
G01X41910Y19812D01*
G01X41910Y21336D02*
G01X41910Y20574D01*
G01X36830Y21336D02*
G01X41910Y21336D01*
G01X36830Y15494D02*
G01X36576Y15494D01*
G01X41910Y15494D02*
G01X42164Y15494D01*
G01X36830Y15494D02*
G01X36830Y16256D01*
G01X36830Y14732D02*
G01X36830Y15494D01*
G01X41910Y14732D02*
G01X36830Y14732D01*
G01X41910Y15494D02*
G01X41910Y14732D01*
G01X41910Y16256D02*
G01X41910Y15494D01*
G01X36830Y16256D02*
G01X41910Y16256D01*
G01X36830Y10414D02*
G01X36576Y10414D01*
G01X41910Y10414D02*
G01X42164Y10414D01*
G01X36830Y10414D02*
G01X36830Y11176D01*
G01X36830Y9652D02*
G01X36830Y10414D01*
G01X41910Y9652D02*
G01X36830Y9652D01*
G01X41910Y10414D02*
G01X41910Y9652D01*
G01X41910Y11176D02*
G01X41910Y10414D01*
G01X36830Y11176D02*
G01X41910Y11176D01*
G01X36830Y18034D02*
G01X36576Y18034D01*
G01X41910Y18034D02*
G01X42164Y18034D01*
G01X36830Y18034D02*
G01X36830Y18796D01*
G01X36830Y17272D02*
G01X36830Y18034D01*
G01X41910Y17272D02*
G01X36830Y17272D01*
G01X41910Y18034D02*
G01X41910Y17272D01*
G01X41910Y18796D02*
G01X41910Y18034D01*
G01X36830Y18796D02*
G01X41910Y18796D01*
G01X36830Y7874D02*
G01X36576Y7874D01*
G01X41910Y7874D02*
G01X42164Y7874D01*
G01X36830Y7874D02*
G01X36830Y8636D01*
G01X36830Y7112D02*
G01X36830Y7874D01*
G01X41910Y7112D02*
G01X36830Y7112D01*
G01X41910Y7874D02*
G01X41910Y7112D01*
G01X41910Y8636D02*
G01X41910Y7874D01*
G01X36830Y8636D02*
G01X41910Y8636D01*
G01X25Y33434D02*
G01X12525Y33434D01*
G01X12525Y2634D01*
G01X25Y2634D01*
G01X25Y33434D01*
G01X-5254Y18039D02*
G01X-5954Y18039D01*
G01X25Y9664D02*
G01X-5974Y9664D01*
G01X-5974Y26414D01*
G01X25Y26414D01*
G01X25Y7604D02*
G01X-5974Y7604D01*
G01X25Y3464D02*
G01X-5974Y3464D01*
G01X-5974Y7574D01*
G01X-5974Y32574D02*
G01X-5974Y28464D01*
G01X25Y28464D01*
G01X25Y32604D02*
G01X-5974Y32604D01*
G01X21633Y35121D02*
G01X19043Y35121D01*
G01X18789Y34867D01*
G01X18789Y33750D01*
G01X18560Y33521D01*
G01X16680Y33521D01*
G01X16325Y33877D01*
G01X16325Y34816D01*
G01X16096Y35045D01*
G01X13848Y35045D01*
G01X17442Y36366D02*
G01X17442Y35731D01*
G01X17595Y35578D01*
G01X18052Y35578D01*
G01X18154Y35477D01*
G01X18154Y34639D01*
G01X18052Y34537D01*
G01X17696Y34537D01*
G01X17493Y34334D01*
G01X17493Y34258D01*
G01X17493Y33521D01*
G01X20773Y27171D02*
G01X20184Y27171D01*
G01X15335Y27171D02*
G01X14786Y27171D01*
G01X21672Y29587D02*
G01X21672Y31511D01*
G01X21672Y34337D02*
G01X21672Y36521D01*
G01X13848Y29578D02*
G01X13848Y31521D01*
G01X13848Y34328D02*
G01X13848Y36521D01*
G01X21672Y36521D02*
G01X13848Y36521D01*
G01X32940Y1397D02*
G01X22940Y1397D01*
G01X33020Y27123D02*
G01X29337Y27123D01*
G01X29337Y27123D02*
G01X28956Y27123D01*
G01X22860Y27178D02*
G01X26924Y27178D01*
G01X33020Y27123D02*
G01X33020Y1397D01*
G01X22860Y27178D02*
G01X22860Y1397D01*
G01X80010Y8916D02*
G01X80010Y8662D01*
G01X74168Y8662D01*
G01X73660Y8408D01*
G01X57658Y33595D02*
G01X57658Y2616D01*
G01X73664Y33526D02*
G01X73664Y2685D01*
G01X57810Y33600D02*
G01X73664Y33600D01*
G01X80010Y27106D02*
G01X80010Y9106D01*
G01X80010Y26996D02*
G01X80010Y27250D01*
G01X74168Y27250D01*
G01X73660Y27504D01*
G01X73660Y8806D02*
G01X57653Y8806D01*
G01X57810Y2312D02*
G01X73664Y2312D01*
G01X73660Y27106D02*
G01X57653Y27106D01*

%LPD*%
G36*
G01X50978Y34893D02*
G01X50949Y34894D01*
G01X50870Y34879D01*
G01X50797Y34839D01*
G01X50732Y34775D01*
G01X50678Y34693D01*
G01X50673Y34693D01*
G01X50657Y34869D01*
G01X50540Y34869D01*
G01X50540Y33909D01*
G01X50685Y33909D01*
G01X50685Y34533D01*
G01X50740Y34640D01*
G01X50803Y34711D01*
G01X50868Y34750D01*
G01X50932Y34762D01*
G01X50957Y34761D01*
G01X50979Y34758D01*
G01X51000Y34753D01*
G01X51023Y34747D01*
G01X51051Y34871D01*
G01X51027Y34882D01*
G01X51003Y34889D01*
G01X50978Y34893D01*
G37*

%LPD*%
G36*
G01X48186Y34869D02*
G01X48039Y34869D01*
G01X48308Y33909D01*
G01X48480Y33909D01*
G01X48620Y34442D01*
G01X48640Y34510D01*
G01X48657Y34579D01*
G01X48674Y34649D01*
G01X48689Y34721D01*
G01X48699Y34721D01*
G01X48715Y34649D01*
G01X48731Y34580D01*
G01X48747Y34513D01*
G01X48765Y34444D01*
G01X48912Y33909D01*
G01X49088Y33909D01*
G01X49352Y34869D01*
G01X49212Y34869D01*
G01X49065Y34297D01*
G01X49049Y34231D01*
G01X49018Y34099D01*
G01X49001Y34033D01*
G01X48996Y34033D01*
G01X48928Y34297D01*
G01X48770Y34869D01*
G01X48625Y34869D01*
G01X48470Y34297D01*
G01X48436Y34165D01*
G01X48421Y34099D01*
G01X48404Y34033D01*
G01X48397Y34033D01*
G01X48382Y34099D01*
G01X48368Y34165D01*
G01X48338Y34297D01*
G01X48186Y34869D01*
G37*

%LPD*%
G36*
G01X46880Y34893D02*
G01X46850Y34894D01*
G01X46772Y34879D01*
G01X46699Y34839D01*
G01X46633Y34775D01*
G01X46578Y34693D01*
G01X46573Y34693D01*
G01X46560Y34869D01*
G01X46441Y34869D01*
G01X46441Y33909D01*
G01X46586Y33909D01*
G01X46586Y34533D01*
G01X46641Y34640D01*
G01X46703Y34711D01*
G01X46769Y34750D01*
G01X46832Y34762D01*
G01X46858Y34761D01*
G01X46881Y34758D01*
G01X46902Y34753D01*
G01X46923Y34747D01*
G01X46951Y34871D01*
G01X46929Y34882D01*
G01X46905Y34889D01*
G01X46880Y34893D01*
G37*

%LPD*%
G36*
G01X43454Y35209D02*
G01X43301Y35209D01*
G01X43301Y33909D01*
G01X43441Y33909D01*
G01X43441Y34673D01*
G01X43440Y34723D01*
G01X43438Y34773D01*
G01X43435Y34822D01*
G01X43432Y34872D01*
G01X43429Y34921D01*
G01X43423Y35018D01*
G01X43431Y35018D01*
G01X43573Y34752D01*
G01X44063Y33909D01*
G01X44216Y33909D01*
G01X44216Y35209D01*
G01X44076Y35209D01*
G01X44076Y34505D01*
G01X44077Y34456D01*
G01X44078Y34405D01*
G01X44082Y34303D01*
G01X44085Y34251D01*
G01X44091Y34151D01*
G01X44094Y34102D01*
G01X44086Y34102D01*
G01X43947Y34368D01*
G01X43454Y35209D01*
G37*

%LPD*%
G36*
G01X40266Y34893D02*
G01X40236Y34894D01*
G01X40157Y34879D01*
G01X40085Y34839D01*
G01X40019Y34775D01*
G01X39964Y34693D01*
G01X39959Y34693D01*
G01X39946Y34869D01*
G01X39829Y34869D01*
G01X39829Y33909D01*
G01X39971Y33909D01*
G01X39971Y34533D01*
G01X40026Y34640D01*
G01X40089Y34711D01*
G01X40155Y34750D01*
G01X40220Y34762D01*
G01X40245Y34761D01*
G01X40267Y34758D01*
G01X40287Y34753D01*
G01X40309Y34747D01*
G01X40337Y34871D01*
G01X40314Y34882D01*
G01X40291Y34889D01*
G01X40266Y34893D01*
G37*

%LPD*%
G36*
G01X34452Y35209D02*
G01X34290Y35209D01*
G01X33845Y33909D01*
G01X33992Y33909D01*
G01X34127Y34320D01*
G01X34612Y34320D01*
G01X34742Y33909D01*
G01X34897Y33909D01*
G01X34452Y35209D01*
G37*

%LPC*%
G36*
G01X34371Y35087D02*
G01X34363Y35087D01*
G01X34348Y35030D01*
G01X34332Y34974D01*
G01X34316Y34919D01*
G01X34300Y34865D01*
G01X34249Y34703D01*
G01X34231Y34648D01*
G01X34163Y34434D01*
G01X34574Y34434D01*
G01X34505Y34648D01*
G01X34488Y34703D01*
G01X34470Y34757D01*
G01X34454Y34811D01*
G01X34437Y34866D01*
G01X34421Y34920D01*
G01X34404Y34975D01*
G01X34388Y35031D01*
G01X34371Y35087D01*
G37*

%LPD*%
G36*
G01X33324Y35209D02*
G01X32583Y35209D01*
G01X32583Y33909D01*
G01X33345Y33909D01*
G01X33345Y34033D01*
G01X32730Y34033D01*
G01X32730Y34533D01*
G01X33230Y34533D01*
G01X33230Y34658D01*
G01X32730Y34658D01*
G01X32730Y35085D01*
G01X33324Y35085D01*
G01X33324Y35209D01*
G37*

%LPD*%
G36*
G01X30208Y35209D02*
G01X30025Y35209D01*
G01X30025Y33909D01*
G01X30159Y33909D01*
G01X30159Y34660D01*
G01X30158Y34749D01*
G01X30148Y34947D01*
G01X30142Y35039D01*
G01X30149Y35039D01*
G01X30251Y34742D01*
G01X30507Y34043D01*
G01X30609Y34043D01*
G01X30863Y34742D01*
G01X30967Y35039D01*
G01X30975Y35039D01*
G01X30969Y34947D01*
G01X30963Y34848D01*
G01X30959Y34749D01*
G01X30957Y34660D01*
G01X30957Y33909D01*
G01X31092Y33909D01*
G01X31092Y35209D01*
G01X30911Y35209D01*
G01X30657Y34498D01*
G01X30613Y34360D01*
G01X30590Y34291D01*
G01X30566Y34221D01*
G01X30558Y34221D01*
G01X30534Y34291D01*
G01X30487Y34429D01*
G01X30464Y34498D01*
G01X30208Y35209D01*
G37*

%LPD*%
G36*
G01X51606Y34890D02*
G01X51549Y34894D01*
G01X51494Y34890D01*
G01X51440Y34878D01*
G01X51388Y34858D01*
G01X51340Y34832D01*
G01X51293Y34798D01*
G01X51251Y34757D01*
G01X51214Y34711D01*
G01X51182Y34657D01*
G01X51156Y34598D01*
G01X51136Y34534D01*
G01X51124Y34464D01*
G01X51120Y34389D01*
G01X51124Y34312D01*
G01X51136Y34241D01*
G01X51155Y34176D01*
G01X51182Y34117D01*
G01X51214Y34064D01*
G01X51253Y34018D01*
G01X51296Y33979D01*
G01X51345Y33946D01*
G01X51397Y33920D01*
G01X51453Y33901D01*
G01X51512Y33890D01*
G01X51574Y33886D01*
G01X51668Y33893D01*
G01X51751Y33914D01*
G01X51824Y33945D01*
G01X51889Y33982D01*
G01X51836Y34079D01*
G01X51781Y34046D01*
G01X51723Y34021D01*
G01X51660Y34006D01*
G01X51592Y34000D01*
G01X51523Y34007D01*
G01X51461Y34025D01*
G01X51407Y34056D01*
G01X51360Y34097D01*
G01X51321Y34149D01*
G01X51292Y34210D01*
G01X51273Y34279D01*
G01X51264Y34356D01*
G01X51920Y34356D01*
G01X51923Y34375D01*
G01X51925Y34397D01*
G01X51927Y34420D01*
G01X51927Y34444D01*
G01X51924Y34511D01*
G01X51916Y34574D01*
G01X51902Y34631D01*
G01X51882Y34684D01*
G01X51858Y34731D01*
G01X51828Y34773D01*
G01X51793Y34809D01*
G01X51753Y34839D01*
G01X51709Y34863D01*
G01X51660Y34880D01*
G01X51606Y34890D01*
G37*

%LPC*%
G36*
G01X51607Y34772D02*
G01X51551Y34777D01*
G01X51499Y34772D01*
G01X51449Y34756D01*
G01X51402Y34730D01*
G01X51361Y34694D01*
G01X51325Y34649D01*
G01X51296Y34595D01*
G01X51274Y34533D01*
G01X51262Y34462D01*
G01X51800Y34462D01*
G01X51796Y34535D01*
G01X51783Y34598D01*
G01X51762Y34652D01*
G01X51734Y34697D01*
G01X51698Y34732D01*
G01X51655Y34757D01*
G01X51607Y34772D01*
G37*

%LPD*%
G36*
G01X49953Y34891D02*
G01X49898Y34894D01*
G01X49841Y34891D01*
G01X49786Y34882D01*
G01X49734Y34869D01*
G01X49684Y34851D01*
G01X49639Y34832D01*
G01X49597Y34810D01*
G01X49558Y34788D01*
G01X49524Y34767D01*
G01X49583Y34665D01*
G01X49643Y34704D01*
G01X49713Y34738D01*
G01X49792Y34762D01*
G01X49875Y34772D01*
G01X49931Y34767D01*
G01X49977Y34750D01*
G01X50013Y34725D01*
G01X50040Y34692D01*
G01X50059Y34654D01*
G01X50072Y34610D01*
G01X50079Y34564D01*
G01X50081Y34516D01*
G01X49982Y34502D01*
G01X49893Y34487D01*
G01X49813Y34468D01*
G01X49742Y34447D01*
G01X49680Y34424D01*
G01X49627Y34396D01*
G01X49582Y34366D01*
G01X49547Y34331D01*
G01X49519Y34294D01*
G01X49499Y34251D01*
G01X49488Y34205D01*
G01X49484Y34155D01*
G01X49489Y34094D01*
G01X49505Y34040D01*
G01X49531Y33994D01*
G01X49565Y33955D01*
G01X49606Y33925D01*
G01X49653Y33903D01*
G01X49706Y33890D01*
G01X49763Y33886D01*
G01X49852Y33896D01*
G01X49936Y33926D01*
G01X50014Y33970D01*
G01X50086Y34025D01*
G01X50093Y34025D01*
G01X50104Y33909D01*
G01X50223Y33909D01*
G01X50223Y34503D01*
G01X50221Y34560D01*
G01X50215Y34613D01*
G01X50205Y34662D01*
G01X50190Y34708D01*
G01X50172Y34749D01*
G01X50148Y34786D01*
G01X50119Y34818D01*
G01X50086Y34845D01*
G01X50047Y34866D01*
G01X50003Y34881D01*
G01X49953Y34891D01*
G37*

%LPC*%
G36*
G01X50081Y34137D02*
G01X50081Y34417D01*
G01X49963Y34400D01*
G01X49866Y34380D01*
G01X49787Y34355D01*
G01X49725Y34326D01*
G01X49678Y34293D01*
G01X49647Y34254D01*
G01X49629Y34212D01*
G01X49623Y34165D01*
G01X49638Y34090D01*
G01X49676Y34040D01*
G01X49733Y34012D01*
G01X49801Y34002D01*
G01X49873Y34011D01*
G01X49941Y34037D01*
G01X50009Y34079D01*
G01X50081Y34137D01*
G37*

%LPD*%
G36*
G01X47520Y34890D02*
G01X47462Y34894D01*
G01X47404Y34890D01*
G01X47348Y34879D01*
G01X47295Y34860D01*
G01X47244Y34834D01*
G01X47197Y34801D01*
G01X47155Y34761D01*
G01X47117Y34715D01*
G01X47084Y34662D01*
G01X47058Y34602D01*
G01X47039Y34537D01*
G01X47027Y34466D01*
G01X47023Y34389D01*
G01X47027Y34312D01*
G01X47039Y34241D01*
G01X47058Y34176D01*
G01X47084Y34117D01*
G01X47117Y34064D01*
G01X47155Y34018D01*
G01X47197Y33979D01*
G01X47244Y33946D01*
G01X47295Y33920D01*
G01X47348Y33901D01*
G01X47404Y33890D01*
G01X47462Y33886D01*
G01X47520Y33890D01*
G01X47577Y33901D01*
G01X47631Y33920D01*
G01X47682Y33946D01*
G01X47730Y33979D01*
G01X47773Y34018D01*
G01X47811Y34064D01*
G01X47843Y34117D01*
G01X47870Y34176D01*
G01X47890Y34241D01*
G01X47902Y34312D01*
G01X47906Y34389D01*
G01X47902Y34466D01*
G01X47890Y34537D01*
G01X47870Y34602D01*
G01X47843Y34662D01*
G01X47811Y34715D01*
G01X47773Y34761D01*
G01X47730Y34801D01*
G01X47682Y34834D01*
G01X47631Y34860D01*
G01X47577Y34879D01*
G01X47520Y34890D01*
G37*

%LPC*%
G36*
G01X47524Y34762D02*
G01X47462Y34770D01*
G01X47400Y34762D01*
G01X47344Y34742D01*
G01X47294Y34709D01*
G01X47251Y34665D01*
G01X47217Y34610D01*
G01X47191Y34545D01*
G01X47175Y34470D01*
G01X47170Y34389D01*
G01X47175Y34307D01*
G01X47191Y34233D01*
G01X47217Y34168D01*
G01X47251Y34112D01*
G01X47294Y34068D01*
G01X47344Y34035D01*
G01X47400Y34015D01*
G01X47462Y34008D01*
G01X47524Y34015D01*
G01X47581Y34035D01*
G01X47631Y34068D01*
G01X47674Y34112D01*
G01X47709Y34168D01*
G01X47735Y34233D01*
G01X47751Y34307D01*
G01X47757Y34389D01*
G01X47751Y34470D01*
G01X47735Y34545D01*
G01X47709Y34610D01*
G01X47674Y34665D01*
G01X47631Y34709D01*
G01X47581Y34742D01*
G01X47524Y34762D01*
G37*

%LPD*%
G36*
G01X46012Y34885D02*
G01X45925Y34894D01*
G01X45865Y34890D01*
G01X45807Y34879D01*
G01X45751Y34860D01*
G01X45698Y34834D01*
G01X45649Y34801D01*
G01X45605Y34761D01*
G01X45566Y34715D01*
G01X45533Y34662D01*
G01X45505Y34602D01*
G01X45485Y34537D01*
G01X45473Y34466D01*
G01X45468Y34389D01*
G01X45472Y34312D01*
G01X45483Y34241D01*
G01X45502Y34176D01*
G01X45527Y34117D01*
G01X45559Y34064D01*
G01X45597Y34018D01*
G01X45639Y33979D01*
G01X45686Y33946D01*
G01X45738Y33920D01*
G01X45794Y33901D01*
G01X45853Y33890D01*
G01X45915Y33886D01*
G01X46000Y33894D01*
G01X46081Y33918D01*
G01X46155Y33956D01*
G01X46222Y34008D01*
G01X46159Y34104D01*
G01X46110Y34066D01*
G01X46054Y34036D01*
G01X45992Y34015D01*
G01X45925Y34008D01*
G01X45860Y34015D01*
G01X45800Y34035D01*
G01X45747Y34068D01*
G01X45703Y34112D01*
G01X45667Y34168D01*
G01X45640Y34233D01*
G01X45623Y34307D01*
G01X45618Y34389D01*
G01X45624Y34470D01*
G01X45641Y34545D01*
G01X45669Y34610D01*
G01X45706Y34665D01*
G01X45752Y34709D01*
G01X45805Y34742D01*
G01X45865Y34762D01*
G01X45930Y34770D01*
G01X45987Y34763D01*
G01X46038Y34746D01*
G01X46085Y34719D01*
G01X46128Y34683D01*
G01X46205Y34777D01*
G01X46151Y34822D01*
G01X46087Y34859D01*
G01X46012Y34885D01*
G37*

%LPD*%
G36*
G01X44977Y34890D02*
G01X44919Y34894D01*
G01X44865Y34890D01*
G01X44811Y34878D01*
G01X44759Y34858D01*
G01X44711Y34832D01*
G01X44665Y34798D01*
G01X44623Y34757D01*
G01X44586Y34711D01*
G01X44554Y34657D01*
G01X44528Y34598D01*
G01X44509Y34534D01*
G01X44497Y34464D01*
G01X44493Y34389D01*
G01X44497Y34312D01*
G01X44509Y34241D01*
G01X44528Y34176D01*
G01X44554Y34117D01*
G01X44587Y34064D01*
G01X44625Y34018D01*
G01X44668Y33979D01*
G01X44717Y33946D01*
G01X44769Y33920D01*
G01X44825Y33901D01*
G01X44885Y33890D01*
G01X44947Y33886D01*
G01X45040Y33893D01*
G01X45123Y33914D01*
G01X45196Y33945D01*
G01X45262Y33982D01*
G01X45209Y34079D01*
G01X45154Y34046D01*
G01X45096Y34021D01*
G01X45033Y34006D01*
G01X44965Y34000D01*
G01X44896Y34007D01*
G01X44834Y34025D01*
G01X44779Y34056D01*
G01X44731Y34097D01*
G01X44693Y34149D01*
G01X44664Y34210D01*
G01X44644Y34279D01*
G01X44635Y34356D01*
G01X45293Y34356D01*
G01X45296Y34375D01*
G01X45297Y34397D01*
G01X45298Y34420D01*
G01X45298Y34444D01*
G01X45295Y34511D01*
G01X45287Y34574D01*
G01X45272Y34631D01*
G01X45253Y34684D01*
G01X45229Y34731D01*
G01X45199Y34773D01*
G01X45164Y34809D01*
G01X45125Y34839D01*
G01X45080Y34863D01*
G01X45031Y34880D01*
G01X44977Y34890D01*
G37*

%LPC*%
G36*
G01X44978Y34772D02*
G01X44922Y34777D01*
G01X44870Y34772D01*
G01X44820Y34756D01*
G01X44773Y34730D01*
G01X44732Y34694D01*
G01X44696Y34649D01*
G01X44667Y34595D01*
G01X44647Y34533D01*
G01X44635Y34462D01*
G01X45171Y34462D01*
G01X45167Y34535D01*
G01X45154Y34598D01*
G01X45134Y34652D01*
G01X45105Y34697D01*
G01X45070Y34732D01*
G01X45027Y34757D01*
G01X44978Y34772D01*
G37*

%LPD*%
G36*
G01X41043Y35323D02*
G01X40899Y35323D01*
G01X40899Y33909D01*
G01X41013Y33909D01*
G01X41028Y34008D01*
G01X41031Y34008D01*
G01X41098Y33956D01*
G01X41169Y33918D01*
G01X41241Y33894D01*
G01X41310Y33886D01*
G01X41365Y33890D01*
G01X41418Y33901D01*
G01X41469Y33921D01*
G01X41517Y33947D01*
G01X41562Y33981D01*
G01X41603Y34022D01*
G01X41639Y34070D01*
G01X41670Y34124D01*
G01X41695Y34185D01*
G01X41713Y34251D01*
G01X41725Y34325D01*
G01X41729Y34404D01*
G01X41727Y34475D01*
G01X41718Y34542D01*
G01X41704Y34604D01*
G01X41685Y34662D01*
G01X41661Y34714D01*
G01X41631Y34759D01*
G01X41596Y34799D01*
G01X41556Y34833D01*
G01X41511Y34859D01*
G01X41460Y34878D01*
G01X41406Y34890D01*
G01X41346Y34894D01*
G01X41262Y34883D01*
G01X41182Y34853D01*
G01X41106Y34808D01*
G01X41036Y34754D01*
G01X41043Y34932D01*
G01X41043Y35323D01*
G37*

%LPC*%
G36*
G01X41377Y34762D02*
G01X41310Y34770D01*
G01X41246Y34761D01*
G01X41181Y34735D01*
G01X41113Y34692D01*
G01X41043Y34632D01*
G01X41043Y34112D01*
G01X41110Y34063D01*
G01X41174Y34031D01*
G01X41234Y34013D01*
G01X41287Y34008D01*
G01X41348Y34015D01*
G01X41403Y34035D01*
G01X41452Y34069D01*
G01X41495Y34114D01*
G01X41530Y34171D01*
G01X41555Y34239D01*
G01X41571Y34317D01*
G01X41577Y34404D01*
G01X41573Y34482D01*
G01X41562Y34552D01*
G01X41543Y34615D01*
G01X41516Y34667D01*
G01X41479Y34711D01*
G01X41433Y34743D01*
G01X41377Y34762D01*
G37*

%LPD*%
G36*
G01X39264Y34890D02*
G01X39207Y34894D01*
G01X39152Y34890D01*
G01X39098Y34878D01*
G01X39046Y34858D01*
G01X38998Y34832D01*
G01X38951Y34798D01*
G01X38909Y34757D01*
G01X38872Y34711D01*
G01X38840Y34657D01*
G01X38814Y34598D01*
G01X38794Y34534D01*
G01X38782Y34464D01*
G01X38778Y34389D01*
G01X38782Y34312D01*
G01X38794Y34241D01*
G01X38813Y34176D01*
G01X38840Y34117D01*
G01X38872Y34064D01*
G01X38911Y34018D01*
G01X38954Y33979D01*
G01X39003Y33946D01*
G01X39055Y33920D01*
G01X39111Y33901D01*
G01X39170Y33890D01*
G01X39232Y33886D01*
G01X39326Y33893D01*
G01X39409Y33914D01*
G01X39482Y33945D01*
G01X39547Y33982D01*
G01X39494Y34079D01*
G01X39439Y34046D01*
G01X39381Y34021D01*
G01X39318Y34006D01*
G01X39250Y34000D01*
G01X39181Y34007D01*
G01X39119Y34025D01*
G01X39064Y34056D01*
G01X39017Y34097D01*
G01X38978Y34149D01*
G01X38950Y34210D01*
G01X38931Y34279D01*
G01X38922Y34356D01*
G01X39578Y34356D01*
G01X39581Y34375D01*
G01X39583Y34397D01*
G01X39585Y34420D01*
G01X39585Y34444D01*
G01X39582Y34511D01*
G01X39574Y34574D01*
G01X39560Y34631D01*
G01X39540Y34684D01*
G01X39516Y34731D01*
G01X39486Y34773D01*
G01X39451Y34809D01*
G01X39411Y34839D01*
G01X39367Y34863D01*
G01X39318Y34880D01*
G01X39264Y34890D01*
G37*

%LPC*%
G36*
G01X39263Y34772D02*
G01X39207Y34777D01*
G01X39155Y34772D01*
G01X39105Y34756D01*
G01X39059Y34730D01*
G01X39018Y34694D01*
G01X38982Y34649D01*
G01X38953Y34595D01*
G01X38932Y34533D01*
G01X38920Y34462D01*
G01X39456Y34462D01*
G01X39452Y34535D01*
G01X39439Y34598D01*
G01X39419Y34652D01*
G01X39390Y34697D01*
G01X39355Y34732D01*
G01X39312Y34757D01*
G01X39263Y34772D01*
G37*

%LPD*%
G36*
G01X38394Y35140D02*
G01X38272Y35140D01*
G01X38254Y34869D01*
G01X38105Y34858D01*
G01X38105Y34749D01*
G01X38249Y34749D01*
G01X38249Y34198D01*
G01X38252Y34132D01*
G01X38263Y34071D01*
G01X38280Y34018D01*
G01X38306Y33973D01*
G01X38342Y33935D01*
G01X38388Y33909D01*
G01X38444Y33891D01*
G01X38514Y33886D01*
G01X38555Y33889D01*
G01X38599Y33897D01*
G01X38642Y33908D01*
G01X38684Y33921D01*
G01X38656Y34030D01*
G01X38630Y34021D01*
G01X38602Y34013D01*
G01X38572Y34007D01*
G01X38544Y34005D01*
G01X38472Y34018D01*
G01X38426Y34055D01*
G01X38401Y34114D01*
G01X38394Y34193D01*
G01X38394Y34749D01*
G01X38658Y34749D01*
G01X38658Y34869D01*
G01X38394Y34869D01*
G01X38394Y35140D01*
G37*

%LPD*%
G36*
G01X36575Y34891D02*
G01X36520Y34894D01*
G01X36463Y34891D01*
G01X36408Y34882D01*
G01X36356Y34869D01*
G01X36306Y34851D01*
G01X36261Y34832D01*
G01X36218Y34810D01*
G01X36180Y34788D01*
G01X36146Y34767D01*
G01X36205Y34665D01*
G01X36265Y34704D01*
G01X36335Y34738D01*
G01X36412Y34762D01*
G01X36497Y34772D01*
G01X36553Y34767D01*
G01X36598Y34750D01*
G01X36634Y34725D01*
G01X36661Y34692D01*
G01X36680Y34654D01*
G01X36692Y34610D01*
G01X36699Y34564D01*
G01X36700Y34516D01*
G01X36602Y34502D01*
G01X36513Y34487D01*
G01X36433Y34468D01*
G01X36363Y34447D01*
G01X36301Y34424D01*
G01X36248Y34396D01*
G01X36204Y34366D01*
G01X36168Y34331D01*
G01X36141Y34294D01*
G01X36121Y34251D01*
G01X36110Y34205D01*
G01X36106Y34155D01*
G01X36111Y34094D01*
G01X36127Y34040D01*
G01X36152Y33994D01*
G01X36185Y33955D01*
G01X36227Y33925D01*
G01X36274Y33903D01*
G01X36327Y33890D01*
G01X36385Y33886D01*
G01X36473Y33896D01*
G01X36557Y33926D01*
G01X36635Y33970D01*
G01X36708Y34025D01*
G01X36713Y34025D01*
G01X36725Y33909D01*
G01X36845Y33909D01*
G01X36845Y34503D01*
G01X36843Y34560D01*
G01X36837Y34613D01*
G01X36827Y34662D01*
G01X36812Y34708D01*
G01X36793Y34749D01*
G01X36770Y34786D01*
G01X36741Y34818D01*
G01X36708Y34845D01*
G01X36669Y34866D01*
G01X36625Y34881D01*
G01X36575Y34891D01*
G37*

%LPC*%
G36*
G01X36700Y34137D02*
G01X36700Y34417D01*
G01X36584Y34400D01*
G01X36487Y34380D01*
G01X36408Y34355D01*
G01X36346Y34326D01*
G01X36300Y34293D01*
G01X36269Y34254D01*
G01X36251Y34212D01*
G01X36245Y34165D01*
G01X36260Y34090D01*
G01X36298Y34040D01*
G01X36355Y34012D01*
G01X36423Y34002D01*
G01X36495Y34011D01*
G01X36562Y34037D01*
G01X36630Y34079D01*
G01X36700Y34137D01*
G37*

%LPD*%
G36*
G01X35831Y35323D02*
G01X35687Y35323D01*
G01X35687Y34947D01*
G01X35694Y34780D01*
G01X35631Y34827D01*
G01X35567Y34864D01*
G01X35498Y34886D01*
G01X35420Y34894D01*
G01X35365Y34890D01*
G01X35312Y34878D01*
G01X35261Y34858D01*
G01X35213Y34832D01*
G01X35168Y34798D01*
G01X35127Y34757D01*
G01X35091Y34711D01*
G01X35060Y34657D01*
G01X35035Y34598D01*
G01X35016Y34534D01*
G01X35005Y34464D01*
G01X35001Y34389D01*
G01X35004Y34311D01*
G01X35013Y34239D01*
G01X35029Y34174D01*
G01X35050Y34115D01*
G01X35076Y34062D01*
G01X35108Y34016D01*
G01X35145Y33977D01*
G01X35187Y33945D01*
G01X35233Y33919D01*
G01X35284Y33900D01*
G01X35339Y33889D01*
G01X35397Y33886D01*
G01X35482Y33896D01*
G01X35561Y33926D01*
G01X35632Y33969D01*
G01X35694Y34023D01*
G01X35699Y34023D01*
G01X35712Y33909D01*
G01X35831Y33909D01*
G01X35831Y35323D01*
G37*

%LPC*%
G36*
G01X35504Y34764D02*
G01X35443Y34770D01*
G01X35383Y34762D01*
G01X35328Y34742D01*
G01X35279Y34708D01*
G01X35236Y34663D01*
G01X35201Y34608D01*
G01X35175Y34542D01*
G01X35159Y34469D01*
G01X35153Y34389D01*
G01X35158Y34304D01*
G01X35171Y34230D01*
G01X35194Y34164D01*
G01X35225Y34110D01*
G01X35264Y34066D01*
G01X35311Y34034D01*
G01X35365Y34014D01*
G01X35427Y34008D01*
G01X35494Y34016D01*
G01X35560Y34042D01*
G01X35624Y34085D01*
G01X35687Y34145D01*
G01X35687Y34663D01*
G01X35624Y34713D01*
G01X35564Y34746D01*
G01X35504Y34764D01*
G37*

%LPD*%
G36*
G01X32008Y35231D02*
G01X31950Y35234D01*
G01X31889Y35231D01*
G01X31831Y35223D01*
G01X31775Y35208D01*
G01X31722Y35188D01*
G01X31671Y35162D01*
G01X31624Y35131D01*
G01X31580Y35095D01*
G01X31541Y35054D01*
G01X31505Y35008D01*
G01X31473Y34957D01*
G01X31445Y34901D01*
G01X31421Y34841D01*
G01X31403Y34777D01*
G01X31390Y34708D01*
G01X31381Y34635D01*
G01X31379Y34559D01*
G01X31381Y34482D01*
G01X31389Y34409D01*
G01X31403Y34340D01*
G01X31421Y34276D01*
G01X31444Y34216D01*
G01X31471Y34160D01*
G01X31503Y34110D01*
G01X31538Y34064D01*
G01X31578Y34023D01*
G01X31620Y33987D01*
G01X31667Y33957D01*
G01X31716Y33931D01*
G01X31768Y33912D01*
G01X31823Y33897D01*
G01X31881Y33889D01*
G01X31940Y33886D01*
G01X32001Y33889D01*
G01X32058Y33898D01*
G01X32112Y33914D01*
G01X32163Y33934D01*
G01X32210Y33961D01*
G01X32255Y33993D01*
G01X32297Y34029D01*
G01X32336Y34071D01*
G01X32255Y34165D01*
G01X32188Y34101D01*
G01X32115Y34054D01*
G01X32035Y34025D01*
G01X31945Y34015D01*
G01X31884Y34020D01*
G01X31826Y34032D01*
G01X31773Y34053D01*
G01X31725Y34082D01*
G01X31681Y34119D01*
G01X31643Y34163D01*
G01X31610Y34214D01*
G01X31582Y34271D01*
G01X31560Y34336D01*
G01X31544Y34406D01*
G01X31534Y34482D01*
G01X31531Y34564D01*
G01X31535Y34644D01*
G01X31544Y34719D01*
G01X31561Y34788D01*
G01X31583Y34851D01*
G01X31612Y34908D01*
G01X31646Y34958D01*
G01X31685Y35001D01*
G01X31729Y35037D01*
G01X31778Y35065D01*
G01X31832Y35086D01*
G01X31891Y35098D01*
G01X31953Y35102D01*
G01X32032Y35094D01*
G01X32104Y35069D01*
G01X32167Y35030D01*
G01X32222Y34978D01*
G01X32303Y35074D01*
G01X32273Y35104D01*
G01X32239Y35134D01*
G01X32201Y35161D01*
G01X32158Y35185D01*
G01X32112Y35205D01*
G01X32061Y35221D01*
G01X32008Y35231D01*
G37*

%LPD*%
G36*
G01X37667Y34890D02*
G01X37607Y34894D01*
G01X37523Y34882D01*
G01X37443Y34852D01*
G01X37367Y34808D01*
G01X37297Y34757D01*
G01X37292Y34757D01*
G01X37279Y34869D01*
G01X37162Y34869D01*
G01X37162Y33497D01*
G01X37304Y33497D01*
G01X37304Y33827D01*
G01X37302Y33997D01*
G01X37370Y33950D01*
G01X37438Y33915D01*
G01X37505Y33893D01*
G01X37571Y33886D01*
G01X37627Y33890D01*
G01X37680Y33901D01*
G01X37731Y33921D01*
G01X37779Y33947D01*
G01X37824Y33981D01*
G01X37865Y34022D01*
G01X37900Y34070D01*
G01X37931Y34124D01*
G01X37956Y34185D01*
G01X37975Y34251D01*
G01X37986Y34325D01*
G01X37990Y34404D01*
G01X37988Y34475D01*
G01X37979Y34542D01*
G01X37966Y34604D01*
G01X37947Y34662D01*
G01X37922Y34714D01*
G01X37893Y34759D01*
G01X37858Y34799D01*
G01X37818Y34833D01*
G01X37773Y34859D01*
G01X37723Y34878D01*
G01X37667Y34890D01*
G37*

%LPC*%
G36*
G01X37641Y34762D02*
G01X37574Y34770D01*
G01X37510Y34761D01*
G01X37445Y34735D01*
G01X37377Y34692D01*
G01X37304Y34632D01*
G01X37304Y34112D01*
G01X37372Y34063D01*
G01X37437Y34031D01*
G01X37498Y34013D01*
G01X37551Y34008D01*
G01X37611Y34015D01*
G01X37667Y34035D01*
G01X37716Y34069D01*
G01X37759Y34114D01*
G01X37793Y34171D01*
G01X37819Y34239D01*
G01X37835Y34317D01*
G01X37840Y34404D01*
G01X37837Y34482D01*
G01X37826Y34552D01*
G01X37807Y34615D01*
G01X37779Y34667D01*
G01X37743Y34711D01*
G01X37697Y34743D01*
G01X37641Y34762D01*
G37*

%LPD*%
G36*
G01X41988Y34869D02*
G01X41838Y34869D01*
G01X42224Y33903D01*
G01X42204Y33827D01*
G01X42167Y33742D01*
G01X42117Y33673D01*
G01X42054Y33628D01*
G01X41978Y33611D01*
G01X41959Y33613D01*
G01X41939Y33616D01*
G01X41921Y33621D01*
G01X41904Y33627D01*
G01X41874Y33510D01*
G01X41898Y33501D01*
G01X41925Y33495D01*
G01X41954Y33491D01*
G01X41986Y33489D01*
G01X42051Y33496D01*
G01X42110Y33515D01*
G01X42160Y33546D01*
G01X42206Y33586D01*
G01X42245Y33635D01*
G01X42280Y33691D01*
G01X42310Y33753D01*
G01X42336Y33820D01*
G01X42702Y34869D01*
G01X42560Y34869D01*
G01X42379Y34320D01*
G01X42359Y34254D01*
G01X42338Y34186D01*
G01X42317Y34116D01*
G01X42298Y34048D01*
G01X42288Y34048D01*
G01X42264Y34116D01*
G01X42240Y34186D01*
G01X42215Y34254D01*
G01X42191Y34320D01*
G01X41988Y34869D01*
G37*

%LPD*%

%LPD*%
G36*
G01X52645Y26142D02*
G01X52539Y26154D01*
G01X52485Y26151D01*
G01X52433Y26144D01*
G01X52383Y26132D01*
G01X52336Y26114D01*
G01X52291Y26092D01*
G01X52249Y26066D01*
G01X52210Y26035D01*
G01X52175Y26000D01*
G01X52143Y25960D01*
G01X52114Y25917D01*
G01X52090Y25870D01*
G01X52070Y25819D01*
G01X52053Y25764D01*
G01X52041Y25705D01*
G01X52034Y25643D01*
G01X52031Y25577D01*
G01X52034Y25511D01*
G01X52041Y25448D01*
G01X52052Y25389D01*
G01X52068Y25333D01*
G01X52088Y25282D01*
G01X52112Y25234D01*
G01X52140Y25191D01*
G01X52171Y25152D01*
G01X52206Y25117D01*
G01X52243Y25086D01*
G01X52284Y25059D01*
G01X52328Y25038D01*
G01X52375Y25021D01*
G01X52424Y25008D01*
G01X52475Y25001D01*
G01X52529Y24998D01*
G01X52584Y25001D01*
G01X52635Y25008D01*
G01X52684Y25019D01*
G01X52729Y25034D01*
G01X52770Y25053D01*
G01X52808Y25075D01*
G01X52841Y25100D01*
G01X52870Y25128D01*
G01X52870Y25590D01*
G01X52511Y25590D01*
G01X52511Y25486D01*
G01X52753Y25486D01*
G01X52753Y25181D01*
G01X52712Y25151D01*
G01X52662Y25128D01*
G01X52604Y25115D01*
G01X52542Y25110D01*
G01X52483Y25113D01*
G01X52429Y25125D01*
G01X52379Y25142D01*
G01X52335Y25167D01*
G01X52295Y25199D01*
G01X52260Y25236D01*
G01X52230Y25280D01*
G01X52206Y25329D01*
G01X52186Y25384D01*
G01X52172Y25445D01*
G01X52164Y25510D01*
G01X52161Y25580D01*
G01X52164Y25649D01*
G01X52173Y25714D01*
G01X52188Y25773D01*
G01X52208Y25827D01*
G01X52234Y25876D01*
G01X52265Y25919D01*
G01X52300Y25955D01*
G01X52340Y25986D01*
G01X52385Y26010D01*
G01X52433Y26028D01*
G01X52486Y26039D01*
G01X52542Y26042D01*
G01X52620Y26034D01*
G01X52686Y26012D01*
G01X52740Y25978D01*
G01X52786Y25935D01*
G01X52857Y26019D01*
G01X52802Y26067D01*
G01X52731Y26110D01*
G01X52645Y26142D01*
G37*

%LPD*%
G36*
G01X52077Y23594D02*
G01X51945Y23594D01*
G01X52303Y22479D01*
G01X52448Y22479D01*
G01X52806Y23594D01*
G01X52677Y23594D01*
G01X52494Y22979D01*
G01X52478Y22931D01*
G01X52464Y22884D01*
G01X52425Y22749D01*
G01X52411Y22704D01*
G01X52397Y22658D01*
G01X52382Y22611D01*
G01X52374Y22611D01*
G01X52360Y22658D01*
G01X52346Y22704D01*
G01X52294Y22884D01*
G01X52280Y22931D01*
G01X52265Y22979D01*
G01X52077Y23594D01*
G37*

%LPD*%
G36*
G01X52224Y21054D02*
G01X52097Y21054D01*
G01X52097Y19939D01*
G01X52224Y19939D01*
G01X52224Y20472D01*
G01X52763Y20472D01*
G01X52763Y19939D01*
G01X52890Y19939D01*
G01X52890Y21054D01*
G01X52763Y21054D01*
G01X52763Y20581D01*
G01X52224Y20581D01*
G01X52224Y21054D01*
G37*

%LPD*%
G36*
G01X53612Y21064D02*
G01X53515Y21074D01*
G01X53443Y21068D01*
G01X53378Y21052D01*
G01X53319Y21026D01*
G01X53269Y20992D01*
G01X53228Y20949D01*
G01X53198Y20899D01*
G01X53178Y20843D01*
G01X53172Y20782D01*
G01X53177Y20725D01*
G01X53193Y20675D01*
G01X53216Y20632D01*
G01X53246Y20596D01*
G01X53281Y20565D01*
G01X53319Y20539D01*
G01X53358Y20518D01*
G01X53398Y20500D01*
G01X53560Y20429D01*
G01X53635Y20393D01*
G01X53696Y20353D01*
G01X53736Y20299D01*
G01X53751Y20223D01*
G01X53746Y20182D01*
G01X53734Y20145D01*
G01X53713Y20112D01*
G01X53685Y20084D01*
G01X53649Y20061D01*
G01X53607Y20044D01*
G01X53559Y20033D01*
G01X53505Y20030D01*
G01X53417Y20040D01*
G01X53334Y20069D01*
G01X53259Y20114D01*
G01X53192Y20172D01*
G01X53116Y20086D01*
G01X53154Y20049D01*
G01X53195Y20016D01*
G01X53239Y19987D01*
G01X53286Y19963D01*
G01X53336Y19944D01*
G01X53389Y19930D01*
G01X53444Y19921D01*
G01X53502Y19918D01*
G01X53584Y19924D01*
G01X53659Y19943D01*
G01X53723Y19971D01*
G01X53777Y20009D01*
G01X53820Y20055D01*
G01X53852Y20108D01*
G01X53871Y20167D01*
G01X53878Y20231D01*
G01X53873Y20290D01*
G01X53860Y20340D01*
G01X53838Y20385D01*
G01X53810Y20422D01*
G01X53776Y20455D01*
G01X53737Y20484D01*
G01X53693Y20508D01*
G01X53647Y20530D01*
G01X53484Y20599D01*
G01X53420Y20628D01*
G01X53360Y20666D01*
G01X53316Y20719D01*
G01X53299Y20792D01*
G01X53315Y20863D01*
G01X53358Y20916D01*
G01X53426Y20950D01*
G01X53515Y20962D01*
G01X53590Y20955D01*
G01X53659Y20934D01*
G01X53719Y20900D01*
G01X53774Y20855D01*
G01X53840Y20937D01*
G01X53776Y20993D01*
G01X53699Y21036D01*
G01X53612Y21064D01*
G37*

%LPD*%
G36*
G01X52440Y18514D02*
G01X52097Y18514D01*
G01X52097Y17399D01*
G01X52224Y17399D01*
G01X52224Y17881D01*
G01X52433Y17881D01*
G01X52712Y17399D01*
G01X52854Y17399D01*
G01X52565Y17891D01*
G01X52621Y17908D01*
G01X52671Y17930D01*
G01X52716Y17959D01*
G01X52753Y17995D01*
G01X52783Y18037D01*
G01X52806Y18086D01*
G01X52819Y18141D01*
G01X52824Y18204D01*
G01X52817Y18282D01*
G01X52796Y18348D01*
G01X52762Y18402D01*
G01X52717Y18444D01*
G01X52661Y18476D01*
G01X52596Y18497D01*
G01X52522Y18509D01*
G01X52440Y18514D01*
G37*

%LPC*%
G36*
G01X52420Y18412D02*
G01X52224Y18412D01*
G01X52224Y17983D01*
G01X52420Y17983D01*
G01X52484Y17986D01*
G01X52540Y17996D01*
G01X52588Y18014D01*
G01X52627Y18038D01*
G01X52659Y18069D01*
G01X52681Y18107D01*
G01X52695Y18152D01*
G01X52699Y18204D01*
G01X52695Y18257D01*
G01X52681Y18301D01*
G01X52659Y18337D01*
G01X52627Y18365D01*
G01X52588Y18386D01*
G01X52540Y18401D01*
G01X52484Y18409D01*
G01X52420Y18412D01*
G37*

%LPD*%
G36*
G01X52645Y15982D02*
G01X52539Y15994D01*
G01X52485Y15991D01*
G01X52433Y15984D01*
G01X52383Y15972D01*
G01X52336Y15954D01*
G01X52291Y15932D01*
G01X52249Y15906D01*
G01X52210Y15875D01*
G01X52175Y15840D01*
G01X52143Y15800D01*
G01X52114Y15757D01*
G01X52090Y15710D01*
G01X52070Y15659D01*
G01X52053Y15604D01*
G01X52041Y15545D01*
G01X52034Y15483D01*
G01X52031Y15417D01*
G01X52034Y15351D01*
G01X52041Y15288D01*
G01X52052Y15229D01*
G01X52068Y15173D01*
G01X52088Y15122D01*
G01X52112Y15074D01*
G01X52140Y15031D01*
G01X52171Y14992D01*
G01X52206Y14957D01*
G01X52243Y14926D01*
G01X52284Y14899D01*
G01X52328Y14878D01*
G01X52375Y14861D01*
G01X52424Y14848D01*
G01X52475Y14841D01*
G01X52529Y14838D01*
G01X52584Y14841D01*
G01X52635Y14848D01*
G01X52684Y14859D01*
G01X52729Y14874D01*
G01X52770Y14893D01*
G01X52808Y14915D01*
G01X52841Y14940D01*
G01X52870Y14968D01*
G01X52870Y15430D01*
G01X52511Y15430D01*
G01X52511Y15326D01*
G01X52753Y15326D01*
G01X52753Y15021D01*
G01X52712Y14991D01*
G01X52662Y14968D01*
G01X52604Y14955D01*
G01X52542Y14950D01*
G01X52483Y14953D01*
G01X52429Y14965D01*
G01X52379Y14982D01*
G01X52335Y15007D01*
G01X52295Y15039D01*
G01X52260Y15076D01*
G01X52230Y15120D01*
G01X52206Y15169D01*
G01X52186Y15224D01*
G01X52172Y15285D01*
G01X52164Y15350D01*
G01X52161Y15420D01*
G01X52164Y15489D01*
G01X52173Y15554D01*
G01X52188Y15613D01*
G01X52208Y15667D01*
G01X52234Y15716D01*
G01X52265Y15759D01*
G01X52300Y15795D01*
G01X52340Y15826D01*
G01X52385Y15850D01*
G01X52433Y15868D01*
G01X52486Y15879D01*
G01X52542Y15882D01*
G01X52620Y15874D01*
G01X52686Y15852D01*
G01X52740Y15818D01*
G01X52786Y15775D01*
G01X52857Y15859D01*
G01X52802Y15907D01*
G01X52731Y15950D01*
G01X52645Y15982D01*
G37*

%LPD*%
G36*
G01X52420Y13434D02*
G01X52097Y13434D01*
G01X52097Y12319D01*
G01X52445Y12319D01*
G01X52506Y12321D01*
G01X52563Y12328D01*
G01X52616Y12339D01*
G01X52665Y12355D01*
G01X52710Y12375D01*
G01X52750Y12400D01*
G01X52784Y12429D01*
G01X52813Y12463D01*
G01X52836Y12502D01*
G01X52853Y12545D01*
G01X52864Y12592D01*
G01X52867Y12644D01*
G01X52863Y12698D01*
G01X52850Y12746D01*
G01X52830Y12789D01*
G01X52803Y12826D01*
G01X52770Y12856D01*
G01X52730Y12881D01*
G01X52685Y12900D01*
G01X52636Y12913D01*
G01X52636Y12918D01*
G01X52707Y12956D01*
G01X52758Y13011D01*
G01X52790Y13082D01*
G01X52801Y13162D01*
G01X52794Y13229D01*
G01X52774Y13286D01*
G01X52741Y13332D01*
G01X52696Y13370D01*
G01X52641Y13399D01*
G01X52576Y13418D01*
G01X52502Y13430D01*
G01X52420Y13434D01*
G37*

%LPC*%
G36*
G01X52425Y12857D02*
G01X52224Y12857D01*
G01X52224Y12420D01*
G01X52425Y12420D01*
G01X52496Y12424D01*
G01X52559Y12434D01*
G01X52614Y12451D01*
G01X52659Y12475D01*
G01X52696Y12507D01*
G01X52723Y12547D01*
G01X52740Y12594D01*
G01X52745Y12649D01*
G01X52740Y12699D01*
G01X52724Y12742D01*
G01X52697Y12778D01*
G01X52661Y12807D01*
G01X52616Y12829D01*
G01X52561Y12845D01*
G01X52497Y12854D01*
G01X52425Y12857D01*
G37*
G36*
G01X52402Y13335D02*
G01X52224Y13335D01*
G01X52224Y12956D01*
G01X52395Y12956D01*
G01X52464Y12960D01*
G01X52523Y12969D01*
G01X52572Y12986D01*
G01X52611Y13007D01*
G01X52640Y13035D01*
G01X52661Y13067D01*
G01X52672Y13105D01*
G01X52677Y13147D01*
G01X52672Y13194D01*
G01X52659Y13234D01*
G01X52638Y13266D01*
G01X52608Y13292D01*
G01X52569Y13311D01*
G01X52522Y13324D01*
G01X52467Y13332D01*
G01X52402Y13335D01*
G37*

%LPD*%

%LPD*%
G36*
G01X3594Y34996D02*
G01X3444Y34996D01*
G01X3794Y34036D01*
G01X3962Y34036D01*
G01X4305Y34996D01*
G01X4163Y34996D01*
G01X3972Y34437D01*
G01X3951Y34366D01*
G01X3928Y34295D01*
G01X3906Y34224D01*
G01X3883Y34155D01*
G01X3876Y34155D01*
G01X3852Y34224D01*
G01X3806Y34366D01*
G01X3784Y34437D01*
G01X3594Y34996D01*
G37*

%LPD*%
G36*
G01X2384Y35020D02*
G01X2354Y35021D01*
G01X2276Y35006D01*
G01X2203Y34966D01*
G01X2138Y34902D01*
G01X2082Y34820D01*
G01X2077Y34820D01*
G01X2065Y34996D01*
G01X1945Y34996D01*
G01X1945Y34036D01*
G01X2090Y34036D01*
G01X2090Y34660D01*
G01X2145Y34767D01*
G01X2207Y34838D01*
G01X2273Y34877D01*
G01X2336Y34889D01*
G01X2362Y34888D01*
G01X2385Y34885D01*
G01X2406Y34880D01*
G01X2428Y34874D01*
G01X2456Y34998D01*
G01X2433Y35009D01*
G01X2409Y35016D01*
G01X2384Y35020D01*
G37*

%LPD*%
G36*
G01X6850Y35351D02*
G01X6758Y35361D01*
G01X6712Y35359D01*
G01X6666Y35352D01*
G01X6622Y35340D01*
G01X6579Y35323D01*
G01X6538Y35301D01*
G01X6499Y35273D01*
G01X6462Y35240D01*
G01X6428Y35201D01*
G01X6396Y35156D01*
G01X6368Y35104D01*
G01X6343Y35046D01*
G01X6323Y34982D01*
G01X6306Y34911D01*
G01X6294Y34833D01*
G01X6286Y34748D01*
G01X6283Y34655D01*
G01X6285Y34578D01*
G01X6292Y34505D01*
G01X6302Y34437D01*
G01X6315Y34375D01*
G01X6332Y34317D01*
G01X6353Y34265D01*
G01X6377Y34217D01*
G01X6404Y34174D01*
G01X6434Y34136D01*
G01X6466Y34104D01*
G01X6502Y34076D01*
G01X6539Y34053D01*
G01X6580Y34036D01*
G01X6622Y34023D01*
G01X6666Y34015D01*
G01X6713Y34013D01*
G01X6761Y34016D01*
G01X6809Y34026D01*
G01X6853Y34043D01*
G01X6896Y34066D01*
G01X6935Y34095D01*
G01X6970Y34129D01*
G01X7001Y34169D01*
G01X7028Y34213D01*
G01X7049Y34262D01*
G01X7065Y34316D01*
G01X7075Y34373D01*
G01X7078Y34434D01*
G01X7075Y34499D01*
G01X7067Y34558D01*
G01X7054Y34612D01*
G01X7035Y34659D01*
G01X7011Y34701D01*
G01X6982Y34739D01*
G01X6949Y34770D01*
G01X6911Y34795D01*
G01X6870Y34815D01*
G01X6823Y34830D01*
G01X6774Y34838D01*
G01X6720Y34841D01*
G01X6641Y34830D01*
G01X6562Y34798D01*
G01X6487Y34749D01*
G01X6421Y34683D01*
G01X6426Y34782D01*
G01X6436Y34869D01*
G01X6452Y34946D01*
G01X6472Y35012D01*
G01X6497Y35070D01*
G01X6527Y35118D01*
G01X6560Y35157D01*
G01X6596Y35188D01*
G01X6635Y35211D01*
G01X6677Y35227D01*
G01X6720Y35236D01*
G01X6766Y35239D01*
G01X6823Y35232D01*
G01X6879Y35213D01*
G01X6930Y35182D01*
G01X6974Y35140D01*
G01X7056Y35229D01*
G01X6998Y35282D01*
G01X6930Y35324D01*
G01X6850Y35351D01*
G37*

%LPC*%
G36*
G01X6756Y34726D02*
G01X6697Y34731D01*
G01X6633Y34722D01*
G01X6563Y34692D01*
G01X6492Y34640D01*
G01X6423Y34561D01*
G01X6429Y34495D01*
G01X6439Y34433D01*
G01X6452Y34376D01*
G01X6468Y34326D01*
G01X6487Y34280D01*
G01X6510Y34240D01*
G01X6536Y34206D01*
G01X6565Y34178D01*
G01X6597Y34156D01*
G01X6632Y34140D01*
G01X6671Y34130D01*
G01X6713Y34127D01*
G01X6760Y34133D01*
G01X6804Y34149D01*
G01X6843Y34176D01*
G01X6877Y34212D01*
G01X6905Y34256D01*
G01X6926Y34309D01*
G01X6939Y34369D01*
G01X6944Y34434D01*
G01X6940Y34499D01*
G01X6929Y34557D01*
G01X6910Y34608D01*
G01X6883Y34651D01*
G01X6849Y34685D01*
G01X6807Y34711D01*
G01X6756Y34726D01*
G37*

%LPD*%
G36*
G01X5983Y34236D02*
G01X5941Y34244D01*
G01X5899Y34236D01*
G01X5864Y34212D01*
G01X5840Y34175D01*
G01X5831Y34127D01*
G01X5840Y34080D01*
G01X5864Y34044D01*
G01X5899Y34021D01*
G01X5941Y34013D01*
G01X5983Y34021D01*
G01X6018Y34044D01*
G01X6041Y34080D01*
G01X6050Y34127D01*
G01X6041Y34175D01*
G01X6018Y34212D01*
G01X5983Y34236D01*
G37*

%LPD*%
G36*
G01X5259Y35359D02*
G01X5214Y35361D01*
G01X5169Y35359D01*
G01X5126Y35351D01*
G01X5086Y35338D01*
G01X5048Y35320D01*
G01X5012Y35297D01*
G01X4979Y35268D01*
G01X4949Y35235D01*
G01X4923Y35196D01*
G01X4898Y35151D01*
G01X4876Y35102D01*
G01X4858Y35047D01*
G01X4843Y34986D01*
G01X4831Y34920D01*
G01X4822Y34849D01*
G01X4817Y34773D01*
G01X4815Y34691D01*
G01X4817Y34609D01*
G01X4822Y34531D01*
G01X4831Y34459D01*
G01X4843Y34393D01*
G01X4858Y34332D01*
G01X4876Y34276D01*
G01X4898Y34226D01*
G01X4923Y34181D01*
G01X4949Y34142D01*
G01X4979Y34107D01*
G01X5012Y34078D01*
G01X5048Y34055D01*
G01X5086Y34037D01*
G01X5126Y34023D01*
G01X5169Y34015D01*
G01X5214Y34013D01*
G01X5259Y34015D01*
G01X5301Y34023D01*
G01X5341Y34037D01*
G01X5379Y34055D01*
G01X5414Y34078D01*
G01X5447Y34107D01*
G01X5477Y34142D01*
G01X5504Y34181D01*
G01X5528Y34226D01*
G01X5549Y34276D01*
G01X5568Y34332D01*
G01X5583Y34393D01*
G01X5595Y34459D01*
G01X5603Y34531D01*
G01X5609Y34609D01*
G01X5610Y34691D01*
G01X5609Y34773D01*
G01X5603Y34849D01*
G01X5595Y34919D01*
G01X5583Y34985D01*
G01X5568Y35045D01*
G01X5549Y35101D01*
G01X5528Y35150D01*
G01X5504Y35195D01*
G01X5477Y35234D01*
G01X5447Y35268D01*
G01X5414Y35296D01*
G01X5379Y35320D01*
G01X5341Y35338D01*
G01X5301Y35351D01*
G01X5259Y35359D01*
G37*

%LPC*%
G36*
G01X5251Y35238D02*
G01X5214Y35242D01*
G01X5177Y35238D01*
G01X5141Y35228D01*
G01X5108Y35209D01*
G01X5078Y35184D01*
G01X5051Y35151D01*
G01X5027Y35109D01*
G01X5005Y35060D01*
G01X4988Y35003D01*
G01X4974Y34938D01*
G01X4964Y34864D01*
G01X4957Y34782D01*
G01X4955Y34691D01*
G01X4957Y34599D01*
G01X4964Y34515D01*
G01X4974Y34440D01*
G01X4988Y34374D01*
G01X5005Y34315D01*
G01X5027Y34265D01*
G01X5051Y34223D01*
G01X5078Y34189D01*
G01X5108Y34163D01*
G01X5141Y34144D01*
G01X5177Y34133D01*
G01X5214Y34129D01*
G01X5251Y34133D01*
G01X5286Y34144D01*
G01X5318Y34163D01*
G01X5348Y34189D01*
G01X5376Y34223D01*
G01X5400Y34265D01*
G01X5420Y34315D01*
G01X5438Y34374D01*
G01X5452Y34440D01*
G01X5462Y34515D01*
G01X5469Y34599D01*
G01X5471Y34691D01*
G01X5469Y34782D01*
G01X5462Y34864D01*
G01X5452Y34938D01*
G01X5438Y35003D01*
G01X5420Y35060D01*
G01X5400Y35109D01*
G01X5376Y35151D01*
G01X5348Y35184D01*
G01X5318Y35209D01*
G01X5286Y35228D01*
G01X5251Y35238D01*
G37*

%LPD*%
G36*
G01X3012Y35017D02*
G01X2954Y35021D01*
G01X2899Y35017D01*
G01X2846Y35005D01*
G01X2795Y34985D01*
G01X2746Y34959D01*
G01X2700Y34925D01*
G01X2658Y34884D01*
G01X2621Y34838D01*
G01X2589Y34784D01*
G01X2563Y34725D01*
G01X2543Y34661D01*
G01X2531Y34591D01*
G01X2527Y34516D01*
G01X2531Y34439D01*
G01X2543Y34368D01*
G01X2562Y34303D01*
G01X2588Y34244D01*
G01X2621Y34191D01*
G01X2659Y34145D01*
G01X2703Y34106D01*
G01X2751Y34073D01*
G01X2803Y34047D01*
G01X2860Y34028D01*
G01X2919Y34017D01*
G01X2981Y34013D01*
G01X3074Y34020D01*
G01X3157Y34041D01*
G01X3230Y34072D01*
G01X3296Y34109D01*
G01X3243Y34206D01*
G01X3188Y34173D01*
G01X3130Y34148D01*
G01X3067Y34133D01*
G01X2999Y34127D01*
G01X2930Y34134D01*
G01X2868Y34152D01*
G01X2813Y34183D01*
G01X2766Y34224D01*
G01X2727Y34276D01*
G01X2698Y34337D01*
G01X2678Y34406D01*
G01X2669Y34483D01*
G01X3327Y34483D01*
G01X3330Y34502D01*
G01X3332Y34524D01*
G01X3334Y34547D01*
G01X3335Y34571D01*
G01X3331Y34638D01*
G01X3323Y34701D01*
G01X3309Y34758D01*
G01X3289Y34811D01*
G01X3264Y34858D01*
G01X3234Y34900D01*
G01X3199Y34936D01*
G01X3160Y34966D01*
G01X3115Y34990D01*
G01X3065Y35007D01*
G01X3012Y35017D01*
G37*

%LPC*%
G36*
G01X3012Y34899D02*
G01X2956Y34904D01*
G01X2904Y34899D01*
G01X2854Y34883D01*
G01X2807Y34857D01*
G01X2766Y34821D01*
G01X2730Y34776D01*
G01X2702Y34722D01*
G01X2681Y34660D01*
G01X2669Y34589D01*
G01X3205Y34589D01*
G01X3201Y34662D01*
G01X3188Y34725D01*
G01X3168Y34779D01*
G01X3139Y34824D01*
G01X3104Y34859D01*
G01X3061Y34884D01*
G01X3012Y34899D01*
G37*

%LPD*%
G54D28*
G01X49039Y30993D02*
G01X48986Y31097D01*
G01X48882Y31201D01*
G01X48780Y31252D01*
G01X48572Y31252D01*
G01X48468Y31201D01*
G01X48364Y31097D01*
G01X48310Y30993D01*
G01X48260Y30835D01*
G01X48260Y30576D01*
G01X48310Y30421D01*
G01X48364Y30317D01*
G01X48468Y30213D01*
G01X48572Y30162D01*
G01X48780Y30162D01*
G01X48882Y30213D01*
G01X48986Y30317D01*
G01X49039Y30421D01*
G01X49382Y31043D02*
G01X49486Y31097D01*
G01X49641Y31252D01*
G01X49641Y30162D01*
G01X28470Y30671D02*
G01X29405Y30671D01*
G01X28937Y30204D02*
G01X28937Y31139D01*
G01X28313Y32106D02*
G01X28313Y31586D01*
G01X28780Y31535D01*
G01X28729Y31586D01*
G01X28676Y31743D01*
G01X28676Y31898D01*
G01X28729Y32053D01*
G01X28833Y32157D01*
G01X28988Y32211D01*
G01X29092Y32211D01*
G01X29247Y32157D01*
G01X29351Y32053D01*
G01X29405Y31898D01*
G01X29405Y31743D01*
G01X29351Y31586D01*
G01X29301Y31535D01*
G01X29197Y31482D01*
G01X28313Y32553D02*
G01X29405Y32967D01*
G01X28313Y33384D02*
G01X29405Y32967D01*
G01X23611Y30099D02*
G01X24701Y30099D01*
G01X23611Y30099D02*
G01X23611Y30566D01*
G01X23662Y30721D01*
G01X23715Y30774D01*
G01X23820Y30825D01*
G01X23975Y30825D01*
G01X24079Y30774D01*
G01X24130Y30721D01*
G01X24183Y30566D01*
G01X24183Y30099D01*
G01X23611Y31168D02*
G01X24701Y31429D01*
G01X23611Y31689D02*
G01X24701Y31429D01*
G01X23611Y31689D02*
G01X24701Y31948D01*
G01X23611Y32207D02*
G01X24701Y31948D01*
G01X23611Y32550D02*
G01X24701Y32550D01*
G01X23611Y32550D02*
G01X23611Y33020D01*
G01X23662Y33174D01*
G01X23715Y33225D01*
G01X23820Y33279D01*
G01X23924Y33279D01*
G01X24028Y33225D01*
G01X24079Y33174D01*
G01X24130Y33020D01*
G01X24130Y32550D01*
G01X24130Y32915D02*
G01X24701Y33279D01*
G01X23820Y33621D02*
G01X23766Y33726D01*
G01X23611Y33881D01*
G01X24701Y33881D01*
G01X46024Y27879D02*
G01X46024Y27048D01*
G01X45971Y26890D01*
G01X45920Y26840D01*
G01X45816Y26789D01*
G01X45712Y26789D01*
G01X45608Y26840D01*
G01X45554Y26890D01*
G01X45504Y27048D01*
G01X45504Y27152D01*
G01X46367Y27879D02*
G01X46367Y26789D01*
G01X46367Y27879D02*
G01X46835Y27879D01*
G01X46990Y27828D01*
G01X47040Y27774D01*
G01X47094Y27670D01*
G01X47094Y27515D01*
G01X47040Y27411D01*
G01X46990Y27360D01*
G01X46835Y27307D01*
G01X46367Y27307D01*
G01X47487Y27619D02*
G01X47487Y27670D01*
G01X47541Y27774D01*
G01X47591Y27828D01*
G01X47696Y27879D01*
G01X47904Y27879D01*
G01X48008Y27828D01*
G01X48059Y27774D01*
G01X48112Y27670D01*
G01X48112Y27566D01*
G01X48059Y27462D01*
G01X47955Y27307D01*
G01X47437Y26789D01*
G01X48163Y26789D01*
G01X48945Y27879D02*
G01X48945Y27048D01*
G01X48895Y26890D01*
G01X48841Y26840D01*
G01X48740Y26789D01*
G01X48635Y26789D01*
G01X48531Y26840D01*
G01X48478Y26890D01*
G01X48427Y27048D01*
G01X48427Y27152D01*
G01X49288Y27879D02*
G01X49288Y26789D01*
G01X49288Y27879D02*
G01X49756Y27879D01*
G01X49913Y27828D01*
G01X49964Y27774D01*
G01X50017Y27670D01*
G01X50017Y27515D01*
G01X49964Y27411D01*
G01X49913Y27360D01*
G01X49756Y27307D01*
G01X49288Y27307D01*
G01X50360Y27670D02*
G01X50464Y27724D01*
G01X50619Y27879D01*
G01X50619Y26789D01*
G01X15384Y17023D02*
G01X15331Y17127D01*
G01X15227Y17231D01*
G01X15125Y17282D01*
G01X14917Y17282D01*
G01X14813Y17231D01*
G01X14709Y17127D01*
G01X14655Y17023D01*
G01X14605Y16865D01*
G01X14605Y16606D01*
G01X14655Y16451D01*
G01X14709Y16347D01*
G01X14813Y16243D01*
G01X14917Y16192D01*
G01X15125Y16192D01*
G01X15227Y16243D01*
G01X15331Y16347D01*
G01X15384Y16451D01*
G01X16349Y17127D02*
G01X16299Y17231D01*
G01X16141Y17282D01*
G01X16040Y17282D01*
G01X15882Y17231D01*
G01X15778Y17073D01*
G01X15727Y16814D01*
G01X15727Y16555D01*
G01X15778Y16347D01*
G01X15882Y16243D01*
G01X16040Y16192D01*
G01X16090Y16192D01*
G01X16245Y16243D01*
G01X16349Y16347D01*
G01X16403Y16502D01*
G01X16403Y16555D01*
G01X16349Y16710D01*
G01X16245Y16814D01*
G01X16090Y16865D01*
G01X16040Y16865D01*
G01X15882Y16814D01*
G01X15778Y16710D01*
G01X15727Y16555D01*
G01X15384Y22103D02*
G01X15331Y22207D01*
G01X15227Y22311D01*
G01X15125Y22362D01*
G01X14917Y22362D01*
G01X14813Y22311D01*
G01X14709Y22207D01*
G01X14655Y22103D01*
G01X14605Y21945D01*
G01X14605Y21686D01*
G01X14655Y21531D01*
G01X14709Y21427D01*
G01X14813Y21323D01*
G01X14917Y21272D01*
G01X15125Y21272D01*
G01X15227Y21323D01*
G01X15331Y21427D01*
G01X15384Y21531D01*
G01X15986Y22362D02*
G01X15831Y22311D01*
G01X15778Y22207D01*
G01X15778Y22103D01*
G01X15831Y21998D01*
G01X15935Y21945D01*
G01X16141Y21894D01*
G01X16299Y21844D01*
G01X16403Y21739D01*
G01X16454Y21635D01*
G01X16454Y21478D01*
G01X16403Y21374D01*
G01X16349Y21323D01*
G01X16195Y21272D01*
G01X15986Y21272D01*
G01X15831Y21323D01*
G01X15778Y21374D01*
G01X15727Y21478D01*
G01X15727Y21635D01*
G01X15778Y21739D01*
G01X15882Y21844D01*
G01X16040Y21894D01*
G01X16245Y21945D01*
G01X16349Y21998D01*
G01X16403Y22103D01*
G01X16403Y22207D01*
G01X16349Y22311D01*
G01X16195Y22362D01*
G01X15986Y22362D01*
G01X15384Y9403D02*
G01X15331Y9507D01*
G01X15227Y9611D01*
G01X15125Y9662D01*
G01X14917Y9662D01*
G01X14813Y9611D01*
G01X14709Y9507D01*
G01X14655Y9403D01*
G01X14605Y9245D01*
G01X14605Y8986D01*
G01X14655Y8831D01*
G01X14709Y8727D01*
G01X14813Y8623D01*
G01X14917Y8572D01*
G01X15125Y8572D01*
G01X15227Y8623D01*
G01X15331Y8727D01*
G01X15384Y8831D01*
G01X15831Y9662D02*
G01X16403Y9662D01*
G01X16090Y9245D01*
G01X16245Y9245D01*
G01X16349Y9194D01*
G01X16403Y9144D01*
G01X16454Y8986D01*
G01X16454Y8882D01*
G01X16403Y8727D01*
G01X16299Y8623D01*
G01X16141Y8572D01*
G01X15986Y8572D01*
G01X15831Y8623D01*
G01X15778Y8674D01*
G01X15727Y8778D01*
G01X15384Y6863D02*
G01X15331Y6967D01*
G01X15227Y7071D01*
G01X15125Y7122D01*
G01X14917Y7122D01*
G01X14813Y7071D01*
G01X14709Y6967D01*
G01X14655Y6863D01*
G01X14605Y6705D01*
G01X14605Y6446D01*
G01X14655Y6291D01*
G01X14709Y6187D01*
G01X14813Y6083D01*
G01X14917Y6032D01*
G01X15125Y6032D01*
G01X15227Y6083D01*
G01X15331Y6187D01*
G01X15384Y6291D01*
G01X15778Y6863D02*
G01X15778Y6913D01*
G01X15831Y7018D01*
G01X15882Y7071D01*
G01X15986Y7122D01*
G01X16195Y7122D01*
G01X16299Y7071D01*
G01X16349Y7018D01*
G01X16403Y6913D01*
G01X16403Y6809D01*
G01X16349Y6705D01*
G01X16245Y6550D01*
G01X15727Y6032D01*
G01X16454Y6032D01*
G01X35559Y31252D02*
G01X35559Y30162D01*
G01X35559Y31252D02*
G01X35923Y31252D01*
G01X36080Y31201D01*
G01X36182Y31097D01*
G01X36235Y30993D01*
G01X36286Y30835D01*
G01X36286Y30576D01*
G01X36235Y30421D01*
G01X36182Y30317D01*
G01X36080Y30213D01*
G01X35923Y30162D01*
G01X35559Y30162D01*
G01X36629Y31043D02*
G01X36733Y31097D01*
G01X36890Y31252D01*
G01X36890Y30162D01*
G01X15384Y11943D02*
G01X15331Y12047D01*
G01X15227Y12151D01*
G01X15125Y12202D01*
G01X14917Y12202D01*
G01X14813Y12151D01*
G01X14709Y12047D01*
G01X14655Y11943D01*
G01X14604Y11785D01*
G01X14604Y11526D01*
G01X14655Y11371D01*
G01X14709Y11267D01*
G01X14813Y11163D01*
G01X14917Y11112D01*
G01X15125Y11112D01*
G01X15227Y11163D01*
G01X15331Y11267D01*
G01X15384Y11371D01*
G01X16245Y12202D02*
G01X15727Y11475D01*
G01X16507Y11475D01*
G01X16245Y12202D02*
G01X16245Y11112D01*
G01X15384Y14483D02*
G01X15331Y14587D01*
G01X15227Y14691D01*
G01X15125Y14742D01*
G01X14917Y14742D01*
G01X14813Y14691D01*
G01X14709Y14587D01*
G01X14655Y14483D01*
G01X14605Y14325D01*
G01X14605Y14066D01*
G01X14655Y13911D01*
G01X14709Y13807D01*
G01X14813Y13703D01*
G01X14917Y13652D01*
G01X15125Y13652D01*
G01X15227Y13703D01*
G01X15331Y13807D01*
G01X15384Y13911D01*
G01X16350Y14742D02*
G01X15831Y14742D01*
G01X15778Y14274D01*
G01X15831Y14325D01*
G01X15986Y14378D01*
G01X16141Y14378D01*
G01X16299Y14325D01*
G01X16403Y14224D01*
G01X16454Y14066D01*
G01X16454Y13962D01*
G01X16403Y13807D01*
G01X16299Y13703D01*
G01X16141Y13652D01*
G01X15986Y13652D01*
G01X15831Y13703D01*
G01X15778Y13754D01*
G01X15727Y13858D01*
G01X15384Y19563D02*
G01X15331Y19667D01*
G01X15227Y19771D01*
G01X15125Y19822D01*
G01X14917Y19822D01*
G01X14813Y19771D01*
G01X14709Y19667D01*
G01X14655Y19563D01*
G01X14604Y19405D01*
G01X14604Y19146D01*
G01X14655Y18991D01*
G01X14709Y18887D01*
G01X14813Y18783D01*
G01X14917Y18732D01*
G01X15125Y18732D01*
G01X15227Y18783D01*
G01X15331Y18887D01*
G01X15384Y18991D01*
G01X16454Y19822D02*
G01X15935Y18732D01*
G01X15727Y19822D02*
G01X16454Y19822D01*
G01X15384Y24643D02*
G01X15331Y24747D01*
G01X15227Y24851D01*
G01X15125Y24902D01*
G01X14917Y24902D01*
G01X14813Y24851D01*
G01X14709Y24747D01*
G01X14655Y24643D01*
G01X14605Y24485D01*
G01X14605Y24226D01*
G01X14655Y24071D01*
G01X14709Y23967D01*
G01X14813Y23863D01*
G01X14917Y23812D01*
G01X15125Y23812D01*
G01X15227Y23863D01*
G01X15331Y23967D01*
G01X15384Y24071D01*
G01X16403Y24538D02*
G01X16349Y24384D01*
G01X16245Y24279D01*
G01X16090Y24226D01*
G01X16040Y24226D01*
G01X15882Y24279D01*
G01X15778Y24384D01*
G01X15727Y24538D01*
G01X15727Y24589D01*
G01X15778Y24747D01*
G01X15882Y24851D01*
G01X16040Y24902D01*
G01X16090Y24902D01*
G01X16245Y24851D01*
G01X16349Y24747D01*
G01X16403Y24538D01*
G01X16403Y24279D01*
G01X16349Y24018D01*
G01X16245Y23863D01*
G01X16090Y23812D01*
G01X15986Y23812D01*
G01X15831Y23863D01*
G01X15778Y23967D01*
G01X38722Y23477D02*
G01X38671Y23581D01*
G01X38516Y23632D01*
G01X38412Y23632D01*
G01X38254Y23581D01*
G01X38150Y23423D01*
G01X38100Y23164D01*
G01X38100Y22905D01*
G01X38150Y22697D01*
G01X38254Y22593D01*
G01X38412Y22542D01*
G01X38463Y22542D01*
G01X38620Y22593D01*
G01X38722Y22697D01*
G01X38775Y22852D01*
G01X38775Y22905D01*
G01X38722Y23060D01*
G01X38620Y23164D01*
G01X38463Y23215D01*
G01X38412Y23215D01*
G01X38254Y23164D01*
G01X38150Y23060D01*
G01X38100Y22905D01*
G01X39377Y23632D02*
G01X39222Y23581D01*
G01X39169Y23477D01*
G01X39169Y23373D01*
G01X39222Y23268D01*
G01X39326Y23215D01*
G01X39535Y23164D01*
G01X39690Y23114D01*
G01X39794Y23009D01*
G01X39844Y22905D01*
G01X39844Y22748D01*
G01X39794Y22644D01*
G01X39740Y22593D01*
G01X39585Y22542D01*
G01X39377Y22542D01*
G01X39222Y22593D01*
G01X39169Y22644D01*
G01X39118Y22748D01*
G01X39118Y22905D01*
G01X39169Y23009D01*
G01X39273Y23114D01*
G01X39430Y23164D01*
G01X39636Y23215D01*
G01X39740Y23268D01*
G01X39794Y23373D01*
G01X39794Y23477D01*
G01X39740Y23581D01*
G01X39585Y23632D01*
G01X39377Y23632D01*
G01X40500Y23632D02*
G01X40345Y23581D01*
G01X40241Y23423D01*
G01X40187Y23164D01*
G01X40187Y23009D01*
G01X40241Y22748D01*
G01X40345Y22593D01*
G01X40500Y22542D01*
G01X40604Y22542D01*
G01X40759Y22593D01*
G01X40863Y22748D01*
G01X40916Y23009D01*
G01X40916Y23164D01*
G01X40863Y23423D01*
G01X40759Y23581D01*
G01X40604Y23632D01*
G01X40500Y23632D01*
G01X38239Y26017D02*
G01X38343Y26070D01*
G01X38498Y26225D01*
G01X38498Y25135D01*
G01X39154Y26225D02*
G01X38999Y26174D01*
G01X38894Y26017D01*
G01X38841Y25758D01*
G01X38841Y25603D01*
G01X38894Y25341D01*
G01X38999Y25186D01*
G01X39154Y25135D01*
G01X39258Y25135D01*
G01X39413Y25186D01*
G01X39517Y25341D01*
G01X39570Y25603D01*
G01X39570Y25758D01*
G01X39517Y26017D01*
G01X39413Y26174D01*
G01X39258Y26225D01*
G01X39154Y26225D01*
G01X40223Y26225D02*
G01X40068Y26174D01*
G01X39964Y26017D01*
G01X39913Y25758D01*
G01X39913Y25603D01*
G01X39964Y25341D01*
G01X40068Y25186D01*
G01X40223Y25135D01*
G01X40327Y25135D01*
G01X40485Y25186D01*
G01X40589Y25341D01*
G01X40639Y25603D01*
G01X40639Y25758D01*
G01X40589Y26017D01*
G01X40485Y26174D01*
G01X40327Y26225D01*
G01X40223Y26225D01*
G01X45448Y5242D02*
G01X45552Y5346D01*
G01X45603Y5501D01*
G01X45603Y5709D01*
G01X45552Y5864D01*
G01X45448Y5969D01*
G01X45344Y5969D01*
G01X45239Y5918D01*
G01X45186Y5864D01*
G01X45135Y5760D01*
G01X45031Y5448D01*
G01X44980Y5346D01*
G01X44927Y5293D01*
G01X44823Y5242D01*
G01X44668Y5242D01*
G01X44564Y5346D01*
G01X44513Y5501D01*
G01X44513Y5709D01*
G01X44564Y5864D01*
G01X44668Y5969D01*
G01X45603Y4899D02*
G01X44513Y4638D01*
G01X45603Y4378D02*
G01X44513Y4638D01*
G01X45603Y4378D02*
G01X44513Y4119D01*
G01X45603Y3860D02*
G01X44513Y4119D01*
G01X45394Y3517D02*
G01X45448Y3413D01*
G01X45603Y3256D01*
G01X44513Y3256D01*
G54D29*
G01X48643Y8675D02*
G01X48665Y8629D01*
G01X48731Y8560D01*
G01X48254Y8560D01*
G01X48630Y6125D02*
G01X48653Y6125D01*
G01X48696Y6102D01*
G01X48719Y6079D01*
G01X48742Y6033D01*
G01X48742Y5942D01*
G01X48719Y5899D01*
G01X48696Y5876D01*
G01X48653Y5853D01*
G01X48607Y5853D01*
G01X48561Y5876D01*
G01X48493Y5921D01*
G01X48264Y6147D01*
G01X48264Y5830D01*
G01X48742Y3643D02*
G01X48742Y3394D01*
G01X48561Y3529D01*
G01X48561Y3463D01*
G01X48538Y3417D01*
G01X48516Y3394D01*
G01X48447Y3371D01*
G01X48401Y3371D01*
G01X48333Y3394D01*
G01X48287Y3440D01*
G01X48264Y3506D01*
G01X48264Y3574D01*
G01X48287Y3643D01*
G01X48310Y3666D01*
G01X48356Y3689D01*
G01X53616Y9041D02*
G01X53578Y9114D01*
G01X53507Y9185D01*
G01X53433Y9223D01*
G01X53324Y9259D01*
G01X53143Y9259D01*
G01X53034Y9223D01*
G01X52961Y9185D01*
G01X52887Y9114D01*
G01X52851Y9041D01*
G01X52851Y8896D01*
G01X52887Y8822D01*
G01X52961Y8751D01*
G01X53034Y8713D01*
G01X53143Y8677D01*
G01X53324Y8677D01*
G01X53433Y8713D01*
G01X53507Y8751D01*
G01X53578Y8822D01*
G01X53616Y8896D01*
G01X53616Y9041D01*
G01X53616Y8436D02*
G01X52851Y8436D01*
G01X53616Y8436D02*
G01X52851Y7928D01*
G01X53616Y7928D02*
G01X52851Y7928D01*
G54D28*
G01X38620Y13472D02*
G01X38100Y12745D01*
G01X38879Y12745D01*
G01X38620Y13472D02*
G01X38620Y12382D01*
G01X39949Y13472D02*
G01X39430Y12382D01*
G01X39222Y13472D02*
G01X39949Y13472D01*
G01X40604Y13472D02*
G01X40449Y13421D01*
G01X40345Y13263D01*
G01X40292Y13004D01*
G01X40292Y12849D01*
G01X40345Y12588D01*
G01X40449Y12433D01*
G01X40604Y12382D01*
G01X40708Y12382D01*
G01X40863Y12433D01*
G01X40967Y12588D01*
G01X41021Y12849D01*
G01X41021Y13004D01*
G01X40967Y13263D01*
G01X40863Y13421D01*
G01X40708Y13472D01*
G01X40604Y13472D01*
G01X38722Y20937D02*
G01X38671Y21041D01*
G01X38516Y21092D01*
G01X38412Y21092D01*
G01X38254Y21041D01*
G01X38150Y20883D01*
G01X38100Y20624D01*
G01X38100Y20365D01*
G01X38150Y20157D01*
G01X38254Y20053D01*
G01X38412Y20002D01*
G01X38463Y20002D01*
G01X38620Y20053D01*
G01X38722Y20157D01*
G01X38775Y20312D01*
G01X38775Y20365D01*
G01X38722Y20520D01*
G01X38620Y20624D01*
G01X38463Y20675D01*
G01X38412Y20675D01*
G01X38254Y20624D01*
G01X38150Y20520D01*
G01X38100Y20365D01*
G01X39377Y21092D02*
G01X39222Y21041D01*
G01X39169Y20937D01*
G01X39169Y20833D01*
G01X39222Y20728D01*
G01X39326Y20675D01*
G01X39535Y20624D01*
G01X39690Y20574D01*
G01X39794Y20469D01*
G01X39844Y20365D01*
G01X39844Y20208D01*
G01X39794Y20104D01*
G01X39740Y20053D01*
G01X39585Y20002D01*
G01X39377Y20002D01*
G01X39222Y20053D01*
G01X39169Y20104D01*
G01X39118Y20208D01*
G01X39118Y20365D01*
G01X39169Y20469D01*
G01X39273Y20574D01*
G01X39430Y20624D01*
G01X39636Y20675D01*
G01X39740Y20728D01*
G01X39794Y20833D01*
G01X39794Y20937D01*
G01X39740Y21041D01*
G01X39585Y21092D01*
G01X39377Y21092D01*
G01X40500Y21092D02*
G01X40345Y21041D01*
G01X40241Y20883D01*
G01X40187Y20624D01*
G01X40187Y20469D01*
G01X40241Y20208D01*
G01X40345Y20053D01*
G01X40500Y20002D01*
G01X40604Y20002D01*
G01X40759Y20053D01*
G01X40863Y20208D01*
G01X40916Y20469D01*
G01X40916Y20624D01*
G01X40863Y20883D01*
G01X40759Y21041D01*
G01X40604Y21092D01*
G01X40500Y21092D01*
G01X38849Y15857D02*
G01X38798Y15961D01*
G01X38643Y16012D01*
G01X38539Y16012D01*
G01X38381Y15961D01*
G01X38277Y15803D01*
G01X38227Y15544D01*
G01X38227Y15285D01*
G01X38277Y15077D01*
G01X38381Y14973D01*
G01X38539Y14922D01*
G01X38590Y14922D01*
G01X38747Y14973D01*
G01X38849Y15077D01*
G01X38902Y15232D01*
G01X38902Y15285D01*
G01X38849Y15440D01*
G01X38747Y15544D01*
G01X38590Y15595D01*
G01X38539Y15595D01*
G01X38381Y15544D01*
G01X38277Y15440D01*
G01X38227Y15285D01*
G01X39504Y16012D02*
G01X39349Y15961D01*
G01X39296Y15857D01*
G01X39296Y15753D01*
G01X39349Y15648D01*
G01X39453Y15595D01*
G01X39662Y15544D01*
G01X39817Y15494D01*
G01X39921Y15389D01*
G01X39971Y15285D01*
G01X39971Y15128D01*
G01X39921Y15024D01*
G01X39867Y14973D01*
G01X39712Y14922D01*
G01X39504Y14922D01*
G01X39349Y14973D01*
G01X39296Y15024D01*
G01X39245Y15128D01*
G01X39245Y15285D01*
G01X39296Y15389D01*
G01X39400Y15494D01*
G01X39557Y15544D01*
G01X39763Y15595D01*
G01X39867Y15648D01*
G01X39921Y15753D01*
G01X39921Y15857D01*
G01X39867Y15961D01*
G01X39712Y16012D01*
G01X39504Y16012D01*
G01X40627Y16012D02*
G01X40472Y15961D01*
G01X40368Y15803D01*
G01X40314Y15544D01*
G01X40314Y15389D01*
G01X40368Y15128D01*
G01X40472Y14973D01*
G01X40627Y14922D01*
G01X40731Y14922D01*
G01X40886Y14973D01*
G01X40990Y15128D01*
G01X41043Y15389D01*
G01X41043Y15544D01*
G01X40990Y15803D01*
G01X40886Y15961D01*
G01X40731Y16012D01*
G01X40627Y16012D01*
G01X38849Y10777D02*
G01X38798Y10881D01*
G01X38643Y10932D01*
G01X38539Y10932D01*
G01X38381Y10881D01*
G01X38277Y10723D01*
G01X38227Y10464D01*
G01X38227Y10205D01*
G01X38277Y9997D01*
G01X38381Y9893D01*
G01X38539Y9842D01*
G01X38590Y9842D01*
G01X38747Y9893D01*
G01X38849Y9997D01*
G01X38902Y10152D01*
G01X38902Y10205D01*
G01X38849Y10360D01*
G01X38747Y10464D01*
G01X38590Y10515D01*
G01X38539Y10515D01*
G01X38381Y10464D01*
G01X38277Y10360D01*
G01X38227Y10205D01*
G01X39504Y10932D02*
G01X39349Y10881D01*
G01X39296Y10777D01*
G01X39296Y10673D01*
G01X39349Y10568D01*
G01X39453Y10515D01*
G01X39662Y10464D01*
G01X39817Y10414D01*
G01X39921Y10309D01*
G01X39971Y10205D01*
G01X39971Y10048D01*
G01X39921Y9944D01*
G01X39867Y9893D01*
G01X39712Y9842D01*
G01X39504Y9842D01*
G01X39349Y9893D01*
G01X39296Y9944D01*
G01X39245Y10048D01*
G01X39245Y10205D01*
G01X39296Y10309D01*
G01X39400Y10414D01*
G01X39557Y10464D01*
G01X39763Y10515D01*
G01X39867Y10568D01*
G01X39921Y10673D01*
G01X39921Y10777D01*
G01X39867Y10881D01*
G01X39712Y10932D01*
G01X39504Y10932D01*
G01X40627Y10932D02*
G01X40472Y10881D01*
G01X40368Y10723D01*
G01X40314Y10464D01*
G01X40314Y10309D01*
G01X40368Y10048D01*
G01X40472Y9893D01*
G01X40627Y9842D01*
G01X40731Y9842D01*
G01X40886Y9893D01*
G01X40990Y10048D01*
G01X41043Y10309D01*
G01X41043Y10464D01*
G01X40990Y10723D01*
G01X40886Y10881D01*
G01X40731Y10932D01*
G01X40627Y10932D01*
G01X38493Y18552D02*
G01X37973Y17825D01*
G01X38752Y17825D01*
G01X38493Y18552D02*
G01X38493Y17462D01*
G01X39822Y18552D02*
G01X39303Y17462D01*
G01X39095Y18552D02*
G01X39822Y18552D01*
G01X40477Y18552D02*
G01X40322Y18501D01*
G01X40218Y18343D01*
G01X40165Y18084D01*
G01X40165Y17929D01*
G01X40218Y17668D01*
G01X40322Y17513D01*
G01X40477Y17462D01*
G01X40581Y17462D01*
G01X40736Y17513D01*
G01X40840Y17668D01*
G01X40894Y17929D01*
G01X40894Y18084D01*
G01X40840Y18343D01*
G01X40736Y18501D01*
G01X40581Y18552D01*
G01X40477Y18552D01*
G01X38620Y8392D02*
G01X38100Y7665D01*
G01X38879Y7665D01*
G01X38620Y8392D02*
G01X38620Y7302D01*
G01X39949Y8392D02*
G01X39430Y7302D01*
G01X39222Y8392D02*
G01X39949Y8392D01*
G01X40604Y8392D02*
G01X40449Y8341D01*
G01X40345Y8183D01*
G01X40292Y7924D01*
G01X40292Y7769D01*
G01X40345Y7508D01*
G01X40449Y7353D01*
G01X40604Y7302D01*
G01X40708Y7302D01*
G01X40863Y7353D01*
G01X40967Y7508D01*
G01X41021Y7769D01*
G01X41021Y7924D01*
G01X40967Y8183D01*
G01X40863Y8341D01*
G01X40708Y8392D01*
G01X40604Y8392D01*
G01X3175Y2042D02*
G01X3591Y952D01*
G01X4005Y2042D02*
G01X3591Y952D01*
G01X4348Y2042D02*
G01X4348Y952D01*
G01X4691Y2042D02*
G01X4691Y952D01*
G01X4691Y2042D02*
G01X5054Y2042D01*
G01X5212Y1991D01*
G01X5316Y1887D01*
G01X5367Y1782D01*
G01X5420Y1625D01*
G01X5420Y1366D01*
G01X5367Y1211D01*
G01X5316Y1107D01*
G01X5212Y1003D01*
G01X5054Y952D01*
G01X4691Y952D01*
G01X5763Y2042D02*
G01X5763Y952D01*
G01X5763Y2042D02*
G01X6439Y2042D01*
G01X5763Y1523D02*
G01X6177Y1523D01*
G01X5763Y952D02*
G01X6439Y952D01*
G01X7091Y2042D02*
G01X6987Y1991D01*
G01X6883Y1887D01*
G01X6832Y1782D01*
G01X6781Y1625D01*
G01X6781Y1366D01*
G01X6832Y1211D01*
G01X6883Y1107D01*
G01X6987Y1003D01*
G01X7091Y952D01*
G01X7300Y952D01*
G01X7404Y1003D01*
G01X7508Y1107D01*
G01X7559Y1211D01*
G01X7612Y1366D01*
G01X7612Y1625D01*
G01X7559Y1782D01*
G01X7508Y1887D01*
G01X7404Y1991D01*
G01X7300Y2042D01*
G01X7091Y2042D01*
G01X7955Y586D02*
G01X8890Y586D01*
G01X9233Y2042D02*
G01X9233Y952D01*
G01X9575Y2042D02*
G01X9575Y952D01*
G01X9575Y2042D02*
G01X10302Y952D01*
G01X10302Y2042D02*
G01X10302Y952D01*
G54D30*
G01X11181Y10685D02*
G01X11140Y10766D01*
G01X11018Y10886D01*
G01X11867Y10886D01*
G01X10917Y25318D02*
G01X10917Y24914D01*
G01X11280Y24874D01*
G01X11239Y24914D01*
G01X11199Y25034D01*
G01X11199Y25156D01*
G01X11239Y25277D01*
G01X11321Y25359D01*
G01X11443Y25399D01*
G01X11524Y25399D01*
G01X11643Y25359D01*
G01X11725Y25277D01*
G01X11765Y25156D01*
G01X11765Y25034D01*
G01X11725Y24914D01*
G01X11684Y24874D01*
G01X11603Y24833D01*
G01X8022Y24060D02*
G01X8143Y24019D01*
G01X8225Y23938D01*
G01X8265Y23816D01*
G01X8265Y23775D01*
G01X8225Y23656D01*
G01X8143Y23574D01*
G01X8022Y23534D01*
G01X7981Y23534D01*
G01X7862Y23574D01*
G01X7780Y23656D01*
G01X7740Y23775D01*
G01X7740Y23816D01*
G01X7780Y23938D01*
G01X7862Y24019D01*
G01X8022Y24060D01*
G01X8225Y24060D01*
G01X8425Y24019D01*
G01X8547Y23938D01*
G01X8588Y23816D01*
G01X8588Y23734D01*
G01X8547Y23615D01*
G01X8466Y23574D01*
G01X7762Y12219D02*
G01X7680Y12178D01*
G01X7640Y12056D01*
G01X7640Y11975D01*
G01X7680Y11856D01*
G01X7802Y11774D01*
G01X8003Y11734D01*
G01X8206Y11734D01*
G01X8366Y11774D01*
G01X8447Y11856D01*
G01X8488Y11975D01*
G01X8488Y12016D01*
G01X8447Y12138D01*
G01X8366Y12219D01*
G01X8247Y12260D01*
G01X8206Y12260D01*
G01X8084Y12219D01*
G01X8003Y12138D01*
G01X7962Y12016D01*
G01X7962Y11975D01*
G01X8003Y11856D01*
G01X8084Y11774D01*
G01X8206Y11734D01*
G54D28*
G01X16214Y32575D02*
G01X16214Y31795D01*
G01X16265Y31640D01*
G01X16369Y31536D01*
G01X16527Y31485D01*
G01X16631Y31485D01*
G01X16786Y31536D01*
G01X16890Y31640D01*
G01X16941Y31795D01*
G01X16941Y32575D01*
G01X18013Y32420D02*
G01X17909Y32524D01*
G01X17751Y32575D01*
G01X17545Y32575D01*
G01X17388Y32524D01*
G01X17284Y32420D01*
G01X17284Y32316D01*
G01X17337Y32212D01*
G01X17388Y32158D01*
G01X17492Y32108D01*
G01X17805Y32003D01*
G01X17909Y31953D01*
G01X17959Y31899D01*
G01X18013Y31795D01*
G01X18013Y31640D01*
G01X17909Y31536D01*
G01X17751Y31485D01*
G01X17545Y31485D01*
G01X17388Y31536D01*
G01X17284Y31640D01*
G01X18356Y32575D02*
G01X18356Y31485D01*
G01X18356Y32575D02*
G01X18823Y32575D01*
G01X18978Y32524D01*
G01X19031Y32471D01*
G01X19082Y32367D01*
G01X19082Y32262D01*
G01X19031Y32158D01*
G01X18978Y32108D01*
G01X18823Y32057D01*
G01X18356Y32057D02*
G01X18823Y32057D01*
G01X18978Y32003D01*
G01X19031Y31953D01*
G01X19082Y31848D01*
G01X19082Y31691D01*
G01X19031Y31587D01*
G01X18978Y31536D01*
G01X18823Y31485D01*
G01X18356Y31485D01*
G01X19425Y32367D02*
G01X19529Y32420D01*
G01X19684Y32575D01*
G01X19684Y31485D01*
G01X27680Y11193D02*
G01X27576Y11140D01*
G01X27472Y11036D01*
G01X27421Y10934D01*
G01X27421Y10726D01*
G01X27472Y10622D01*
G01X27576Y10518D01*
G01X27680Y10464D01*
G01X27838Y10414D01*
G01X28097Y10414D01*
G01X28252Y10464D01*
G01X28356Y10518D01*
G01X28460Y10622D01*
G01X28511Y10726D01*
G01X28511Y10934D01*
G01X28460Y11036D01*
G01X28356Y11140D01*
G01X28252Y11193D01*
G01X28097Y11193D01*
G01X28097Y10934D02*
G01X28097Y11193D01*
G01X27421Y11950D02*
G01X28511Y11536D01*
G01X27421Y11950D02*
G01X28511Y12367D01*
G01X28148Y11691D02*
G01X28148Y12212D01*
G01X27421Y12710D02*
G01X28511Y12710D01*
G01X28511Y12710D02*
G01X28511Y13335D01*
G01X27630Y13677D02*
G01X27576Y13779D01*
G01X27421Y13936D01*
G01X28511Y13936D01*
G01X27576Y14902D02*
G01X27472Y14851D01*
G01X27421Y14693D01*
G01X27421Y14592D01*
G01X27472Y14434D01*
G01X27630Y14330D01*
G01X27889Y14279D01*
G01X28148Y14279D01*
G01X28356Y14330D01*
G01X28460Y14434D01*
G01X28511Y14592D01*
G01X28511Y14643D01*
G01X28460Y14798D01*
G01X28356Y14902D01*
G01X28201Y14955D01*
G01X28148Y14955D01*
G01X27993Y14902D01*
G01X27889Y14798D01*
G01X27838Y14643D01*
G01X27838Y14592D01*
G01X27889Y14434D01*
G01X27993Y14330D01*
G01X28148Y14279D01*
G01X27421Y15298D02*
G01X28511Y15712D01*
G01X27421Y16129D02*
G01X28511Y15712D01*
G01X27421Y16730D02*
G01X27472Y16576D01*
G01X27576Y16522D01*
G01X27680Y16522D01*
G01X27785Y16576D01*
G01X27838Y16680D01*
G01X27889Y16888D01*
G01X27940Y17043D01*
G01X28044Y17147D01*
G01X28148Y17198D01*
G01X28305Y17198D01*
G01X28409Y17147D01*
G01X28460Y17094D01*
G01X28511Y16939D01*
G01X28511Y16730D01*
G01X28460Y16576D01*
G01X28409Y16522D01*
G01X28305Y16471D01*
G01X28148Y16471D01*
G01X28044Y16522D01*
G01X27940Y16626D01*
G01X27889Y16784D01*
G01X27838Y16992D01*
G01X27785Y17094D01*
G01X27680Y17147D01*
G01X27576Y17147D01*
G01X27472Y17094D01*
G01X27421Y16939D01*
G01X27421Y16730D01*
G01X27305Y28712D02*
G01X27305Y27932D01*
G01X27355Y27777D01*
G01X27459Y27673D01*
G01X27617Y27622D01*
G01X27721Y27622D01*
G01X27876Y27673D01*
G01X27980Y27777D01*
G01X28031Y27932D01*
G01X28031Y28712D01*
G01X28374Y28503D02*
G01X28478Y28557D01*
G01X28635Y28712D01*
G01X28635Y27622D01*
G01X60274Y1970D02*
G01X60690Y880D01*
G01X61104Y1970D02*
G01X60690Y880D01*
G01X61447Y1970D02*
G01X61447Y880D01*
G01X61790Y1970D02*
G01X61790Y880D01*
G01X61790Y1970D02*
G01X62153Y1970D01*
G01X62311Y1919D01*
G01X62415Y1815D01*
G01X62466Y1711D01*
G01X62519Y1553D01*
G01X62519Y1294D01*
G01X62466Y1139D01*
G01X62415Y1035D01*
G01X62311Y931D01*
G01X62153Y880D01*
G01X61790Y880D01*
G01X62862Y1970D02*
G01X62862Y880D01*
G01X62862Y1970D02*
G01X63537Y1970D01*
G01X62862Y1452D02*
G01X63276Y1452D01*
G01X62862Y880D02*
G01X63537Y880D01*
G01X64190Y1970D02*
G01X64086Y1919D01*
G01X63982Y1815D01*
G01X63931Y1711D01*
G01X63880Y1553D01*
G01X63880Y1294D01*
G01X63931Y1139D01*
G01X63982Y1035D01*
G01X64086Y931D01*
G01X64190Y880D01*
G01X64399Y880D01*
G01X64503Y931D01*
G01X64607Y1035D01*
G01X64658Y1139D01*
G01X64711Y1294D01*
G01X64711Y1553D01*
G01X64658Y1711D01*
G01X64607Y1815D01*
G01X64503Y1919D01*
G01X64399Y1970D01*
G01X64190Y1970D01*
G01X65054Y514D02*
G01X65989Y514D01*
G01X66644Y1970D02*
G01X66540Y1919D01*
G01X66436Y1815D01*
G01X66382Y1711D01*
G01X66331Y1553D01*
G01X66331Y1294D01*
G01X66382Y1139D01*
G01X66436Y1035D01*
G01X66540Y931D01*
G01X66644Y880D01*
G01X66852Y880D01*
G01X66954Y931D01*
G01X67058Y1035D01*
G01X67111Y1139D01*
G01X67162Y1294D01*
G01X67162Y1553D01*
G01X67111Y1711D01*
G01X67058Y1815D01*
G01X66954Y1919D01*
G01X66852Y1970D01*
G01X66644Y1970D01*
G01X67505Y1970D02*
G01X67505Y1190D01*
G01X67558Y1035D01*
G01X67662Y931D01*
G01X67817Y880D01*
G01X67922Y880D01*
G01X68076Y931D01*
G01X68181Y1035D01*
G01X68234Y1190D01*
G01X68234Y1970D01*
G01X68940Y1970D02*
G01X68940Y880D01*
G01X68577Y1970D02*
G01X69303Y1970D01*
G54D24*
G01X58719Y10423D02*
G01X58719Y9969D01*
G01X59128Y9923D01*
G01X59082Y9969D01*
G01X59037Y10103D01*
G01X59037Y10240D01*
G01X59082Y10378D01*
G01X59174Y10469D01*
G01X59309Y10515D01*
G01X59400Y10515D01*
G01X59537Y10469D01*
G01X59629Y10378D01*
G01X59674Y10240D01*
G01X59674Y10103D01*
G01X59629Y9969D01*
G01X59583Y9923D01*
G01X59491Y9877D01*
G01X58900Y23847D02*
G01X58854Y23939D01*
G01X58719Y24073D01*
G01X59674Y24073D01*
G01X63941Y10388D02*
G01X63896Y10477D01*
G01X63761Y10614D01*
G01X64716Y10614D01*
G01X63761Y11460D02*
G01X63761Y11005D01*
G01X64170Y10959D01*
G01X64124Y11005D01*
G01X64079Y11142D01*
G01X64079Y11277D01*
G01X64124Y11414D01*
G01X64216Y11505D01*
G01X64350Y11551D01*
G01X64442Y11551D01*
G01X64579Y11505D01*
G01X64670Y11414D01*
G01X64716Y11277D01*
G01X64716Y11142D01*
G01X64670Y11005D01*
G01X64625Y10959D01*
G01X64533Y10913D01*
G01X63980Y23850D02*
G01X63934Y23939D01*
G01X63799Y24076D01*
G01X64754Y24076D01*
G01X63980Y24375D02*
G01X63934Y24467D01*
G01X63799Y24604D01*
G01X64754Y24604D01*
G54D10*
G75*
G01X28956Y27124D02*
G02X26924Y27178I-1016J27D01*
G01*
G54D27*
G75*
G01X55204Y30734D02*
G03X55204Y30734I-2500J0D01*
G01*
G54D23*
G75*
G01X26162Y25654D02*
G03X26162Y25654I-254J0D01*
G01*

%LPD*%
G36*
G01X54546Y32337D02*
G01X54497Y32385D01*
G01X54497Y29083D01*
G01X54546Y29131D01*
G01X54593Y29180D01*
G01X54639Y29231D01*
G01X54683Y29283D01*
G01X54726Y29336D01*
G01X54767Y29391D01*
G01X54806Y29447D01*
G01X54844Y29504D01*
G01X54880Y29562D01*
G01X54914Y29621D01*
G01X54946Y29681D01*
G01X54977Y29743D01*
G01X55006Y29805D01*
G01X55033Y29867D01*
G01X55058Y29931D01*
G01X55081Y29995D01*
G01X55102Y30060D01*
G01X55121Y30126D01*
G01X55138Y30192D01*
G01X55153Y30259D01*
G01X55167Y30326D01*
G01X55178Y30393D01*
G01X55187Y30461D01*
G01X55194Y30529D01*
G01X55199Y30597D01*
G01X55202Y30665D01*
G01X55203Y30734D01*
G01X55202Y30802D01*
G01X55199Y30870D01*
G01X55194Y30938D01*
G01X55187Y31006D01*
G01X55178Y31074D01*
G01X55167Y31142D01*
G01X55153Y31209D01*
G01X55138Y31275D01*
G01X55121Y31341D01*
G01X55102Y31407D01*
G01X55081Y31472D01*
G01X55058Y31536D01*
G01X55033Y31600D01*
G01X55006Y31663D01*
G01X54977Y31725D01*
G01X54946Y31786D01*
G01X54914Y31846D01*
G01X54880Y31905D01*
G01X54844Y31963D01*
G01X54806Y32020D01*
G01X54767Y32076D01*
G01X54726Y32131D01*
G01X54683Y32184D01*
G01X54639Y32237D01*
G01X54593Y32287D01*
G01X54546Y32337D01*
G37*
M00*
M02*
