;Layer: Drill PTH
;EasyEDA v6.4.7, 2020-10-15T22:52:29+02:00
;2786f9b4839048089c5c5578f9f1eb2f,6cad3e709bf64c02bac7d46d3581b9cb,10
;Gerber Generator version 0.2
M48
METRIC,LZ,000.000
;Holesize 1 = 0.701 METRIC
T01C0.701
;Holesize 2 = 0.800 METRIC
T02C0.800
;Holesize 3 = 0.900 METRIC
T03C0.900
;Holesize 4 = 1.000 METRIC
T04C1.000
;Holesize 5 = 1.101 METRIC
T05C1.101
;Holesize 6 = 1.200 METRIC
T06C1.200
;Holesize 7 = 3.000 METRIC
T07C3.000
;Holesize 8 = 3.251 METRIC
T08C3.251
%
G05
G90
T01
X+040640Y+033655
X+039370Y+033655
X+038100Y+033655
T02
X+025309Y+040425G85X+025309Y+041425
X+025309Y+035675G85X+025309Y+036675
X+017870Y+035675G85X+017870Y+036675
X+019970Y+035274
X+021570Y+035274
X+020770Y+036477
X+022370Y+036477
X+023170Y+035274
X+017870Y+040425G85X+017870Y+041425
T03
X+031115Y+026670
X+038735Y+026670
X+031115Y+021590
X+038735Y+021590
X+031115Y+016510
X+038735Y+016510
X+031115Y+024130
X+038735Y+024130
X+031115Y+019050
X+038735Y+019050
X+031115Y+013970
X+038735Y+013970
T04
X+025400Y+031750
X+025400Y+029210
X+025400Y+026670
X+025400Y+024130
X+025400Y+021590
X+025400Y+019050
X+025400Y+016510
X+025400Y+013970
X+025400Y+011430
X+025400Y+008890
X+017780Y+008890
X+017780Y+011430
X+017780Y+013970
X+017780Y+016510
X+017780Y+024130
X+017780Y+026670
X+017780Y+019050
X+017780Y+021590
X+017780Y+029210
X+017780Y+031750
X+043180Y+011430
X+043180Y+008890
X+050800Y+008890
X+050800Y+011430
X+051280Y+040005
X+060479Y+040005
X+037619Y+040005
X+028420Y+040005
T05
X+010944Y+021590
X+010944Y+016070
X+010944Y+018830
X+010944Y+024350
X+010944Y+027110
X+008105Y+017450
X+008105Y+020210
X+008105Y+022970
X+008105Y+025730
T06
X+046355Y+040005
X+043815Y+040005
X+041275Y+040005
X+048260Y+026670
X+045720Y+026670
X+043180Y+026670
X+048387Y+021590
X+045847Y+021590
X+043307Y+021590
X+048387Y+016510
X+045847Y+016510
X+043307Y+016510
X+061595Y+025567
X+061595Y+023278
X+061595Y+020987
X+061595Y+018696
X+061595Y+016408
X+059055Y+026717
X+059055Y+024426
X+059055Y+022138
X+059055Y+019847
X+059055Y+017548
X+056515Y+025567
X+056515Y+023278
X+056515Y+020987
X+056515Y+018696
X+056515Y+016408
T07
X+059309Y+034062
X+059309Y+009116
T08
X+009525Y+034089
X+009525Y+009090
M30
