;Layer: Drill PTH
;EasyEDA v6.4.7, 2020-10-15T22:52:29+02:00
;9b8f394e45984ab69384a79ff89e00da,6cad3e709bf64c02bac7d46d3581b9cb,10
;Gerber Generator version 0.2
M48
METRIC,LZ,000.000
;Holesize 1 = 0.712 METRIC
T01C0.712
;Holesize 2 = 0.800 METRIC
T02C0.800
;Holesize 3 = 0.900 METRIC
T03C0.900
;Holesize 4 = 1.000 METRIC
T04C1.000
;Holesize 5 = 1.101 METRIC
T05C1.101
;Holesize 6 = 1.200 METRIC
T06C1.200
;Holesize 7 = 3.000 METRIC
T07C3.000
;Holesize 8 = 3.251 METRIC
T08C3.251
%
G05
G90
T01
X+020320Y+016764
X+017780Y+016764
X+020320Y+021844
X+017780Y+021844
X+020320Y+009144
X+017780Y+009144
X+020320Y+006604
X+017780Y+006604
X+020320Y+011684
X+017780Y+011684
X+020320Y+014224
X+017780Y+014224
X+020320Y+019304
X+017780Y+019304
X+020320Y+024384
X+017780Y+024384
T02
X+051703Y+030734
X+053703Y+030734
X+021499Y+032424G85X+021499Y+033424
X+021499Y+027674G85X+021499Y+028674
X+014060Y+027674G85X+014060Y+028674
X+016160Y+027273
X+017760Y+027273
X+016960Y+028476
X+018560Y+028476
X+019360Y+027273
X+014060Y+032424G85X+014060Y+033424
T03
X+035560Y+023114
X+043180Y+023114
X+043180Y+025654
X+035560Y+025654
X+035560Y+012954
X+043180Y+012954
X+035560Y+020574
X+043180Y+020574
X+035560Y+015494
X+043180Y+015494
X+035560Y+010414
X+043180Y+010414
X+035560Y+018034
X+043180Y+018034
X+035560Y+007874
X+043180Y+007874
T04
X+041429Y+030734
X+032230Y+030734
X+031750Y+025654
X+031750Y+023114
X+031750Y+020574
X+031750Y+018034
X+031750Y+015494
X+031750Y+012954
X+031750Y+010414
X+031750Y+007874
X+031750Y+005334
X+031750Y+002794
X+024130Y+002794
X+024130Y+005334
X+024130Y+007874
X+024130Y+010414
X+024130Y+018034
X+024130Y+020574
X+024130Y+012954
X+024130Y+015494
X+024130Y+023114
X+024130Y+025654
T05
X+054610Y+008509
X+054610Y+005969
X+054610Y+003429
X+046990Y+008509
X+046990Y+005969
X+046990Y+003429
X+010944Y+018034
X+010944Y+012514
X+010944Y+015274
X+010944Y+020794
X+010944Y+023554
X+008105Y+013894
X+008105Y+016654
X+008105Y+019414
X+008105Y+022174
T06
X+026670Y+033274
X+026670Y+030734
X+046990Y+019939
X+046990Y+022479
X+046990Y+025019
X+049530Y+019939
X+049530Y+022479
X+049530Y+025019
X+055245Y+012954
X+055245Y+015494
X+055245Y+018034
X+055245Y+020574
X+055245Y+023114
X+055245Y+025654
X+064770Y+022011
X+064770Y+019722
X+064770Y+017431
X+064770Y+015140
X+064770Y+012852
X+062230Y+023161
X+062230Y+020870
X+062230Y+018582
X+062230Y+016291
X+062230Y+013992
X+059690Y+022011
X+059690Y+019722
X+059690Y+017431
X+059690Y+015140
X+059690Y+012852
T07
X+062484Y+030506
X+062484Y+005560
T08
X+009525Y+030533
X+009525Y+005534
M30
