%TF.GenerationSoftware,KiCad,Pcbnew,5.1.7*%
%TF.CreationDate,2020-11-23T14:09:17+01:00*%
%TF.ProjectId,mce-adapter,6d63652d-6164-4617-9074-65722e6b6963,0.7*%
%TF.SameCoordinates,Original*%
%TF.FileFunction,Soldermask,Top*%
%TF.FilePolarity,Negative*%
%FSLAX46Y46*%
G04 Gerber Fmt 4.6, Leading zero omitted, Abs format (unit mm)*
G04 Created by KiCad (PCBNEW 5.1.7) date 2020-11-23 14:09:17*
%MOMM*%
%LPD*%
G01*
G04 APERTURE LIST*
%ADD10C,4.000000*%
%ADD11C,1.600000*%
%ADD12R,1.600000X1.600000*%
%ADD13O,1.700000X1.700000*%
%ADD14R,1.700000X1.700000*%
%ADD15O,1.400000X2.500000*%
%ADD16C,1.100000*%
%ADD17O,1.400000X1.400000*%
%ADD18C,1.400000*%
%ADD19O,1.500000X1.500000*%
%ADD20R,1.500000X1.500000*%
%ADD21O,1.600000X1.600000*%
G04 APERTURE END LIST*
D10*
%TO.C,VIDEO_OUT1*%
X163980000Y-89605000D03*
X163980000Y-114605000D03*
D11*
X166520000Y-106950000D03*
X166520000Y-104660000D03*
X166520000Y-102370000D03*
X166520000Y-100080000D03*
X166520000Y-97790000D03*
X164540000Y-105805000D03*
X164540000Y-103515000D03*
X164540000Y-101225000D03*
X164540000Y-98935000D03*
X164540000Y-96645000D03*
X162560000Y-106950000D03*
X162560000Y-104660000D03*
X162560000Y-102370000D03*
X162560000Y-100080000D03*
D12*
X162560000Y-97790000D03*
%TD*%
D13*
%TO.C,JP1-3*%
X152400000Y-118110000D03*
X149860000Y-118110000D03*
X152400000Y-115570000D03*
X149860000Y-115570000D03*
X152400000Y-113030000D03*
D14*
X149860000Y-113030000D03*
%TD*%
D15*
%TO.C,PWR1*%
X126475000Y-86425000D03*
X133875000Y-86425000D03*
X133875000Y-91175000D03*
X126475000Y-91175000D03*
D16*
X129375000Y-90875000D03*
X130975000Y-90875000D03*
X131775000Y-92075000D03*
X128575000Y-92075000D03*
X130175000Y-92075000D03*
%TD*%
D17*
%TO.C,R7*%
X138430000Y-97790000D03*
D18*
X146050000Y-97790000D03*
%TD*%
D19*
%TO.C,D1*%
X141605000Y-90170000D03*
D20*
X151765000Y-90170000D03*
%TD*%
D13*
%TO.C,JP4*%
X150495000Y-100965000D03*
X150495000Y-98425000D03*
D14*
X150495000Y-95885000D03*
%TD*%
D13*
%TO.C,PWR2*%
X138430000Y-88265000D03*
D14*
X138430000Y-90805000D03*
%TD*%
D11*
%TO.C,C1*%
X157440000Y-90170000D03*
D12*
X154940000Y-90170000D03*
%TD*%
D21*
%TO.C,U1*%
X133985000Y-95250000D03*
X126365000Y-118110000D03*
X133985000Y-97790000D03*
X126365000Y-115570000D03*
X133985000Y-100330000D03*
X126365000Y-113030000D03*
X133985000Y-102870000D03*
X126365000Y-110490000D03*
X133985000Y-105410000D03*
X126365000Y-107950000D03*
X133985000Y-107950000D03*
X126365000Y-105410000D03*
X133985000Y-110490000D03*
X126365000Y-102870000D03*
X133985000Y-113030000D03*
X126365000Y-100330000D03*
X133985000Y-115570000D03*
X126365000Y-97790000D03*
X133985000Y-118110000D03*
D12*
X126365000Y-95250000D03*
%TD*%
D10*
%TO.C,VIDEO_IN1*%
X119865000Y-114910000D03*
X119865000Y-89910000D03*
D11*
X118445000Y-98255000D03*
X118445000Y-101025000D03*
X118445000Y-103795000D03*
X118445000Y-106565000D03*
X121285000Y-96870000D03*
X121285000Y-99640000D03*
X121285000Y-102410000D03*
X121285000Y-105180000D03*
D12*
X121285000Y-107950000D03*
%TD*%
D17*
%TO.C,R6*%
X138430000Y-113030000D03*
D18*
X146050000Y-113030000D03*
%TD*%
D17*
%TO.C,R5*%
X138430000Y-107950000D03*
D18*
X146050000Y-107950000D03*
%TD*%
D17*
%TO.C,R4*%
X138430000Y-102870000D03*
D18*
X146050000Y-102870000D03*
%TD*%
D17*
%TO.C,R8*%
X138430000Y-95250000D03*
D18*
X146050000Y-95250000D03*
%TD*%
D17*
%TO.C,R3*%
X138430000Y-110490000D03*
D18*
X146050000Y-110490000D03*
%TD*%
D17*
%TO.C,R2*%
X138430000Y-105410000D03*
D18*
X146050000Y-105410000D03*
%TD*%
D17*
%TO.C,R1*%
X138430000Y-100330000D03*
D18*
X146050000Y-100330000D03*
%TD*%
D13*
%TO.C,H1*%
X157480000Y-108585000D03*
X157480000Y-106045000D03*
X157480000Y-103505000D03*
X157480000Y-100965000D03*
X157480000Y-98425000D03*
D14*
X157480000Y-95885000D03*
%TD*%
M02*
