%TF.GenerationSoftware,KiCad,Pcbnew,5.1.7*%
%TF.CreationDate,2020-11-23T22:38:14+01:00*%
%TF.ProjectId,mce-adapter,6d63652d-6164-4617-9074-65722e6b6963,0.7*%
%TF.SameCoordinates,Original*%
%TF.FileFunction,Soldermask,Top*%
%TF.FilePolarity,Negative*%
%FSLAX46Y46*%
G04 Gerber Fmt 4.6, Leading zero omitted, Abs format (unit mm)*
G04 Created by KiCad (PCBNEW 5.1.7) date 2020-11-23 22:38:14*
%MOMM*%
%LPD*%
G01*
G04 APERTURE LIST*
%ADD10O,1.500000X1.500000*%
%ADD11R,1.500000X1.500000*%
%ADD12C,4.000000*%
%ADD13C,1.600000*%
%ADD14R,1.600000X1.600000*%
%ADD15O,1.700000X1.700000*%
%ADD16R,1.700000X1.700000*%
%ADD17O,1.400000X2.500000*%
%ADD18C,1.100000*%
%ADD19O,1.400000X1.400000*%
%ADD20C,1.400000*%
%ADD21O,1.600000X1.600000*%
G04 APERTURE END LIST*
D10*
%TO.C,D1*%
X159004000Y-107569000D03*
D11*
X148844000Y-107569000D03*
%TD*%
D12*
%TO.C,VIDEO_OUT1*%
X164361000Y-90113000D03*
X164361000Y-115113000D03*
D13*
X166901000Y-107458000D03*
X166901000Y-105168000D03*
X166901000Y-102878000D03*
X166901000Y-100588000D03*
X166901000Y-98298000D03*
X164921000Y-106313000D03*
X164921000Y-104023000D03*
X164921000Y-101733000D03*
X164921000Y-99443000D03*
X164921000Y-97153000D03*
X162941000Y-107458000D03*
X162941000Y-105168000D03*
X162941000Y-102878000D03*
X162941000Y-100588000D03*
D14*
X162941000Y-98298000D03*
%TD*%
D15*
%TO.C,PWR2*%
X158496000Y-114427000D03*
D16*
X158496000Y-111887000D03*
%TD*%
D17*
%TO.C,PWR1*%
X155592000Y-116521000D03*
X148192000Y-116521000D03*
X148192000Y-111771000D03*
X155592000Y-111771000D03*
D18*
X152692000Y-112071000D03*
X151092000Y-112071000D03*
X150292000Y-110871000D03*
X153492000Y-110871000D03*
X151892000Y-110871000D03*
%TD*%
D13*
%TO.C,C1*%
X151344000Y-102743000D03*
D14*
X148844000Y-102743000D03*
%TD*%
D12*
%TO.C,VIDEO_IN1*%
X120246000Y-115164000D03*
X120246000Y-90164000D03*
D13*
X118826000Y-98509000D03*
X118826000Y-101279000D03*
X118826000Y-104049000D03*
X118826000Y-106819000D03*
X121666000Y-97124000D03*
X121666000Y-99894000D03*
X121666000Y-102664000D03*
X121666000Y-105434000D03*
D14*
X121666000Y-108204000D03*
%TD*%
D15*
%TO.C,J123*%
X143383000Y-112141000D03*
X143383000Y-114681000D03*
X140843000Y-112141000D03*
X140843000Y-114681000D03*
X138303000Y-112141000D03*
D16*
X138303000Y-114681000D03*
%TD*%
D19*
%TO.C,R7*%
X138176000Y-93853000D03*
D20*
X145796000Y-93853000D03*
%TD*%
D15*
%TO.C,J4*%
X150241000Y-96393000D03*
X150241000Y-93853000D03*
D16*
X150241000Y-91313000D03*
%TD*%
D21*
%TO.C,U1*%
X133985000Y-91313000D03*
X126365000Y-114173000D03*
X133985000Y-93853000D03*
X126365000Y-111633000D03*
X133985000Y-96393000D03*
X126365000Y-109093000D03*
X133985000Y-98933000D03*
X126365000Y-106553000D03*
X133985000Y-101473000D03*
X126365000Y-104013000D03*
X133985000Y-104013000D03*
X126365000Y-101473000D03*
X133985000Y-106553000D03*
X126365000Y-98933000D03*
X133985000Y-109093000D03*
X126365000Y-96393000D03*
X133985000Y-111633000D03*
X126365000Y-93853000D03*
X133985000Y-114173000D03*
D14*
X126365000Y-91313000D03*
%TD*%
D19*
%TO.C,R6*%
X138176000Y-109093000D03*
D20*
X145796000Y-109093000D03*
%TD*%
D19*
%TO.C,R5*%
X138176000Y-104013000D03*
D20*
X145796000Y-104013000D03*
%TD*%
D19*
%TO.C,R4*%
X138176000Y-98933000D03*
D20*
X145796000Y-98933000D03*
%TD*%
D19*
%TO.C,R8*%
X138176000Y-91313000D03*
D20*
X145796000Y-91313000D03*
%TD*%
D19*
%TO.C,R3*%
X138176000Y-106553000D03*
D20*
X145796000Y-106553000D03*
%TD*%
D19*
%TO.C,R2*%
X138176000Y-101473000D03*
D20*
X145796000Y-101473000D03*
%TD*%
D19*
%TO.C,R1*%
X138176000Y-96393000D03*
D20*
X145796000Y-96393000D03*
%TD*%
D15*
%TO.C,H1*%
X157226000Y-104013000D03*
X157226000Y-101473000D03*
X157226000Y-98933000D03*
X157226000Y-96393000D03*
X157226000Y-93853000D03*
D16*
X157226000Y-91313000D03*
%TD*%
M02*
