%TF.GenerationSoftware,KiCad,Pcbnew,5.1.7*%
%TF.CreationDate,2020-11-23T22:27:32+01:00*%
%TF.ProjectId,mce-adapter,6d63652d-6164-4617-9074-65722e6b6963,0.7*%
%TF.SameCoordinates,Original*%
%TF.FileFunction,Legend,Top*%
%TF.FilePolarity,Positive*%
%FSLAX46Y46*%
G04 Gerber Fmt 4.6, Leading zero omitted, Abs format (unit mm)*
G04 Created by KiCad (PCBNEW 5.1.7) date 2020-11-23 22:27:32*
%MOMM*%
%LPD*%
G01*
G04 APERTURE LIST*
%ADD10C,0.150000*%
%ADD11C,0.300000*%
%ADD12C,0.200000*%
%ADD13C,0.120000*%
G04 APERTURE END LIST*
D10*
X124928619Y-117546380D02*
X124928619Y-116879714D01*
X124928619Y-117070190D02*
X124976238Y-116974952D01*
X125023857Y-116927333D01*
X125119095Y-116879714D01*
X125214333Y-116879714D01*
X125928619Y-117498761D02*
X125833380Y-117546380D01*
X125642904Y-117546380D01*
X125547666Y-117498761D01*
X125500047Y-117403523D01*
X125500047Y-117022571D01*
X125547666Y-116927333D01*
X125642904Y-116879714D01*
X125833380Y-116879714D01*
X125928619Y-116927333D01*
X125976238Y-117022571D01*
X125976238Y-117117809D01*
X125500047Y-117213047D01*
X126309571Y-116879714D02*
X126547666Y-117546380D01*
X126785761Y-116879714D01*
X128119095Y-116546380D02*
X128214333Y-116546380D01*
X128309571Y-116594000D01*
X128357190Y-116641619D01*
X128404809Y-116736857D01*
X128452428Y-116927333D01*
X128452428Y-117165428D01*
X128404809Y-117355904D01*
X128357190Y-117451142D01*
X128309571Y-117498761D01*
X128214333Y-117546380D01*
X128119095Y-117546380D01*
X128023857Y-117498761D01*
X127976238Y-117451142D01*
X127928619Y-117355904D01*
X127881000Y-117165428D01*
X127881000Y-116927333D01*
X127928619Y-116736857D01*
X127976238Y-116641619D01*
X128023857Y-116594000D01*
X128119095Y-116546380D01*
X128881000Y-117451142D02*
X128928619Y-117498761D01*
X128881000Y-117546380D01*
X128833380Y-117498761D01*
X128881000Y-117451142D01*
X128881000Y-117546380D01*
X129261952Y-116546380D02*
X129928619Y-116546380D01*
X129500047Y-117546380D01*
D11*
X126839142Y-88943571D02*
X126839142Y-87443571D01*
X127339142Y-88515000D01*
X127839142Y-87443571D01*
X127839142Y-88943571D01*
X129410571Y-88800714D02*
X129339142Y-88872142D01*
X129124857Y-88943571D01*
X128982000Y-88943571D01*
X128767714Y-88872142D01*
X128624857Y-88729285D01*
X128553428Y-88586428D01*
X128482000Y-88300714D01*
X128482000Y-88086428D01*
X128553428Y-87800714D01*
X128624857Y-87657857D01*
X128767714Y-87515000D01*
X128982000Y-87443571D01*
X129124857Y-87443571D01*
X129339142Y-87515000D01*
X129410571Y-87586428D01*
X130053428Y-88157857D02*
X130553428Y-88157857D01*
X130767714Y-88943571D02*
X130053428Y-88943571D01*
X130053428Y-87443571D01*
X130767714Y-87443571D01*
X132482000Y-88515000D02*
X133196285Y-88515000D01*
X132339142Y-88943571D02*
X132839142Y-87443571D01*
X133339142Y-88943571D01*
X134482000Y-88943571D02*
X134482000Y-87443571D01*
X134482000Y-88872142D02*
X134339142Y-88943571D01*
X134053428Y-88943571D01*
X133910571Y-88872142D01*
X133839142Y-88800714D01*
X133767714Y-88657857D01*
X133767714Y-88229285D01*
X133839142Y-88086428D01*
X133910571Y-88015000D01*
X134053428Y-87943571D01*
X134339142Y-87943571D01*
X134482000Y-88015000D01*
X135839142Y-88943571D02*
X135839142Y-88157857D01*
X135767714Y-88015000D01*
X135624857Y-87943571D01*
X135339142Y-87943571D01*
X135196285Y-88015000D01*
X135839142Y-88872142D02*
X135696285Y-88943571D01*
X135339142Y-88943571D01*
X135196285Y-88872142D01*
X135124857Y-88729285D01*
X135124857Y-88586428D01*
X135196285Y-88443571D01*
X135339142Y-88372142D01*
X135696285Y-88372142D01*
X135839142Y-88300714D01*
X136553428Y-87943571D02*
X136553428Y-89443571D01*
X136553428Y-88015000D02*
X136696285Y-87943571D01*
X136982000Y-87943571D01*
X137124857Y-88015000D01*
X137196285Y-88086428D01*
X137267714Y-88229285D01*
X137267714Y-88657857D01*
X137196285Y-88800714D01*
X137124857Y-88872142D01*
X136982000Y-88943571D01*
X136696285Y-88943571D01*
X136553428Y-88872142D01*
X137696285Y-87943571D02*
X138267714Y-87943571D01*
X137910571Y-87443571D02*
X137910571Y-88729285D01*
X137982000Y-88872142D01*
X138124857Y-88943571D01*
X138267714Y-88943571D01*
X139339142Y-88872142D02*
X139196285Y-88943571D01*
X138910571Y-88943571D01*
X138767714Y-88872142D01*
X138696285Y-88729285D01*
X138696285Y-88157857D01*
X138767714Y-88015000D01*
X138910571Y-87943571D01*
X139196285Y-87943571D01*
X139339142Y-88015000D01*
X139410571Y-88157857D01*
X139410571Y-88300714D01*
X138696285Y-88443571D01*
X140053428Y-88943571D02*
X140053428Y-87943571D01*
X140053428Y-88229285D02*
X140124857Y-88086428D01*
X140196285Y-88015000D01*
X140339142Y-87943571D01*
X140482000Y-87943571D01*
X142124857Y-88943571D02*
X142124857Y-87443571D01*
X142124857Y-88015000D02*
X142267714Y-87943571D01*
X142553428Y-87943571D01*
X142696285Y-88015000D01*
X142767714Y-88086428D01*
X142839142Y-88229285D01*
X142839142Y-88657857D01*
X142767714Y-88800714D01*
X142696285Y-88872142D01*
X142553428Y-88943571D01*
X142267714Y-88943571D01*
X142124857Y-88872142D01*
X143339142Y-87943571D02*
X143696285Y-88943571D01*
X144053428Y-87943571D02*
X143696285Y-88943571D01*
X143553428Y-89300714D01*
X143482000Y-89372142D01*
X143339142Y-89443571D01*
X145767714Y-88943571D02*
X145767714Y-87443571D01*
X146624857Y-88943571D01*
X146624857Y-87443571D01*
X147910571Y-88872142D02*
X147767714Y-88943571D01*
X147482000Y-88943571D01*
X147339142Y-88872142D01*
X147267714Y-88729285D01*
X147267714Y-88157857D01*
X147339142Y-88015000D01*
X147482000Y-87943571D01*
X147767714Y-87943571D01*
X147910571Y-88015000D01*
X147982000Y-88157857D01*
X147982000Y-88300714D01*
X147267714Y-88443571D01*
X149267714Y-88872142D02*
X149124857Y-88943571D01*
X148839142Y-88943571D01*
X148696285Y-88872142D01*
X148624857Y-88800714D01*
X148553428Y-88657857D01*
X148553428Y-88229285D01*
X148624857Y-88086428D01*
X148696285Y-88015000D01*
X148839142Y-87943571D01*
X149124857Y-87943571D01*
X149267714Y-88015000D01*
X149910571Y-88943571D02*
X149910571Y-87943571D01*
X149910571Y-88229285D02*
X149982000Y-88086428D01*
X150053428Y-88015000D01*
X150196285Y-87943571D01*
X150339142Y-87943571D01*
X151053428Y-88943571D02*
X150910571Y-88872142D01*
X150839142Y-88800714D01*
X150767714Y-88657857D01*
X150767714Y-88229285D01*
X150839142Y-88086428D01*
X150910571Y-88015000D01*
X151053428Y-87943571D01*
X151267714Y-87943571D01*
X151410571Y-88015000D01*
X151482000Y-88086428D01*
X151553428Y-88229285D01*
X151553428Y-88657857D01*
X151482000Y-88800714D01*
X151410571Y-88872142D01*
X151267714Y-88943571D01*
X151053428Y-88943571D01*
X152053428Y-87943571D02*
X152339142Y-88943571D01*
X152624857Y-88229285D01*
X152910571Y-88943571D01*
X153196285Y-87943571D01*
X154410571Y-88943571D02*
X154410571Y-88157857D01*
X154339142Y-88015000D01*
X154196285Y-87943571D01*
X153910571Y-87943571D01*
X153767714Y-88015000D01*
X154410571Y-88872142D02*
X154267714Y-88943571D01*
X153910571Y-88943571D01*
X153767714Y-88872142D01*
X153696285Y-88729285D01*
X153696285Y-88586428D01*
X153767714Y-88443571D01*
X153910571Y-88372142D01*
X154267714Y-88372142D01*
X154410571Y-88300714D01*
X155124857Y-88943571D02*
X155124857Y-87943571D01*
X155124857Y-88229285D02*
X155196285Y-88086428D01*
X155267714Y-88015000D01*
X155410571Y-87943571D01*
X155553428Y-87943571D01*
X156624857Y-88872142D02*
X156482000Y-88943571D01*
X156196285Y-88943571D01*
X156053428Y-88872142D01*
X155982000Y-88729285D01*
X155982000Y-88157857D01*
X156053428Y-88015000D01*
X156196285Y-87943571D01*
X156482000Y-87943571D01*
X156624857Y-88015000D01*
X156696285Y-88157857D01*
X156696285Y-88300714D01*
X155982000Y-88443571D01*
D12*
X153678000Y-90970571D02*
X154178000Y-92470571D01*
X154678000Y-90970571D01*
X153035142Y-94920571D02*
X153035142Y-93420571D01*
X153035142Y-94134857D02*
X153892285Y-94134857D01*
X153892285Y-94920571D02*
X153892285Y-93420571D01*
X154535142Y-94849142D02*
X154749428Y-94920571D01*
X155106571Y-94920571D01*
X155249428Y-94849142D01*
X155320857Y-94777714D01*
X155392285Y-94634857D01*
X155392285Y-94492000D01*
X155320857Y-94349142D01*
X155249428Y-94277714D01*
X155106571Y-94206285D01*
X154820857Y-94134857D01*
X154678000Y-94063428D01*
X154606571Y-93992000D01*
X154535142Y-93849142D01*
X154535142Y-93706285D01*
X154606571Y-93563428D01*
X154678000Y-93492000D01*
X154820857Y-93420571D01*
X155178000Y-93420571D01*
X155392285Y-93492000D01*
X154642285Y-97370571D02*
X154142285Y-96656285D01*
X153785142Y-97370571D02*
X153785142Y-95870571D01*
X154356571Y-95870571D01*
X154499428Y-95942000D01*
X154570857Y-96013428D01*
X154642285Y-96156285D01*
X154642285Y-96370571D01*
X154570857Y-96513428D01*
X154499428Y-96584857D01*
X154356571Y-96656285D01*
X153785142Y-96656285D01*
X154570857Y-98392000D02*
X154428000Y-98320571D01*
X154213714Y-98320571D01*
X153999428Y-98392000D01*
X153856571Y-98534857D01*
X153785142Y-98677714D01*
X153713714Y-98963428D01*
X153713714Y-99177714D01*
X153785142Y-99463428D01*
X153856571Y-99606285D01*
X153999428Y-99749142D01*
X154213714Y-99820571D01*
X154356571Y-99820571D01*
X154570857Y-99749142D01*
X154642285Y-99677714D01*
X154642285Y-99177714D01*
X154356571Y-99177714D01*
X154285142Y-101484857D02*
X154499428Y-101556285D01*
X154570857Y-101627714D01*
X154642285Y-101770571D01*
X154642285Y-101984857D01*
X154570857Y-102127714D01*
X154499428Y-102199142D01*
X154356571Y-102270571D01*
X153785142Y-102270571D01*
X153785142Y-100770571D01*
X154285142Y-100770571D01*
X154428000Y-100842000D01*
X154499428Y-100913428D01*
X154570857Y-101056285D01*
X154570857Y-101199142D01*
X154499428Y-101342000D01*
X154428000Y-101413428D01*
X154285142Y-101484857D01*
X153785142Y-101484857D01*
X153463714Y-103863428D02*
X154892285Y-103863428D01*
X153749428Y-104292000D02*
X154606571Y-104292000D01*
X154178000Y-103220571D02*
X154178000Y-103863428D01*
X154320857Y-104720571D02*
X154035142Y-104720571D01*
D13*
%TO.C,D1*%
X152284000Y-106268000D02*
X152284000Y-108108000D01*
X152284000Y-108108000D02*
X155564000Y-108108000D01*
X155564000Y-108108000D02*
X155564000Y-106268000D01*
X155564000Y-106268000D02*
X152284000Y-106268000D01*
X149834000Y-107188000D02*
X152284000Y-107188000D01*
X158014000Y-107188000D02*
X155564000Y-107188000D01*
X152860000Y-106268000D02*
X152860000Y-108108000D01*
X152980000Y-106268000D02*
X152980000Y-108108000D01*
X152740000Y-106268000D02*
X152740000Y-108108000D01*
%TO.C,VIDEO_OUT1*%
X175191000Y-118098000D02*
X161301000Y-118098000D01*
X161301000Y-118098000D02*
X161301000Y-87128000D01*
X161301000Y-87128000D02*
X175191000Y-87128000D01*
X160406662Y-98548000D02*
X160406662Y-98048000D01*
X160406662Y-98048000D02*
X160839675Y-98298000D01*
X160839675Y-98298000D02*
X160406662Y-98548000D01*
%TO.C,PWR2*%
X157166000Y-115757000D02*
X159826000Y-115757000D01*
X157166000Y-113157000D02*
X157166000Y-115757000D01*
X159826000Y-113157000D02*
X159826000Y-115757000D01*
X157166000Y-113157000D02*
X159826000Y-113157000D01*
X157166000Y-111887000D02*
X157166000Y-110557000D01*
X157166000Y-110557000D02*
X158496000Y-110557000D01*
%TO.C,PWR1*%
X147938000Y-117051000D02*
X155338000Y-117051000D01*
X147938000Y-119301000D02*
X147938000Y-109601000D01*
X147938000Y-119301000D02*
X155338000Y-119301000D01*
X155338000Y-109601000D02*
X155338000Y-119301000D01*
X147938000Y-109601000D02*
X155338000Y-109601000D01*
%TO.C,C1*%
X152714000Y-102743000D02*
G75*
G03*
X152714000Y-102743000I-2620000J0D01*
G01*
X150094000Y-100163000D02*
X150094000Y-105323000D01*
X150134000Y-100163000D02*
X150134000Y-105323000D01*
X150174000Y-100164000D02*
X150174000Y-105322000D01*
X150214000Y-100165000D02*
X150214000Y-105321000D01*
X150254000Y-100167000D02*
X150254000Y-105319000D01*
X150294000Y-100170000D02*
X150294000Y-105316000D01*
X150334000Y-100174000D02*
X150334000Y-101703000D01*
X150334000Y-103783000D02*
X150334000Y-105312000D01*
X150374000Y-100178000D02*
X150374000Y-101703000D01*
X150374000Y-103783000D02*
X150374000Y-105308000D01*
X150414000Y-100182000D02*
X150414000Y-101703000D01*
X150414000Y-103783000D02*
X150414000Y-105304000D01*
X150454000Y-100187000D02*
X150454000Y-101703000D01*
X150454000Y-103783000D02*
X150454000Y-105299000D01*
X150494000Y-100193000D02*
X150494000Y-101703000D01*
X150494000Y-103783000D02*
X150494000Y-105293000D01*
X150534000Y-100200000D02*
X150534000Y-101703000D01*
X150534000Y-103783000D02*
X150534000Y-105286000D01*
X150574000Y-100207000D02*
X150574000Y-101703000D01*
X150574000Y-103783000D02*
X150574000Y-105279000D01*
X150614000Y-100215000D02*
X150614000Y-101703000D01*
X150614000Y-103783000D02*
X150614000Y-105271000D01*
X150654000Y-100223000D02*
X150654000Y-101703000D01*
X150654000Y-103783000D02*
X150654000Y-105263000D01*
X150694000Y-100232000D02*
X150694000Y-101703000D01*
X150694000Y-103783000D02*
X150694000Y-105254000D01*
X150734000Y-100242000D02*
X150734000Y-101703000D01*
X150734000Y-103783000D02*
X150734000Y-105244000D01*
X150774000Y-100252000D02*
X150774000Y-101703000D01*
X150774000Y-103783000D02*
X150774000Y-105234000D01*
X150815000Y-100263000D02*
X150815000Y-101703000D01*
X150815000Y-103783000D02*
X150815000Y-105223000D01*
X150855000Y-100275000D02*
X150855000Y-101703000D01*
X150855000Y-103783000D02*
X150855000Y-105211000D01*
X150895000Y-100288000D02*
X150895000Y-101703000D01*
X150895000Y-103783000D02*
X150895000Y-105198000D01*
X150935000Y-100301000D02*
X150935000Y-101703000D01*
X150935000Y-103783000D02*
X150935000Y-105185000D01*
X150975000Y-100315000D02*
X150975000Y-101703000D01*
X150975000Y-103783000D02*
X150975000Y-105171000D01*
X151015000Y-100329000D02*
X151015000Y-101703000D01*
X151015000Y-103783000D02*
X151015000Y-105157000D01*
X151055000Y-100345000D02*
X151055000Y-101703000D01*
X151055000Y-103783000D02*
X151055000Y-105141000D01*
X151095000Y-100361000D02*
X151095000Y-101703000D01*
X151095000Y-103783000D02*
X151095000Y-105125000D01*
X151135000Y-100378000D02*
X151135000Y-101703000D01*
X151135000Y-103783000D02*
X151135000Y-105108000D01*
X151175000Y-100395000D02*
X151175000Y-101703000D01*
X151175000Y-103783000D02*
X151175000Y-105091000D01*
X151215000Y-100414000D02*
X151215000Y-101703000D01*
X151215000Y-103783000D02*
X151215000Y-105072000D01*
X151255000Y-100433000D02*
X151255000Y-101703000D01*
X151255000Y-103783000D02*
X151255000Y-105053000D01*
X151295000Y-100453000D02*
X151295000Y-101703000D01*
X151295000Y-103783000D02*
X151295000Y-105033000D01*
X151335000Y-100475000D02*
X151335000Y-101703000D01*
X151335000Y-103783000D02*
X151335000Y-105011000D01*
X151375000Y-100496000D02*
X151375000Y-101703000D01*
X151375000Y-103783000D02*
X151375000Y-104990000D01*
X151415000Y-100519000D02*
X151415000Y-101703000D01*
X151415000Y-103783000D02*
X151415000Y-104967000D01*
X151455000Y-100543000D02*
X151455000Y-101703000D01*
X151455000Y-103783000D02*
X151455000Y-104943000D01*
X151495000Y-100568000D02*
X151495000Y-101703000D01*
X151495000Y-103783000D02*
X151495000Y-104918000D01*
X151535000Y-100594000D02*
X151535000Y-101703000D01*
X151535000Y-103783000D02*
X151535000Y-104892000D01*
X151575000Y-100621000D02*
X151575000Y-101703000D01*
X151575000Y-103783000D02*
X151575000Y-104865000D01*
X151615000Y-100648000D02*
X151615000Y-101703000D01*
X151615000Y-103783000D02*
X151615000Y-104838000D01*
X151655000Y-100678000D02*
X151655000Y-101703000D01*
X151655000Y-103783000D02*
X151655000Y-104808000D01*
X151695000Y-100708000D02*
X151695000Y-101703000D01*
X151695000Y-103783000D02*
X151695000Y-104778000D01*
X151735000Y-100739000D02*
X151735000Y-101703000D01*
X151735000Y-103783000D02*
X151735000Y-104747000D01*
X151775000Y-100772000D02*
X151775000Y-101703000D01*
X151775000Y-103783000D02*
X151775000Y-104714000D01*
X151815000Y-100806000D02*
X151815000Y-101703000D01*
X151815000Y-103783000D02*
X151815000Y-104680000D01*
X151855000Y-100842000D02*
X151855000Y-101703000D01*
X151855000Y-103783000D02*
X151855000Y-104644000D01*
X151895000Y-100879000D02*
X151895000Y-101703000D01*
X151895000Y-103783000D02*
X151895000Y-104607000D01*
X151935000Y-100917000D02*
X151935000Y-101703000D01*
X151935000Y-103783000D02*
X151935000Y-104569000D01*
X151975000Y-100958000D02*
X151975000Y-101703000D01*
X151975000Y-103783000D02*
X151975000Y-104528000D01*
X152015000Y-101000000D02*
X152015000Y-101703000D01*
X152015000Y-103783000D02*
X152015000Y-104486000D01*
X152055000Y-101044000D02*
X152055000Y-101703000D01*
X152055000Y-103783000D02*
X152055000Y-104442000D01*
X152095000Y-101090000D02*
X152095000Y-101703000D01*
X152095000Y-103783000D02*
X152095000Y-104396000D01*
X152135000Y-101138000D02*
X152135000Y-101703000D01*
X152135000Y-103783000D02*
X152135000Y-104348000D01*
X152175000Y-101189000D02*
X152175000Y-101703000D01*
X152175000Y-103783000D02*
X152175000Y-104297000D01*
X152215000Y-101243000D02*
X152215000Y-101703000D01*
X152215000Y-103783000D02*
X152215000Y-104243000D01*
X152255000Y-101300000D02*
X152255000Y-101703000D01*
X152255000Y-103783000D02*
X152255000Y-104186000D01*
X152295000Y-101360000D02*
X152295000Y-101703000D01*
X152295000Y-103783000D02*
X152295000Y-104126000D01*
X152335000Y-101424000D02*
X152335000Y-101703000D01*
X152335000Y-103783000D02*
X152335000Y-104062000D01*
X152375000Y-101492000D02*
X152375000Y-101703000D01*
X152375000Y-103783000D02*
X152375000Y-103994000D01*
X152415000Y-101565000D02*
X152415000Y-103921000D01*
X152455000Y-101645000D02*
X152455000Y-103841000D01*
X152495000Y-101732000D02*
X152495000Y-103754000D01*
X152535000Y-101828000D02*
X152535000Y-103658000D01*
X152575000Y-101938000D02*
X152575000Y-103548000D01*
X152615000Y-102066000D02*
X152615000Y-103420000D01*
X152655000Y-102225000D02*
X152655000Y-103261000D01*
X152695000Y-102459000D02*
X152695000Y-103027000D01*
X147289225Y-101268000D02*
X147789225Y-101268000D01*
X147539225Y-101018000D02*
X147539225Y-101518000D01*
%TO.C,VIDEO_IN1*%
X111186000Y-87179000D02*
X123526000Y-87179000D01*
X123526000Y-87179000D02*
X123526000Y-118149000D01*
X123526000Y-118149000D02*
X111186000Y-118149000D01*
X124420338Y-107954000D02*
X124420338Y-108454000D01*
X124420338Y-108454000D02*
X123987325Y-108204000D01*
X123987325Y-108204000D02*
X124420338Y-107954000D01*
%TO.C,J123*%
X144713000Y-116011000D02*
X144713000Y-110811000D01*
X139573000Y-116011000D02*
X144713000Y-116011000D01*
X136973000Y-110811000D02*
X144713000Y-110811000D01*
X139573000Y-116011000D02*
X139573000Y-113411000D01*
X139573000Y-113411000D02*
X136973000Y-113411000D01*
X136973000Y-113411000D02*
X136973000Y-110811000D01*
X138303000Y-116011000D02*
X136973000Y-116011000D01*
X136973000Y-116011000D02*
X136973000Y-114681000D01*
%TO.C,R7*%
X143906000Y-94773000D02*
X143906000Y-92933000D01*
X143906000Y-92933000D02*
X140066000Y-92933000D01*
X140066000Y-92933000D02*
X140066000Y-94773000D01*
X140066000Y-94773000D02*
X143906000Y-94773000D01*
X144856000Y-93853000D02*
X143906000Y-93853000D01*
X139116000Y-93853000D02*
X140066000Y-93853000D01*
%TO.C,J4*%
X148911000Y-97723000D02*
X151571000Y-97723000D01*
X148911000Y-92583000D02*
X148911000Y-97723000D01*
X151571000Y-92583000D02*
X151571000Y-97723000D01*
X148911000Y-92583000D02*
X151571000Y-92583000D01*
X148911000Y-91313000D02*
X148911000Y-89983000D01*
X148911000Y-89983000D02*
X150241000Y-89983000D01*
%TO.C,U1*%
X129175000Y-89983000D02*
X127525000Y-89983000D01*
X127525000Y-89983000D02*
X127525000Y-115503000D01*
X127525000Y-115503000D02*
X132825000Y-115503000D01*
X132825000Y-115503000D02*
X132825000Y-89983000D01*
X132825000Y-89983000D02*
X131175000Y-89983000D01*
X125035000Y-89923000D02*
X125035000Y-115563000D01*
X125035000Y-115563000D02*
X135315000Y-115563000D01*
X135315000Y-115563000D02*
X135315000Y-89923000D01*
X135315000Y-89923000D02*
X125035000Y-89923000D01*
X131175000Y-89983000D02*
G75*
G02*
X129175000Y-89983000I-1000000J0D01*
G01*
%TO.C,R6*%
X143906000Y-110013000D02*
X143906000Y-108173000D01*
X143906000Y-108173000D02*
X140066000Y-108173000D01*
X140066000Y-108173000D02*
X140066000Y-110013000D01*
X140066000Y-110013000D02*
X143906000Y-110013000D01*
X144856000Y-109093000D02*
X143906000Y-109093000D01*
X139116000Y-109093000D02*
X140066000Y-109093000D01*
%TO.C,R5*%
X143906000Y-104933000D02*
X143906000Y-103093000D01*
X143906000Y-103093000D02*
X140066000Y-103093000D01*
X140066000Y-103093000D02*
X140066000Y-104933000D01*
X140066000Y-104933000D02*
X143906000Y-104933000D01*
X144856000Y-104013000D02*
X143906000Y-104013000D01*
X139116000Y-104013000D02*
X140066000Y-104013000D01*
%TO.C,R4*%
X143906000Y-99853000D02*
X143906000Y-98013000D01*
X143906000Y-98013000D02*
X140066000Y-98013000D01*
X140066000Y-98013000D02*
X140066000Y-99853000D01*
X140066000Y-99853000D02*
X143906000Y-99853000D01*
X144856000Y-98933000D02*
X143906000Y-98933000D01*
X139116000Y-98933000D02*
X140066000Y-98933000D01*
%TO.C,R8*%
X143906000Y-92233000D02*
X143906000Y-90393000D01*
X143906000Y-90393000D02*
X140066000Y-90393000D01*
X140066000Y-90393000D02*
X140066000Y-92233000D01*
X140066000Y-92233000D02*
X143906000Y-92233000D01*
X144856000Y-91313000D02*
X143906000Y-91313000D01*
X139116000Y-91313000D02*
X140066000Y-91313000D01*
%TO.C,R3*%
X143906000Y-107473000D02*
X143906000Y-105633000D01*
X143906000Y-105633000D02*
X140066000Y-105633000D01*
X140066000Y-105633000D02*
X140066000Y-107473000D01*
X140066000Y-107473000D02*
X143906000Y-107473000D01*
X144856000Y-106553000D02*
X143906000Y-106553000D01*
X139116000Y-106553000D02*
X140066000Y-106553000D01*
%TO.C,R2*%
X143906000Y-102393000D02*
X143906000Y-100553000D01*
X143906000Y-100553000D02*
X140066000Y-100553000D01*
X140066000Y-100553000D02*
X140066000Y-102393000D01*
X140066000Y-102393000D02*
X143906000Y-102393000D01*
X144856000Y-101473000D02*
X143906000Y-101473000D01*
X139116000Y-101473000D02*
X140066000Y-101473000D01*
%TO.C,R1*%
X143906000Y-97313000D02*
X143906000Y-95473000D01*
X143906000Y-95473000D02*
X140066000Y-95473000D01*
X140066000Y-95473000D02*
X140066000Y-97313000D01*
X140066000Y-97313000D02*
X143906000Y-97313000D01*
X144856000Y-96393000D02*
X143906000Y-96393000D01*
X139116000Y-96393000D02*
X140066000Y-96393000D01*
%TO.C,H1*%
X155896000Y-105343000D02*
X158556000Y-105343000D01*
X155896000Y-92583000D02*
X155896000Y-105343000D01*
X158556000Y-92583000D02*
X158556000Y-105343000D01*
X155896000Y-92583000D02*
X158556000Y-92583000D01*
X155896000Y-91313000D02*
X155896000Y-89983000D01*
X155896000Y-89983000D02*
X157226000Y-89983000D01*
%TO.C,D1*%
D10*
X153312904Y-107640380D02*
X153312904Y-106640380D01*
X153551000Y-106640380D01*
X153693857Y-106688000D01*
X153789095Y-106783238D01*
X153836714Y-106878476D01*
X153884333Y-107068952D01*
X153884333Y-107211809D01*
X153836714Y-107402285D01*
X153789095Y-107497523D01*
X153693857Y-107592761D01*
X153551000Y-107640380D01*
X153312904Y-107640380D01*
X154836714Y-107640380D02*
X154265285Y-107640380D01*
X154551000Y-107640380D02*
X154551000Y-106640380D01*
X154455761Y-106783238D01*
X154360523Y-106878476D01*
X154265285Y-106926095D01*
%TO.C,VIDEO_OUT1*%
X170902380Y-106568333D02*
X171902380Y-106235000D01*
X170902380Y-105901666D01*
X171902380Y-105568333D02*
X170902380Y-105568333D01*
X171902380Y-105092142D02*
X170902380Y-105092142D01*
X170902380Y-104854047D01*
X170950000Y-104711190D01*
X171045238Y-104615952D01*
X171140476Y-104568333D01*
X171330952Y-104520714D01*
X171473809Y-104520714D01*
X171664285Y-104568333D01*
X171759523Y-104615952D01*
X171854761Y-104711190D01*
X171902380Y-104854047D01*
X171902380Y-105092142D01*
X171378571Y-104092142D02*
X171378571Y-103758809D01*
X171902380Y-103615952D02*
X171902380Y-104092142D01*
X170902380Y-104092142D01*
X170902380Y-103615952D01*
X170902380Y-102996904D02*
X170902380Y-102806428D01*
X170950000Y-102711190D01*
X171045238Y-102615952D01*
X171235714Y-102568333D01*
X171569047Y-102568333D01*
X171759523Y-102615952D01*
X171854761Y-102711190D01*
X171902380Y-102806428D01*
X171902380Y-102996904D01*
X171854761Y-103092142D01*
X171759523Y-103187380D01*
X171569047Y-103235000D01*
X171235714Y-103235000D01*
X171045238Y-103187380D01*
X170950000Y-103092142D01*
X170902380Y-102996904D01*
X171997619Y-102377857D02*
X171997619Y-101615952D01*
X170902380Y-101187380D02*
X170902380Y-100996904D01*
X170950000Y-100901666D01*
X171045238Y-100806428D01*
X171235714Y-100758809D01*
X171569047Y-100758809D01*
X171759523Y-100806428D01*
X171854761Y-100901666D01*
X171902380Y-100996904D01*
X171902380Y-101187380D01*
X171854761Y-101282619D01*
X171759523Y-101377857D01*
X171569047Y-101425476D01*
X171235714Y-101425476D01*
X171045238Y-101377857D01*
X170950000Y-101282619D01*
X170902380Y-101187380D01*
X170902380Y-100330238D02*
X171711904Y-100330238D01*
X171807142Y-100282619D01*
X171854761Y-100235000D01*
X171902380Y-100139761D01*
X171902380Y-99949285D01*
X171854761Y-99854047D01*
X171807142Y-99806428D01*
X171711904Y-99758809D01*
X170902380Y-99758809D01*
X170902380Y-99425476D02*
X170902380Y-98854047D01*
X171902380Y-99139761D02*
X170902380Y-99139761D01*
X171902380Y-97996904D02*
X171902380Y-98568333D01*
X171902380Y-98282619D02*
X170902380Y-98282619D01*
X171045238Y-98377857D01*
X171140476Y-98473095D01*
X171188095Y-98568333D01*
%TO.C,PWR2*%
X156686476Y-117546380D02*
X156686476Y-116546380D01*
X157067428Y-116546380D01*
X157162666Y-116594000D01*
X157210285Y-116641619D01*
X157257904Y-116736857D01*
X157257904Y-116879714D01*
X157210285Y-116974952D01*
X157162666Y-117022571D01*
X157067428Y-117070190D01*
X156686476Y-117070190D01*
X157591238Y-116546380D02*
X157829333Y-117546380D01*
X158019809Y-116832095D01*
X158210285Y-117546380D01*
X158448380Y-116546380D01*
X159400761Y-117546380D02*
X159067428Y-117070190D01*
X158829333Y-117546380D02*
X158829333Y-116546380D01*
X159210285Y-116546380D01*
X159305523Y-116594000D01*
X159353142Y-116641619D01*
X159400761Y-116736857D01*
X159400761Y-116879714D01*
X159353142Y-116974952D01*
X159305523Y-117022571D01*
X159210285Y-117070190D01*
X158829333Y-117070190D01*
X159781714Y-116641619D02*
X159829333Y-116594000D01*
X159924571Y-116546380D01*
X160162666Y-116546380D01*
X160257904Y-116594000D01*
X160305523Y-116641619D01*
X160353142Y-116736857D01*
X160353142Y-116832095D01*
X160305523Y-116974952D01*
X159734095Y-117546380D01*
X160353142Y-117546380D01*
X157210285Y-109799428D02*
X157972190Y-109799428D01*
X157591238Y-110180380D02*
X157591238Y-109418476D01*
X158924571Y-109180380D02*
X158448380Y-109180380D01*
X158400761Y-109656571D01*
X158448380Y-109608952D01*
X158543619Y-109561333D01*
X158781714Y-109561333D01*
X158876952Y-109608952D01*
X158924571Y-109656571D01*
X158972190Y-109751809D01*
X158972190Y-109989904D01*
X158924571Y-110085142D01*
X158876952Y-110132761D01*
X158781714Y-110180380D01*
X158543619Y-110180380D01*
X158448380Y-110132761D01*
X158400761Y-110085142D01*
X159257904Y-109180380D02*
X159591238Y-110180380D01*
X159924571Y-109180380D01*
%TO.C,PWR1*%
X149828476Y-114117380D02*
X149828476Y-113117380D01*
X150209428Y-113117380D01*
X150304666Y-113165000D01*
X150352285Y-113212619D01*
X150399904Y-113307857D01*
X150399904Y-113450714D01*
X150352285Y-113545952D01*
X150304666Y-113593571D01*
X150209428Y-113641190D01*
X149828476Y-113641190D01*
X150733238Y-113117380D02*
X150971333Y-114117380D01*
X151161809Y-113403095D01*
X151352285Y-114117380D01*
X151590380Y-113117380D01*
X152542761Y-114117380D02*
X152209428Y-113641190D01*
X151971333Y-114117380D02*
X151971333Y-113117380D01*
X152352285Y-113117380D01*
X152447523Y-113165000D01*
X152495142Y-113212619D01*
X152542761Y-113307857D01*
X152542761Y-113450714D01*
X152495142Y-113545952D01*
X152447523Y-113593571D01*
X152352285Y-113641190D01*
X151971333Y-113641190D01*
X153495142Y-114117380D02*
X152923714Y-114117380D01*
X153209428Y-114117380D02*
X153209428Y-113117380D01*
X153114190Y-113260238D01*
X153018952Y-113355476D01*
X152923714Y-113403095D01*
%TO.C,C1*%
X149947333Y-99544142D02*
X149899714Y-99591761D01*
X149756857Y-99639380D01*
X149661619Y-99639380D01*
X149518761Y-99591761D01*
X149423523Y-99496523D01*
X149375904Y-99401285D01*
X149328285Y-99210809D01*
X149328285Y-99067952D01*
X149375904Y-98877476D01*
X149423523Y-98782238D01*
X149518761Y-98687000D01*
X149661619Y-98639380D01*
X149756857Y-98639380D01*
X149899714Y-98687000D01*
X149947333Y-98734619D01*
X150899714Y-99639380D02*
X150328285Y-99639380D01*
X150614000Y-99639380D02*
X150614000Y-98639380D01*
X150518761Y-98782238D01*
X150423523Y-98877476D01*
X150328285Y-98925095D01*
%TO.C,VIDEO_IN1*%
X114133380Y-106282666D02*
X115133380Y-105949333D01*
X114133380Y-105616000D01*
X115133380Y-105282666D02*
X114133380Y-105282666D01*
X115133380Y-104806476D02*
X114133380Y-104806476D01*
X114133380Y-104568380D01*
X114181000Y-104425523D01*
X114276238Y-104330285D01*
X114371476Y-104282666D01*
X114561952Y-104235047D01*
X114704809Y-104235047D01*
X114895285Y-104282666D01*
X114990523Y-104330285D01*
X115085761Y-104425523D01*
X115133380Y-104568380D01*
X115133380Y-104806476D01*
X114609571Y-103806476D02*
X114609571Y-103473142D01*
X115133380Y-103330285D02*
X115133380Y-103806476D01*
X114133380Y-103806476D01*
X114133380Y-103330285D01*
X114133380Y-102711238D02*
X114133380Y-102520761D01*
X114181000Y-102425523D01*
X114276238Y-102330285D01*
X114466714Y-102282666D01*
X114800047Y-102282666D01*
X114990523Y-102330285D01*
X115085761Y-102425523D01*
X115133380Y-102520761D01*
X115133380Y-102711238D01*
X115085761Y-102806476D01*
X114990523Y-102901714D01*
X114800047Y-102949333D01*
X114466714Y-102949333D01*
X114276238Y-102901714D01*
X114181000Y-102806476D01*
X114133380Y-102711238D01*
X115228619Y-102092190D02*
X115228619Y-101330285D01*
X115133380Y-101092190D02*
X114133380Y-101092190D01*
X115133380Y-100616000D02*
X114133380Y-100616000D01*
X115133380Y-100044571D01*
X114133380Y-100044571D01*
X115133380Y-99044571D02*
X115133380Y-99616000D01*
X115133380Y-99330285D02*
X114133380Y-99330285D01*
X114276238Y-99425523D01*
X114371476Y-99520761D01*
X114419095Y-99616000D01*
%TO.C,J123*%
X137755380Y-117427333D02*
X138469666Y-117427333D01*
X138612523Y-117474952D01*
X138707761Y-117570190D01*
X138755380Y-117713047D01*
X138755380Y-117808285D01*
X138755380Y-116427333D02*
X138755380Y-116998761D01*
X138755380Y-116713047D02*
X137755380Y-116713047D01*
X137898238Y-116808285D01*
X137993476Y-116903523D01*
X138041095Y-116998761D01*
X140295380Y-117427333D02*
X141009666Y-117427333D01*
X141152523Y-117474952D01*
X141247761Y-117570190D01*
X141295380Y-117713047D01*
X141295380Y-117808285D01*
X140390619Y-116998761D02*
X140343000Y-116951142D01*
X140295380Y-116855904D01*
X140295380Y-116617809D01*
X140343000Y-116522571D01*
X140390619Y-116474952D01*
X140485857Y-116427333D01*
X140581095Y-116427333D01*
X140723952Y-116474952D01*
X141295380Y-117046380D01*
X141295380Y-116427333D01*
X142962380Y-117427333D02*
X143676666Y-117427333D01*
X143819523Y-117474952D01*
X143914761Y-117570190D01*
X143962380Y-117713047D01*
X143962380Y-117808285D01*
X142962380Y-117046380D02*
X142962380Y-116427333D01*
X143343333Y-116760666D01*
X143343333Y-116617809D01*
X143390952Y-116522571D01*
X143438571Y-116474952D01*
X143533809Y-116427333D01*
X143771904Y-116427333D01*
X143867142Y-116474952D01*
X143914761Y-116522571D01*
X143962380Y-116617809D01*
X143962380Y-116903523D01*
X143914761Y-116998761D01*
X143867142Y-117046380D01*
%TO.C,R7*%
X136231333Y-94305380D02*
X135898000Y-93829190D01*
X135659904Y-94305380D02*
X135659904Y-93305380D01*
X136040857Y-93305380D01*
X136136095Y-93353000D01*
X136183714Y-93400619D01*
X136231333Y-93495857D01*
X136231333Y-93638714D01*
X136183714Y-93733952D01*
X136136095Y-93781571D01*
X136040857Y-93829190D01*
X135659904Y-93829190D01*
X136564666Y-93305380D02*
X137231333Y-93305380D01*
X136802761Y-94305380D01*
X141314333Y-94305380D02*
X140742904Y-94305380D01*
X141028619Y-94305380D02*
X141028619Y-93305380D01*
X140933380Y-93448238D01*
X140838142Y-93543476D01*
X140742904Y-93591095D01*
X141933380Y-93305380D02*
X142028619Y-93305380D01*
X142123857Y-93353000D01*
X142171476Y-93400619D01*
X142219095Y-93495857D01*
X142266714Y-93686333D01*
X142266714Y-93924428D01*
X142219095Y-94114904D01*
X142171476Y-94210142D01*
X142123857Y-94257761D01*
X142028619Y-94305380D01*
X141933380Y-94305380D01*
X141838142Y-94257761D01*
X141790523Y-94210142D01*
X141742904Y-94114904D01*
X141695285Y-93924428D01*
X141695285Y-93686333D01*
X141742904Y-93495857D01*
X141790523Y-93400619D01*
X141838142Y-93353000D01*
X141933380Y-93305380D01*
X142885761Y-93305380D02*
X142981000Y-93305380D01*
X143076238Y-93353000D01*
X143123857Y-93400619D01*
X143171476Y-93495857D01*
X143219095Y-93686333D01*
X143219095Y-93924428D01*
X143171476Y-94114904D01*
X143123857Y-94210142D01*
X143076238Y-94257761D01*
X142981000Y-94305380D01*
X142885761Y-94305380D01*
X142790523Y-94257761D01*
X142742904Y-94210142D01*
X142695285Y-94114904D01*
X142647666Y-93924428D01*
X142647666Y-93686333D01*
X142695285Y-93495857D01*
X142742904Y-93400619D01*
X142790523Y-93353000D01*
X142885761Y-93305380D01*
%TO.C,J4*%
X147407380Y-94186333D02*
X148121666Y-94186333D01*
X148264523Y-94233952D01*
X148359761Y-94329190D01*
X148407380Y-94472047D01*
X148407380Y-94567285D01*
X147740714Y-93281571D02*
X148407380Y-93281571D01*
X147359761Y-93519666D02*
X148074047Y-93757761D01*
X148074047Y-93138714D01*
%TO.C,U1*%
X129413095Y-96480380D02*
X129413095Y-97289904D01*
X129460714Y-97385142D01*
X129508333Y-97432761D01*
X129603571Y-97480380D01*
X129794047Y-97480380D01*
X129889285Y-97432761D01*
X129936904Y-97385142D01*
X129984523Y-97289904D01*
X129984523Y-96480380D01*
X130984523Y-97480380D02*
X130413095Y-97480380D01*
X130698809Y-97480380D02*
X130698809Y-96480380D01*
X130603571Y-96623238D01*
X130508333Y-96718476D01*
X130413095Y-96766095D01*
X129675000Y-105171571D02*
X129627380Y-105266809D01*
X129627380Y-105409666D01*
X129675000Y-105552523D01*
X129770238Y-105647761D01*
X129865476Y-105695380D01*
X130055952Y-105743000D01*
X130198809Y-105743000D01*
X130389285Y-105695380D01*
X130484523Y-105647761D01*
X130579761Y-105552523D01*
X130627380Y-105409666D01*
X130627380Y-105314428D01*
X130579761Y-105171571D01*
X130532142Y-105123952D01*
X130198809Y-105123952D01*
X130198809Y-105314428D01*
X130341666Y-104743000D02*
X130341666Y-104266809D01*
X130627380Y-104838238D02*
X129627380Y-104504904D01*
X130627380Y-104171571D01*
X130627380Y-103362047D02*
X130627380Y-103838238D01*
X129627380Y-103838238D01*
X130627380Y-102504904D02*
X130627380Y-103076333D01*
X130627380Y-102790619D02*
X129627380Y-102790619D01*
X129770238Y-102885857D01*
X129865476Y-102981095D01*
X129913095Y-103076333D01*
X129627380Y-101647761D02*
X129627380Y-101838238D01*
X129675000Y-101933476D01*
X129722619Y-101981095D01*
X129865476Y-102076333D01*
X130055952Y-102123952D01*
X130436904Y-102123952D01*
X130532142Y-102076333D01*
X130579761Y-102028714D01*
X130627380Y-101933476D01*
X130627380Y-101743000D01*
X130579761Y-101647761D01*
X130532142Y-101600142D01*
X130436904Y-101552523D01*
X130198809Y-101552523D01*
X130103571Y-101600142D01*
X130055952Y-101647761D01*
X130008333Y-101743000D01*
X130008333Y-101933476D01*
X130055952Y-102028714D01*
X130103571Y-102076333D01*
X130198809Y-102123952D01*
X129627380Y-101266809D02*
X130627380Y-100933476D01*
X129627380Y-100600142D01*
X130055952Y-100123952D02*
X130008333Y-100219190D01*
X129960714Y-100266809D01*
X129865476Y-100314428D01*
X129817857Y-100314428D01*
X129722619Y-100266809D01*
X129675000Y-100219190D01*
X129627380Y-100123952D01*
X129627380Y-99933476D01*
X129675000Y-99838238D01*
X129722619Y-99790619D01*
X129817857Y-99743000D01*
X129865476Y-99743000D01*
X129960714Y-99790619D01*
X130008333Y-99838238D01*
X130055952Y-99933476D01*
X130055952Y-100123952D01*
X130103571Y-100219190D01*
X130151190Y-100266809D01*
X130246428Y-100314428D01*
X130436904Y-100314428D01*
X130532142Y-100266809D01*
X130579761Y-100219190D01*
X130627380Y-100123952D01*
X130627380Y-99933476D01*
X130579761Y-99838238D01*
X130532142Y-99790619D01*
X130436904Y-99743000D01*
X130246428Y-99743000D01*
X130151190Y-99790619D01*
X130103571Y-99838238D01*
X130055952Y-99933476D01*
%TO.C,R6*%
X136231333Y-109545380D02*
X135898000Y-109069190D01*
X135659904Y-109545380D02*
X135659904Y-108545380D01*
X136040857Y-108545380D01*
X136136095Y-108593000D01*
X136183714Y-108640619D01*
X136231333Y-108735857D01*
X136231333Y-108878714D01*
X136183714Y-108973952D01*
X136136095Y-109021571D01*
X136040857Y-109069190D01*
X135659904Y-109069190D01*
X137088476Y-108545380D02*
X136898000Y-108545380D01*
X136802761Y-108593000D01*
X136755142Y-108640619D01*
X136659904Y-108783476D01*
X136612285Y-108973952D01*
X136612285Y-109354904D01*
X136659904Y-109450142D01*
X136707523Y-109497761D01*
X136802761Y-109545380D01*
X136993238Y-109545380D01*
X137088476Y-109497761D01*
X137136095Y-109450142D01*
X137183714Y-109354904D01*
X137183714Y-109116809D01*
X137136095Y-109021571D01*
X137088476Y-108973952D01*
X136993238Y-108926333D01*
X136802761Y-108926333D01*
X136707523Y-108973952D01*
X136659904Y-109021571D01*
X136612285Y-109116809D01*
X140700285Y-108545380D02*
X141319333Y-108545380D01*
X140986000Y-108926333D01*
X141128857Y-108926333D01*
X141224095Y-108973952D01*
X141271714Y-109021571D01*
X141319333Y-109116809D01*
X141319333Y-109354904D01*
X141271714Y-109450142D01*
X141224095Y-109497761D01*
X141128857Y-109545380D01*
X140843142Y-109545380D01*
X140747904Y-109497761D01*
X140700285Y-109450142D01*
X141652666Y-108545380D02*
X142271714Y-108545380D01*
X141938380Y-108926333D01*
X142081238Y-108926333D01*
X142176476Y-108973952D01*
X142224095Y-109021571D01*
X142271714Y-109116809D01*
X142271714Y-109354904D01*
X142224095Y-109450142D01*
X142176476Y-109497761D01*
X142081238Y-109545380D01*
X141795523Y-109545380D01*
X141700285Y-109497761D01*
X141652666Y-109450142D01*
X142890761Y-108545380D02*
X142986000Y-108545380D01*
X143081238Y-108593000D01*
X143128857Y-108640619D01*
X143176476Y-108735857D01*
X143224095Y-108926333D01*
X143224095Y-109164428D01*
X143176476Y-109354904D01*
X143128857Y-109450142D01*
X143081238Y-109497761D01*
X142986000Y-109545380D01*
X142890761Y-109545380D01*
X142795523Y-109497761D01*
X142747904Y-109450142D01*
X142700285Y-109354904D01*
X142652666Y-109164428D01*
X142652666Y-108926333D01*
X142700285Y-108735857D01*
X142747904Y-108640619D01*
X142795523Y-108593000D01*
X142890761Y-108545380D01*
%TO.C,R5*%
X136231333Y-104465380D02*
X135898000Y-103989190D01*
X135659904Y-104465380D02*
X135659904Y-103465380D01*
X136040857Y-103465380D01*
X136136095Y-103513000D01*
X136183714Y-103560619D01*
X136231333Y-103655857D01*
X136231333Y-103798714D01*
X136183714Y-103893952D01*
X136136095Y-103941571D01*
X136040857Y-103989190D01*
X135659904Y-103989190D01*
X137136095Y-103465380D02*
X136659904Y-103465380D01*
X136612285Y-103941571D01*
X136659904Y-103893952D01*
X136755142Y-103846333D01*
X136993238Y-103846333D01*
X137088476Y-103893952D01*
X137136095Y-103941571D01*
X137183714Y-104036809D01*
X137183714Y-104274904D01*
X137136095Y-104370142D01*
X137088476Y-104417761D01*
X136993238Y-104465380D01*
X136755142Y-104465380D01*
X136659904Y-104417761D01*
X136612285Y-104370142D01*
X140700285Y-103465380D02*
X141319333Y-103465380D01*
X140986000Y-103846333D01*
X141128857Y-103846333D01*
X141224095Y-103893952D01*
X141271714Y-103941571D01*
X141319333Y-104036809D01*
X141319333Y-104274904D01*
X141271714Y-104370142D01*
X141224095Y-104417761D01*
X141128857Y-104465380D01*
X140843142Y-104465380D01*
X140747904Y-104417761D01*
X140700285Y-104370142D01*
X141652666Y-103465380D02*
X142271714Y-103465380D01*
X141938380Y-103846333D01*
X142081238Y-103846333D01*
X142176476Y-103893952D01*
X142224095Y-103941571D01*
X142271714Y-104036809D01*
X142271714Y-104274904D01*
X142224095Y-104370142D01*
X142176476Y-104417761D01*
X142081238Y-104465380D01*
X141795523Y-104465380D01*
X141700285Y-104417761D01*
X141652666Y-104370142D01*
X142890761Y-103465380D02*
X142986000Y-103465380D01*
X143081238Y-103513000D01*
X143128857Y-103560619D01*
X143176476Y-103655857D01*
X143224095Y-103846333D01*
X143224095Y-104084428D01*
X143176476Y-104274904D01*
X143128857Y-104370142D01*
X143081238Y-104417761D01*
X142986000Y-104465380D01*
X142890761Y-104465380D01*
X142795523Y-104417761D01*
X142747904Y-104370142D01*
X142700285Y-104274904D01*
X142652666Y-104084428D01*
X142652666Y-103846333D01*
X142700285Y-103655857D01*
X142747904Y-103560619D01*
X142795523Y-103513000D01*
X142890761Y-103465380D01*
%TO.C,R4*%
X136231333Y-99385380D02*
X135898000Y-98909190D01*
X135659904Y-99385380D02*
X135659904Y-98385380D01*
X136040857Y-98385380D01*
X136136095Y-98433000D01*
X136183714Y-98480619D01*
X136231333Y-98575857D01*
X136231333Y-98718714D01*
X136183714Y-98813952D01*
X136136095Y-98861571D01*
X136040857Y-98909190D01*
X135659904Y-98909190D01*
X137088476Y-98718714D02*
X137088476Y-99385380D01*
X136850380Y-98337761D02*
X136612285Y-99052047D01*
X137231333Y-99052047D01*
X140700285Y-98385380D02*
X141319333Y-98385380D01*
X140986000Y-98766333D01*
X141128857Y-98766333D01*
X141224095Y-98813952D01*
X141271714Y-98861571D01*
X141319333Y-98956809D01*
X141319333Y-99194904D01*
X141271714Y-99290142D01*
X141224095Y-99337761D01*
X141128857Y-99385380D01*
X140843142Y-99385380D01*
X140747904Y-99337761D01*
X140700285Y-99290142D01*
X141652666Y-98385380D02*
X142271714Y-98385380D01*
X141938380Y-98766333D01*
X142081238Y-98766333D01*
X142176476Y-98813952D01*
X142224095Y-98861571D01*
X142271714Y-98956809D01*
X142271714Y-99194904D01*
X142224095Y-99290142D01*
X142176476Y-99337761D01*
X142081238Y-99385380D01*
X141795523Y-99385380D01*
X141700285Y-99337761D01*
X141652666Y-99290142D01*
X142890761Y-98385380D02*
X142986000Y-98385380D01*
X143081238Y-98433000D01*
X143128857Y-98480619D01*
X143176476Y-98575857D01*
X143224095Y-98766333D01*
X143224095Y-99004428D01*
X143176476Y-99194904D01*
X143128857Y-99290142D01*
X143081238Y-99337761D01*
X142986000Y-99385380D01*
X142890761Y-99385380D01*
X142795523Y-99337761D01*
X142747904Y-99290142D01*
X142700285Y-99194904D01*
X142652666Y-99004428D01*
X142652666Y-98766333D01*
X142700285Y-98575857D01*
X142747904Y-98480619D01*
X142795523Y-98433000D01*
X142890761Y-98385380D01*
%TO.C,R8*%
X136231333Y-91765380D02*
X135898000Y-91289190D01*
X135659904Y-91765380D02*
X135659904Y-90765380D01*
X136040857Y-90765380D01*
X136136095Y-90813000D01*
X136183714Y-90860619D01*
X136231333Y-90955857D01*
X136231333Y-91098714D01*
X136183714Y-91193952D01*
X136136095Y-91241571D01*
X136040857Y-91289190D01*
X135659904Y-91289190D01*
X136802761Y-91193952D02*
X136707523Y-91146333D01*
X136659904Y-91098714D01*
X136612285Y-91003476D01*
X136612285Y-90955857D01*
X136659904Y-90860619D01*
X136707523Y-90813000D01*
X136802761Y-90765380D01*
X136993238Y-90765380D01*
X137088476Y-90813000D01*
X137136095Y-90860619D01*
X137183714Y-90955857D01*
X137183714Y-91003476D01*
X137136095Y-91098714D01*
X137088476Y-91146333D01*
X136993238Y-91193952D01*
X136802761Y-91193952D01*
X136707523Y-91241571D01*
X136659904Y-91289190D01*
X136612285Y-91384428D01*
X136612285Y-91574904D01*
X136659904Y-91670142D01*
X136707523Y-91717761D01*
X136802761Y-91765380D01*
X136993238Y-91765380D01*
X137088476Y-91717761D01*
X137136095Y-91670142D01*
X137183714Y-91574904D01*
X137183714Y-91384428D01*
X137136095Y-91289190D01*
X137088476Y-91241571D01*
X136993238Y-91193952D01*
X141319333Y-91765380D02*
X140747904Y-91765380D01*
X141033619Y-91765380D02*
X141033619Y-90765380D01*
X140938380Y-90908238D01*
X140843142Y-91003476D01*
X140747904Y-91051095D01*
X141938380Y-90765380D02*
X142033619Y-90765380D01*
X142128857Y-90813000D01*
X142176476Y-90860619D01*
X142224095Y-90955857D01*
X142271714Y-91146333D01*
X142271714Y-91384428D01*
X142224095Y-91574904D01*
X142176476Y-91670142D01*
X142128857Y-91717761D01*
X142033619Y-91765380D01*
X141938380Y-91765380D01*
X141843142Y-91717761D01*
X141795523Y-91670142D01*
X141747904Y-91574904D01*
X141700285Y-91384428D01*
X141700285Y-91146333D01*
X141747904Y-90955857D01*
X141795523Y-90860619D01*
X141843142Y-90813000D01*
X141938380Y-90765380D01*
X142890761Y-90765380D02*
X142986000Y-90765380D01*
X143081238Y-90813000D01*
X143128857Y-90860619D01*
X143176476Y-90955857D01*
X143224095Y-91146333D01*
X143224095Y-91384428D01*
X143176476Y-91574904D01*
X143128857Y-91670142D01*
X143081238Y-91717761D01*
X142986000Y-91765380D01*
X142890761Y-91765380D01*
X142795523Y-91717761D01*
X142747904Y-91670142D01*
X142700285Y-91574904D01*
X142652666Y-91384428D01*
X142652666Y-91146333D01*
X142700285Y-90955857D01*
X142747904Y-90860619D01*
X142795523Y-90813000D01*
X142890761Y-90765380D01*
%TO.C,R3*%
X136231333Y-107005380D02*
X135898000Y-106529190D01*
X135659904Y-107005380D02*
X135659904Y-106005380D01*
X136040857Y-106005380D01*
X136136095Y-106053000D01*
X136183714Y-106100619D01*
X136231333Y-106195857D01*
X136231333Y-106338714D01*
X136183714Y-106433952D01*
X136136095Y-106481571D01*
X136040857Y-106529190D01*
X135659904Y-106529190D01*
X136564666Y-106005380D02*
X137183714Y-106005380D01*
X136850380Y-106386333D01*
X136993238Y-106386333D01*
X137088476Y-106433952D01*
X137136095Y-106481571D01*
X137183714Y-106576809D01*
X137183714Y-106814904D01*
X137136095Y-106910142D01*
X137088476Y-106957761D01*
X136993238Y-107005380D01*
X136707523Y-107005380D01*
X136612285Y-106957761D01*
X136564666Y-106910142D01*
X141224095Y-106338714D02*
X141224095Y-107005380D01*
X140986000Y-105957761D02*
X140747904Y-106672047D01*
X141366952Y-106672047D01*
X141652666Y-106005380D02*
X142319333Y-106005380D01*
X141890761Y-107005380D01*
X142890761Y-106005380D02*
X142986000Y-106005380D01*
X143081238Y-106053000D01*
X143128857Y-106100619D01*
X143176476Y-106195857D01*
X143224095Y-106386333D01*
X143224095Y-106624428D01*
X143176476Y-106814904D01*
X143128857Y-106910142D01*
X143081238Y-106957761D01*
X142986000Y-107005380D01*
X142890761Y-107005380D01*
X142795523Y-106957761D01*
X142747904Y-106910142D01*
X142700285Y-106814904D01*
X142652666Y-106624428D01*
X142652666Y-106386333D01*
X142700285Y-106195857D01*
X142747904Y-106100619D01*
X142795523Y-106053000D01*
X142890761Y-106005380D01*
%TO.C,R2*%
X136231333Y-101925380D02*
X135898000Y-101449190D01*
X135659904Y-101925380D02*
X135659904Y-100925380D01*
X136040857Y-100925380D01*
X136136095Y-100973000D01*
X136183714Y-101020619D01*
X136231333Y-101115857D01*
X136231333Y-101258714D01*
X136183714Y-101353952D01*
X136136095Y-101401571D01*
X136040857Y-101449190D01*
X135659904Y-101449190D01*
X136612285Y-101020619D02*
X136659904Y-100973000D01*
X136755142Y-100925380D01*
X136993238Y-100925380D01*
X137088476Y-100973000D01*
X137136095Y-101020619D01*
X137183714Y-101115857D01*
X137183714Y-101211095D01*
X137136095Y-101353952D01*
X136564666Y-101925380D01*
X137183714Y-101925380D01*
X141224095Y-101258714D02*
X141224095Y-101925380D01*
X140986000Y-100877761D02*
X140747904Y-101592047D01*
X141366952Y-101592047D01*
X141652666Y-100925380D02*
X142319333Y-100925380D01*
X141890761Y-101925380D01*
X142890761Y-100925380D02*
X142986000Y-100925380D01*
X143081238Y-100973000D01*
X143128857Y-101020619D01*
X143176476Y-101115857D01*
X143224095Y-101306333D01*
X143224095Y-101544428D01*
X143176476Y-101734904D01*
X143128857Y-101830142D01*
X143081238Y-101877761D01*
X142986000Y-101925380D01*
X142890761Y-101925380D01*
X142795523Y-101877761D01*
X142747904Y-101830142D01*
X142700285Y-101734904D01*
X142652666Y-101544428D01*
X142652666Y-101306333D01*
X142700285Y-101115857D01*
X142747904Y-101020619D01*
X142795523Y-100973000D01*
X142890761Y-100925380D01*
%TO.C,R1*%
X136231333Y-96845380D02*
X135898000Y-96369190D01*
X135659904Y-96845380D02*
X135659904Y-95845380D01*
X136040857Y-95845380D01*
X136136095Y-95893000D01*
X136183714Y-95940619D01*
X136231333Y-96035857D01*
X136231333Y-96178714D01*
X136183714Y-96273952D01*
X136136095Y-96321571D01*
X136040857Y-96369190D01*
X135659904Y-96369190D01*
X137183714Y-96845380D02*
X136612285Y-96845380D01*
X136898000Y-96845380D02*
X136898000Y-95845380D01*
X136802761Y-95988238D01*
X136707523Y-96083476D01*
X136612285Y-96131095D01*
X141224095Y-96178714D02*
X141224095Y-96845380D01*
X140986000Y-95797761D02*
X140747904Y-96512047D01*
X141366952Y-96512047D01*
X141652666Y-95845380D02*
X142319333Y-95845380D01*
X141890761Y-96845380D01*
X142890761Y-95845380D02*
X142986000Y-95845380D01*
X143081238Y-95893000D01*
X143128857Y-95940619D01*
X143176476Y-96035857D01*
X143224095Y-96226333D01*
X143224095Y-96464428D01*
X143176476Y-96654904D01*
X143128857Y-96750142D01*
X143081238Y-96797761D01*
X142986000Y-96845380D01*
X142890761Y-96845380D01*
X142795523Y-96797761D01*
X142747904Y-96750142D01*
X142700285Y-96654904D01*
X142652666Y-96464428D01*
X142652666Y-96226333D01*
X142700285Y-96035857D01*
X142747904Y-95940619D01*
X142795523Y-95893000D01*
X142890761Y-95845380D01*
%TO.C,H1*%
X158877095Y-91638380D02*
X158877095Y-90638380D01*
X158877095Y-91114571D02*
X159448523Y-91114571D01*
X159448523Y-91638380D02*
X159448523Y-90638380D01*
X160448523Y-91638380D02*
X159877095Y-91638380D01*
X160162809Y-91638380D02*
X160162809Y-90638380D01*
X160067571Y-90781238D01*
X159972333Y-90876476D01*
X159877095Y-90924095D01*
%TD*%
M02*
