M48
; DRILL file {KiCad 5.1.7} date Mon Nov 23 14:09:23 2020
; FORMAT={-:-/ absolute / metric / decimal}
; #@! TF.CreationDate,2020-11-23T14:09:23+01:00
; #@! TF.GenerationSoftware,Kicad,Pcbnew,5.1.7
; #@! TF.FileFunction,Plated,1,2,PTH
FMAT,2
METRIC
T1C0.400
T2C0.700
T3C0.750
T4C0.800
T5C1.000
T6C3.200
%
G90
G05
T1
X128.575Y-92.075
X129.375Y-90.875
X130.175Y-92.075
X130.975Y-90.875
X131.775Y-92.075
T2
X138.43Y-97.79
X146.05Y-97.79
X138.43Y-113.03
X146.05Y-113.03
X138.43Y-100.33
X146.05Y-100.33
X138.43Y-107.95
X146.05Y-107.95
X138.43Y-95.25
X146.05Y-95.25
X138.43Y-102.87
X146.05Y-102.87
X138.43Y-105.41
X146.05Y-105.41
X138.43Y-110.49
X146.05Y-110.49
T3
X141.605Y-90.17
X151.765Y-90.17
T4
X154.94Y-90.17
X157.44Y-90.17
X126.365Y-95.25
X126.365Y-97.79
X126.365Y-100.33
X126.365Y-102.87
X126.365Y-105.41
X126.365Y-107.95
X126.365Y-110.49
X126.365Y-113.03
X126.365Y-115.57
X126.365Y-118.11
X133.985Y-95.25
X133.985Y-97.79
X133.985Y-100.33
X133.985Y-102.87
X133.985Y-105.41
X133.985Y-107.95
X133.985Y-110.49
X133.985Y-113.03
X133.985Y-115.57
X133.985Y-118.11
T5
X157.48Y-95.885
X157.48Y-98.425
X157.48Y-100.965
X157.48Y-103.505
X157.48Y-106.045
X157.48Y-108.585
X138.43Y-88.265
X138.43Y-90.805
X162.56Y-97.79
X162.56Y-100.08
X162.56Y-102.37
X162.56Y-104.66
X162.56Y-106.95
X164.54Y-96.645
X164.54Y-98.935
X164.54Y-101.225
X164.54Y-103.515
X164.54Y-105.805
X166.52Y-97.79
X166.52Y-100.08
X166.52Y-102.37
X166.52Y-104.66
X166.52Y-106.95
X150.495Y-95.885
X150.495Y-98.425
X150.495Y-100.965
X149.86Y-113.03
X149.86Y-115.57
X149.86Y-118.11
X152.4Y-113.03
X152.4Y-115.57
X152.4Y-118.11
X118.445Y-98.255
X118.445Y-101.025
X118.445Y-103.795
X118.445Y-106.565
X121.285Y-96.87
X121.285Y-99.64
X121.285Y-102.41
X121.285Y-105.18
X121.285Y-107.95
T6
X163.98Y-89.605
X163.98Y-114.605
X119.865Y-89.91
X119.865Y-114.91
T4
G00X126.475Y-86.975
M15
G01X126.475Y-85.875
M16
G05
G00X126.475Y-91.725
M15
G01X126.475Y-90.625
M16
G05
G00X133.875Y-86.975
M15
G01X133.875Y-85.875
M16
G05
G00X133.875Y-91.725
M15
G01X133.875Y-90.625
M16
G05
T0
M30
