%TF.GenerationSoftware,KiCad,Pcbnew,5.1.8*%
%TF.CreationDate,2020-12-08T11:42:19+01:00*%
%TF.ProjectId,mce-adapter,6d63652d-6164-4617-9074-65722e6b6963,0.7.1*%
%TF.SameCoordinates,Original*%
%TF.FileFunction,Copper,L2,Bot*%
%TF.FilePolarity,Positive*%
%FSLAX46Y46*%
G04 Gerber Fmt 4.6, Leading zero omitted, Abs format (unit mm)*
G04 Created by KiCad (PCBNEW 5.1.8) date 2020-12-08 11:42:19*
%MOMM*%
%LPD*%
G01*
G04 APERTURE LIST*
%TA.AperFunction,ComponentPad*%
%ADD10O,1.500000X1.500000*%
%TD*%
%TA.AperFunction,ComponentPad*%
%ADD11R,1.500000X1.500000*%
%TD*%
%TA.AperFunction,ComponentPad*%
%ADD12C,4.000000*%
%TD*%
%TA.AperFunction,ComponentPad*%
%ADD13C,1.600000*%
%TD*%
%TA.AperFunction,ComponentPad*%
%ADD14R,1.600000X1.600000*%
%TD*%
%TA.AperFunction,ComponentPad*%
%ADD15O,1.700000X1.700000*%
%TD*%
%TA.AperFunction,ComponentPad*%
%ADD16R,1.700000X1.700000*%
%TD*%
%TA.AperFunction,ComponentPad*%
%ADD17O,1.400000X2.500000*%
%TD*%
%TA.AperFunction,ComponentPad*%
%ADD18C,1.100000*%
%TD*%
%TA.AperFunction,ComponentPad*%
%ADD19O,1.400000X1.400000*%
%TD*%
%TA.AperFunction,ComponentPad*%
%ADD20C,1.400000*%
%TD*%
%TA.AperFunction,ComponentPad*%
%ADD21O,1.600000X1.600000*%
%TD*%
%TA.AperFunction,Conductor*%
%ADD22C,0.450000*%
%TD*%
%TA.AperFunction,Conductor*%
%ADD23C,0.254000*%
%TD*%
%TA.AperFunction,Conductor*%
%ADD24C,0.100000*%
%TD*%
G04 APERTURE END LIST*
D10*
%TO.P,D1,2*%
%TO.N,Net-(D1-Pad2)*%
X156591000Y-107188000D03*
D11*
%TO.P,D1,1*%
%TO.N,Net-(C1-Pad1)*%
X148971000Y-107188000D03*
%TD*%
D12*
%TO.P,VIDEO_OUT1,0*%
%TO.N,GND*%
X164361000Y-90113000D03*
X164361000Y-115113000D03*
D13*
%TO.P,VIDEO_OUT1,15*%
%TO.N,N/C*%
X166901000Y-107458000D03*
%TO.P,VIDEO_OUT1,14*%
%TO.N,V_IN*%
X166901000Y-105168000D03*
%TO.P,VIDEO_OUT1,13*%
%TO.N,H_OUT*%
X166901000Y-102878000D03*
%TO.P,VIDEO_OUT1,12*%
%TO.N,N/C*%
X166901000Y-100588000D03*
%TO.P,VIDEO_OUT1,11*%
X166901000Y-98298000D03*
%TO.P,VIDEO_OUT1,10*%
%TO.N,GND*%
X164921000Y-106313000D03*
%TO.P,VIDEO_OUT1,9*%
%TO.N,N/C*%
X164921000Y-104023000D03*
%TO.P,VIDEO_OUT1,8*%
%TO.N,GND*%
X164921000Y-101733000D03*
%TO.P,VIDEO_OUT1,7*%
X164921000Y-99443000D03*
%TO.P,VIDEO_OUT1,6*%
X164921000Y-97153000D03*
%TO.P,VIDEO_OUT1,5*%
X162941000Y-107458000D03*
%TO.P,VIDEO_OUT1,4*%
%TO.N,N/C*%
X162941000Y-105168000D03*
%TO.P,VIDEO_OUT1,3*%
%TO.N,B_OUT*%
X162941000Y-102878000D03*
%TO.P,VIDEO_OUT1,2*%
%TO.N,G_OUT*%
X162941000Y-100588000D03*
D14*
%TO.P,VIDEO_OUT1,1*%
%TO.N,R_OUT*%
X162941000Y-98298000D03*
%TD*%
D15*
%TO.P,PWR2,2*%
%TO.N,GND*%
X158115000Y-114300000D03*
D16*
%TO.P,PWR2,1*%
%TO.N,Net-(D1-Pad2)*%
X158115000Y-111760000D03*
%TD*%
D17*
%TO.P,PWR1,6*%
%TO.N,GND*%
X155211000Y-115632000D03*
X147811000Y-115632000D03*
X147811000Y-110882000D03*
X155211000Y-110882000D03*
D18*
%TO.P,PWR1,4*%
%TO.N,N/C*%
X152311000Y-111182000D03*
%TO.P,PWR1,2*%
X150711000Y-111182000D03*
%TO.P,PWR1,1*%
%TO.N,Net-(D1-Pad2)*%
X149911000Y-109982000D03*
%TO.P,PWR1,5*%
%TO.N,GND*%
X153111000Y-109982000D03*
%TO.P,PWR1,3*%
%TO.N,N/C*%
X151511000Y-109982000D03*
%TD*%
D13*
%TO.P,C1,2*%
%TO.N,GND*%
X151344000Y-102870000D03*
D14*
%TO.P,C1,1*%
%TO.N,Net-(C1-Pad1)*%
X148844000Y-102870000D03*
%TD*%
D12*
%TO.P,VIDEO_IN1,0*%
%TO.N,GND*%
X120246000Y-115164000D03*
X120246000Y-90164000D03*
D13*
%TO.P,VIDEO_IN1,9*%
%TO.N,V_IN*%
X118826000Y-98509000D03*
%TO.P,VIDEO_IN1,8*%
%TO.N,H_IN*%
X118826000Y-101279000D03*
%TO.P,VIDEO_IN1,7*%
%TO.N,IB_IN*%
X118826000Y-104049000D03*
%TO.P,VIDEO_IN1,6*%
%TO.N,IG_IN*%
X118826000Y-106819000D03*
%TO.P,VIDEO_IN1,5*%
%TO.N,B_IN*%
X121666000Y-97124000D03*
%TO.P,VIDEO_IN1,4*%
%TO.N,G_IN*%
X121666000Y-99894000D03*
%TO.P,VIDEO_IN1,3*%
%TO.N,R_IN*%
X121666000Y-102664000D03*
%TO.P,VIDEO_IN1,2*%
%TO.N,IR_IN*%
X121666000Y-105434000D03*
D14*
%TO.P,VIDEO_IN1,1*%
%TO.N,GND*%
X121666000Y-108204000D03*
%TD*%
D15*
%TO.P,J123,6*%
%TO.N,GND*%
X143383000Y-112141000D03*
%TO.P,J123,5*%
%TO.N,SW3_IN*%
X143383000Y-114681000D03*
%TO.P,J123,4*%
%TO.N,GND*%
X140843000Y-112141000D03*
%TO.P,J123,3*%
%TO.N,SW2_IN*%
X140843000Y-114681000D03*
%TO.P,J123,2*%
%TO.N,GND*%
X138303000Y-112141000D03*
D16*
%TO.P,J123,1*%
%TO.N,SW1_IN*%
X138303000Y-114681000D03*
%TD*%
D19*
%TO.P,R7,2*%
%TO.N,Net-(R7-Pad2)*%
X138176000Y-93853000D03*
D20*
%TO.P,R7,1*%
%TO.N,S_OUT*%
X145796000Y-93853000D03*
%TD*%
D15*
%TO.P,J4,3*%
%TO.N,H_IN*%
X148971000Y-96393000D03*
%TO.P,J4,2*%
%TO.N,H_OUT*%
X148971000Y-93853000D03*
D16*
%TO.P,J4,1*%
%TO.N,S_OUT*%
X148971000Y-91313000D03*
%TD*%
D21*
%TO.P,U1,20*%
%TO.N,Net-(C1-Pad1)*%
X133985000Y-91313000D03*
%TO.P,U1,10*%
%TO.N,GND*%
X126365000Y-114173000D03*
%TO.P,U1,19*%
%TO.N,Net-(R7-Pad2)*%
X133985000Y-93853000D03*
%TO.P,U1,9*%
%TO.N,SW3_IN*%
X126365000Y-111633000D03*
%TO.P,U1,18*%
%TO.N,Net-(R1-Pad2)*%
X133985000Y-96393000D03*
%TO.P,U1,8*%
%TO.N,IG_IN*%
X126365000Y-109093000D03*
%TO.P,U1,17*%
%TO.N,Net-(R4-Pad2)*%
X133985000Y-98933000D03*
%TO.P,U1,7*%
%TO.N,IR_IN*%
X126365000Y-106553000D03*
%TO.P,U1,16*%
%TO.N,Net-(R2-Pad2)*%
X133985000Y-101473000D03*
%TO.P,U1,6*%
%TO.N,IB_IN*%
X126365000Y-104013000D03*
%TO.P,U1,15*%
%TO.N,Net-(R5-Pad2)*%
X133985000Y-104013000D03*
%TO.P,U1,5*%
%TO.N,R_IN*%
X126365000Y-101473000D03*
%TO.P,U1,14*%
%TO.N,Net-(R3-Pad2)*%
X133985000Y-106553000D03*
%TO.P,U1,4*%
%TO.N,H_IN*%
X126365000Y-98933000D03*
%TO.P,U1,13*%
%TO.N,Net-(R6-Pad2)*%
X133985000Y-109093000D03*
%TO.P,U1,3*%
%TO.N,G_IN*%
X126365000Y-96393000D03*
%TO.P,U1,12*%
%TO.N,SW1_IN*%
X133985000Y-111633000D03*
%TO.P,U1,2*%
%TO.N,V_IN*%
X126365000Y-93853000D03*
%TO.P,U1,11*%
%TO.N,SW2_IN*%
X133985000Y-114173000D03*
D14*
%TO.P,U1,1*%
%TO.N,B_IN*%
X126365000Y-91313000D03*
%TD*%
D19*
%TO.P,R6,2*%
%TO.N,Net-(R6-Pad2)*%
X138176000Y-109093000D03*
D20*
%TO.P,R6,1*%
%TO.N,B_OUT*%
X145796000Y-109093000D03*
%TD*%
D19*
%TO.P,R5,2*%
%TO.N,Net-(R5-Pad2)*%
X138176000Y-104013000D03*
D20*
%TO.P,R5,1*%
%TO.N,G_OUT*%
X145796000Y-104013000D03*
%TD*%
D19*
%TO.P,R4,2*%
%TO.N,Net-(R4-Pad2)*%
X138176000Y-98933000D03*
D20*
%TO.P,R4,1*%
%TO.N,R_OUT*%
X145796000Y-98933000D03*
%TD*%
D19*
%TO.P,R8,2*%
%TO.N,GND*%
X138176000Y-91313000D03*
D20*
%TO.P,R8,1*%
%TO.N,S_OUT*%
X145796000Y-91313000D03*
%TD*%
D19*
%TO.P,R3,2*%
%TO.N,Net-(R3-Pad2)*%
X138176000Y-106553000D03*
D20*
%TO.P,R3,1*%
%TO.N,B_OUT*%
X145796000Y-106553000D03*
%TD*%
D19*
%TO.P,R2,2*%
%TO.N,Net-(R2-Pad2)*%
X138176000Y-101473000D03*
D20*
%TO.P,R2,1*%
%TO.N,G_OUT*%
X145796000Y-101473000D03*
%TD*%
D19*
%TO.P,R1,2*%
%TO.N,Net-(R1-Pad2)*%
X138176000Y-96393000D03*
D20*
%TO.P,R1,1*%
%TO.N,R_OUT*%
X145796000Y-96393000D03*
%TD*%
D15*
%TO.P,H1,6*%
%TO.N,GND*%
X158115000Y-104013000D03*
%TO.P,H1,5*%
%TO.N,B_OUT*%
X158115000Y-101473000D03*
%TO.P,H1,4*%
%TO.N,G_OUT*%
X158115000Y-98933000D03*
%TO.P,H1,3*%
%TO.N,R_OUT*%
X158115000Y-96393000D03*
%TO.P,H1,2*%
%TO.N,H_OUT*%
X158115000Y-93853000D03*
D16*
%TO.P,H1,1*%
%TO.N,V_IN*%
X158115000Y-91313000D03*
%TD*%
D22*
%TO.N,GND*%
X163649000Y-107458000D02*
X164794000Y-106313000D01*
X162814000Y-107458000D02*
X163649000Y-107458000D01*
X164921000Y-97153000D02*
X164921000Y-101733000D01*
%TO.N,Net-(D1-Pad2)*%
X156591000Y-107188000D02*
X158242000Y-108839000D01*
X158242000Y-111633000D02*
X158115000Y-111760000D01*
X158242000Y-108839000D02*
X158242000Y-111633000D01*
X152705000Y-107188000D02*
X149911000Y-109982000D01*
X156591000Y-107188000D02*
X152705000Y-107188000D01*
%TO.N,Net-(C1-Pad1)*%
X141859000Y-95250000D02*
X139192000Y-92583000D01*
X139192000Y-92583000D02*
X135255000Y-92583000D01*
X141859000Y-100584000D02*
X141859000Y-95250000D01*
X135255000Y-92583000D02*
X133985000Y-91313000D01*
X148717000Y-102743000D02*
X144018000Y-102743000D01*
X144018000Y-102743000D02*
X141859000Y-100584000D01*
X148971000Y-102997000D02*
X148717000Y-102743000D01*
X148971000Y-107188000D02*
X148971000Y-102997000D01*
%TD*%
D23*
%TO.N,GND*%
X174550001Y-117654000D02*
X165064030Y-117654000D01*
X165395526Y-117550279D01*
X165812772Y-117327258D01*
X166028894Y-116960499D01*
X164361000Y-115292605D01*
X162693106Y-116960499D01*
X162909228Y-117327258D01*
X163369105Y-117567938D01*
X163661979Y-117654000D01*
X121112028Y-117654000D01*
X121280526Y-117601279D01*
X121697772Y-117378258D01*
X121913894Y-117011499D01*
X120246000Y-115343605D01*
X118578106Y-117011499D01*
X118794228Y-117378258D01*
X119254105Y-117618938D01*
X119373423Y-117654000D01*
X111454000Y-117654000D01*
X111454000Y-115187071D01*
X117598352Y-115187071D01*
X117653727Y-115703159D01*
X117808721Y-116198526D01*
X118031742Y-116615772D01*
X118398501Y-116831894D01*
X120066395Y-115164000D01*
X120425605Y-115164000D01*
X122093499Y-116831894D01*
X122460258Y-116615772D01*
X122700938Y-116155895D01*
X122847275Y-115657902D01*
X122893648Y-115140929D01*
X122838273Y-114624841D01*
X122806108Y-114522039D01*
X124973096Y-114522039D01*
X125013754Y-114656087D01*
X125133963Y-114910420D01*
X125301481Y-115136414D01*
X125509869Y-115325385D01*
X125751119Y-115470070D01*
X126015960Y-115564909D01*
X126238000Y-115443624D01*
X126238000Y-114300000D01*
X126492000Y-114300000D01*
X126492000Y-115443624D01*
X126714040Y-115564909D01*
X126978881Y-115470070D01*
X127220131Y-115325385D01*
X127428519Y-115136414D01*
X127596037Y-114910420D01*
X127716246Y-114656087D01*
X127756904Y-114522039D01*
X127634915Y-114300000D01*
X126492000Y-114300000D01*
X126238000Y-114300000D01*
X125095085Y-114300000D01*
X124973096Y-114522039D01*
X122806108Y-114522039D01*
X122683279Y-114129474D01*
X122460258Y-113712228D01*
X122093499Y-113496106D01*
X120425605Y-115164000D01*
X120066395Y-115164000D01*
X118398501Y-113496106D01*
X118031742Y-113712228D01*
X117791062Y-114172105D01*
X117644725Y-114670098D01*
X117598352Y-115187071D01*
X111454000Y-115187071D01*
X111454000Y-113316501D01*
X118578106Y-113316501D01*
X120246000Y-114984395D01*
X121913894Y-113316501D01*
X121697772Y-112949742D01*
X121237895Y-112709062D01*
X120739902Y-112562725D01*
X120222929Y-112516352D01*
X119706841Y-112571727D01*
X119211474Y-112726721D01*
X118794228Y-112949742D01*
X118578106Y-113316501D01*
X111454000Y-113316501D01*
X111454000Y-109004000D01*
X120227928Y-109004000D01*
X120240188Y-109128482D01*
X120276498Y-109248180D01*
X120335463Y-109358494D01*
X120414815Y-109455185D01*
X120511506Y-109534537D01*
X120621820Y-109593502D01*
X120741518Y-109629812D01*
X120866000Y-109642072D01*
X121380250Y-109639000D01*
X121539000Y-109480250D01*
X121539000Y-108331000D01*
X121793000Y-108331000D01*
X121793000Y-109480250D01*
X121951750Y-109639000D01*
X122466000Y-109642072D01*
X122590482Y-109629812D01*
X122710180Y-109593502D01*
X122820494Y-109534537D01*
X122917185Y-109455185D01*
X122996537Y-109358494D01*
X123055502Y-109248180D01*
X123091812Y-109128482D01*
X123104072Y-109004000D01*
X123101000Y-108489750D01*
X122942250Y-108331000D01*
X121793000Y-108331000D01*
X121539000Y-108331000D01*
X120389750Y-108331000D01*
X120231000Y-108489750D01*
X120227928Y-109004000D01*
X111454000Y-109004000D01*
X111454000Y-98367665D01*
X117391000Y-98367665D01*
X117391000Y-98650335D01*
X117446147Y-98927574D01*
X117554320Y-99188727D01*
X117711363Y-99423759D01*
X117911241Y-99623637D01*
X118146273Y-99780680D01*
X118407426Y-99888853D01*
X118433301Y-99894000D01*
X118407426Y-99899147D01*
X118146273Y-100007320D01*
X117911241Y-100164363D01*
X117711363Y-100364241D01*
X117554320Y-100599273D01*
X117446147Y-100860426D01*
X117391000Y-101137665D01*
X117391000Y-101420335D01*
X117446147Y-101697574D01*
X117554320Y-101958727D01*
X117711363Y-102193759D01*
X117911241Y-102393637D01*
X118146273Y-102550680D01*
X118407426Y-102658853D01*
X118433301Y-102664000D01*
X118407426Y-102669147D01*
X118146273Y-102777320D01*
X117911241Y-102934363D01*
X117711363Y-103134241D01*
X117554320Y-103369273D01*
X117446147Y-103630426D01*
X117391000Y-103907665D01*
X117391000Y-104190335D01*
X117446147Y-104467574D01*
X117554320Y-104728727D01*
X117711363Y-104963759D01*
X117911241Y-105163637D01*
X118146273Y-105320680D01*
X118407426Y-105428853D01*
X118433301Y-105434000D01*
X118407426Y-105439147D01*
X118146273Y-105547320D01*
X117911241Y-105704363D01*
X117711363Y-105904241D01*
X117554320Y-106139273D01*
X117446147Y-106400426D01*
X117391000Y-106677665D01*
X117391000Y-106960335D01*
X117446147Y-107237574D01*
X117554320Y-107498727D01*
X117711363Y-107733759D01*
X117911241Y-107933637D01*
X118146273Y-108090680D01*
X118407426Y-108198853D01*
X118684665Y-108254000D01*
X118967335Y-108254000D01*
X119244574Y-108198853D01*
X119505727Y-108090680D01*
X119740759Y-107933637D01*
X119940637Y-107733759D01*
X120097680Y-107498727D01*
X120136917Y-107404000D01*
X120227928Y-107404000D01*
X120231000Y-107918250D01*
X120389750Y-108077000D01*
X121539000Y-108077000D01*
X121539000Y-108057000D01*
X121793000Y-108057000D01*
X121793000Y-108077000D01*
X122942250Y-108077000D01*
X123101000Y-107918250D01*
X123104072Y-107404000D01*
X123091812Y-107279518D01*
X123055502Y-107159820D01*
X122996537Y-107049506D01*
X122917185Y-106952815D01*
X122820494Y-106873463D01*
X122710180Y-106814498D01*
X122590482Y-106778188D01*
X122466000Y-106765928D01*
X122196387Y-106767539D01*
X122345727Y-106705680D01*
X122580759Y-106548637D01*
X122780637Y-106348759D01*
X122937680Y-106113727D01*
X123045853Y-105852574D01*
X123101000Y-105575335D01*
X123101000Y-105292665D01*
X123045853Y-105015426D01*
X122937680Y-104754273D01*
X122780637Y-104519241D01*
X122580759Y-104319363D01*
X122345727Y-104162320D01*
X122084574Y-104054147D01*
X122058699Y-104049000D01*
X122084574Y-104043853D01*
X122345727Y-103935680D01*
X122580759Y-103778637D01*
X122780637Y-103578759D01*
X122937680Y-103343727D01*
X123045853Y-103082574D01*
X123101000Y-102805335D01*
X123101000Y-102522665D01*
X123045853Y-102245426D01*
X122937680Y-101984273D01*
X122780637Y-101749241D01*
X122580759Y-101549363D01*
X122345727Y-101392320D01*
X122084574Y-101284147D01*
X122058699Y-101279000D01*
X122084574Y-101273853D01*
X122345727Y-101165680D01*
X122580759Y-101008637D01*
X122780637Y-100808759D01*
X122937680Y-100573727D01*
X123045853Y-100312574D01*
X123101000Y-100035335D01*
X123101000Y-99752665D01*
X123045853Y-99475426D01*
X122937680Y-99214273D01*
X122780637Y-98979241D01*
X122580759Y-98779363D01*
X122345727Y-98622320D01*
X122084574Y-98514147D01*
X122058699Y-98509000D01*
X122084574Y-98503853D01*
X122345727Y-98395680D01*
X122580759Y-98238637D01*
X122780637Y-98038759D01*
X122937680Y-97803727D01*
X123045853Y-97542574D01*
X123101000Y-97265335D01*
X123101000Y-96982665D01*
X123045853Y-96705426D01*
X122937680Y-96444273D01*
X122780637Y-96209241D01*
X122580759Y-96009363D01*
X122345727Y-95852320D01*
X122084574Y-95744147D01*
X121807335Y-95689000D01*
X121524665Y-95689000D01*
X121247426Y-95744147D01*
X120986273Y-95852320D01*
X120751241Y-96009363D01*
X120551363Y-96209241D01*
X120394320Y-96444273D01*
X120286147Y-96705426D01*
X120231000Y-96982665D01*
X120231000Y-97265335D01*
X120286147Y-97542574D01*
X120394320Y-97803727D01*
X120551363Y-98038759D01*
X120751241Y-98238637D01*
X120986273Y-98395680D01*
X121247426Y-98503853D01*
X121273301Y-98509000D01*
X121247426Y-98514147D01*
X120986273Y-98622320D01*
X120751241Y-98779363D01*
X120551363Y-98979241D01*
X120394320Y-99214273D01*
X120286147Y-99475426D01*
X120231000Y-99752665D01*
X120231000Y-100035335D01*
X120286147Y-100312574D01*
X120394320Y-100573727D01*
X120551363Y-100808759D01*
X120751241Y-101008637D01*
X120986273Y-101165680D01*
X121247426Y-101273853D01*
X121273301Y-101279000D01*
X121247426Y-101284147D01*
X120986273Y-101392320D01*
X120751241Y-101549363D01*
X120551363Y-101749241D01*
X120394320Y-101984273D01*
X120286147Y-102245426D01*
X120231000Y-102522665D01*
X120231000Y-102805335D01*
X120286147Y-103082574D01*
X120394320Y-103343727D01*
X120551363Y-103578759D01*
X120751241Y-103778637D01*
X120986273Y-103935680D01*
X121247426Y-104043853D01*
X121273301Y-104049000D01*
X121247426Y-104054147D01*
X120986273Y-104162320D01*
X120751241Y-104319363D01*
X120551363Y-104519241D01*
X120394320Y-104754273D01*
X120286147Y-105015426D01*
X120231000Y-105292665D01*
X120231000Y-105575335D01*
X120286147Y-105852574D01*
X120394320Y-106113727D01*
X120551363Y-106348759D01*
X120751241Y-106548637D01*
X120986273Y-106705680D01*
X121135613Y-106767539D01*
X120866000Y-106765928D01*
X120741518Y-106778188D01*
X120621820Y-106814498D01*
X120511506Y-106873463D01*
X120414815Y-106952815D01*
X120335463Y-107049506D01*
X120276498Y-107159820D01*
X120240188Y-107279518D01*
X120227928Y-107404000D01*
X120136917Y-107404000D01*
X120205853Y-107237574D01*
X120261000Y-106960335D01*
X120261000Y-106677665D01*
X120205853Y-106400426D01*
X120097680Y-106139273D01*
X119940637Y-105904241D01*
X119740759Y-105704363D01*
X119505727Y-105547320D01*
X119244574Y-105439147D01*
X119218699Y-105434000D01*
X119244574Y-105428853D01*
X119505727Y-105320680D01*
X119740759Y-105163637D01*
X119940637Y-104963759D01*
X120097680Y-104728727D01*
X120205853Y-104467574D01*
X120261000Y-104190335D01*
X120261000Y-103907665D01*
X120205853Y-103630426D01*
X120097680Y-103369273D01*
X119940637Y-103134241D01*
X119740759Y-102934363D01*
X119505727Y-102777320D01*
X119244574Y-102669147D01*
X119218699Y-102664000D01*
X119244574Y-102658853D01*
X119505727Y-102550680D01*
X119740759Y-102393637D01*
X119940637Y-102193759D01*
X120097680Y-101958727D01*
X120205853Y-101697574D01*
X120261000Y-101420335D01*
X120261000Y-101137665D01*
X120205853Y-100860426D01*
X120097680Y-100599273D01*
X119940637Y-100364241D01*
X119740759Y-100164363D01*
X119505727Y-100007320D01*
X119244574Y-99899147D01*
X119218699Y-99894000D01*
X119244574Y-99888853D01*
X119505727Y-99780680D01*
X119740759Y-99623637D01*
X119940637Y-99423759D01*
X120097680Y-99188727D01*
X120205853Y-98927574D01*
X120261000Y-98650335D01*
X120261000Y-98367665D01*
X120205853Y-98090426D01*
X120097680Y-97829273D01*
X119940637Y-97594241D01*
X119740759Y-97394363D01*
X119505727Y-97237320D01*
X119244574Y-97129147D01*
X118967335Y-97074000D01*
X118684665Y-97074000D01*
X118407426Y-97129147D01*
X118146273Y-97237320D01*
X117911241Y-97394363D01*
X117711363Y-97594241D01*
X117554320Y-97829273D01*
X117446147Y-98090426D01*
X117391000Y-98367665D01*
X111454000Y-98367665D01*
X111454000Y-92011499D01*
X118578106Y-92011499D01*
X118794228Y-92378258D01*
X119254105Y-92618938D01*
X119752098Y-92765275D01*
X120269071Y-92811648D01*
X120785159Y-92756273D01*
X121280526Y-92601279D01*
X121697772Y-92378258D01*
X121913894Y-92011499D01*
X120246000Y-90343605D01*
X118578106Y-92011499D01*
X111454000Y-92011499D01*
X111454000Y-90187071D01*
X117598352Y-90187071D01*
X117653727Y-90703159D01*
X117808721Y-91198526D01*
X118031742Y-91615772D01*
X118398501Y-91831894D01*
X120066395Y-90164000D01*
X120425605Y-90164000D01*
X122093499Y-91831894D01*
X122460258Y-91615772D01*
X122700938Y-91155895D01*
X122847275Y-90657902D01*
X122860272Y-90513000D01*
X124926928Y-90513000D01*
X124926928Y-92113000D01*
X124939188Y-92237482D01*
X124975498Y-92357180D01*
X125034463Y-92467494D01*
X125113815Y-92564185D01*
X125210506Y-92643537D01*
X125320820Y-92702502D01*
X125440518Y-92738812D01*
X125448961Y-92739643D01*
X125250363Y-92938241D01*
X125093320Y-93173273D01*
X124985147Y-93434426D01*
X124930000Y-93711665D01*
X124930000Y-93994335D01*
X124985147Y-94271574D01*
X125093320Y-94532727D01*
X125250363Y-94767759D01*
X125450241Y-94967637D01*
X125682759Y-95123000D01*
X125450241Y-95278363D01*
X125250363Y-95478241D01*
X125093320Y-95713273D01*
X124985147Y-95974426D01*
X124930000Y-96251665D01*
X124930000Y-96534335D01*
X124985147Y-96811574D01*
X125093320Y-97072727D01*
X125250363Y-97307759D01*
X125450241Y-97507637D01*
X125682759Y-97663000D01*
X125450241Y-97818363D01*
X125250363Y-98018241D01*
X125093320Y-98253273D01*
X124985147Y-98514426D01*
X124930000Y-98791665D01*
X124930000Y-99074335D01*
X124985147Y-99351574D01*
X125093320Y-99612727D01*
X125250363Y-99847759D01*
X125450241Y-100047637D01*
X125682759Y-100203000D01*
X125450241Y-100358363D01*
X125250363Y-100558241D01*
X125093320Y-100793273D01*
X124985147Y-101054426D01*
X124930000Y-101331665D01*
X124930000Y-101614335D01*
X124985147Y-101891574D01*
X125093320Y-102152727D01*
X125250363Y-102387759D01*
X125450241Y-102587637D01*
X125682759Y-102743000D01*
X125450241Y-102898363D01*
X125250363Y-103098241D01*
X125093320Y-103333273D01*
X124985147Y-103594426D01*
X124930000Y-103871665D01*
X124930000Y-104154335D01*
X124985147Y-104431574D01*
X125093320Y-104692727D01*
X125250363Y-104927759D01*
X125450241Y-105127637D01*
X125682759Y-105283000D01*
X125450241Y-105438363D01*
X125250363Y-105638241D01*
X125093320Y-105873273D01*
X124985147Y-106134426D01*
X124930000Y-106411665D01*
X124930000Y-106694335D01*
X124985147Y-106971574D01*
X125093320Y-107232727D01*
X125250363Y-107467759D01*
X125450241Y-107667637D01*
X125682759Y-107823000D01*
X125450241Y-107978363D01*
X125250363Y-108178241D01*
X125093320Y-108413273D01*
X124985147Y-108674426D01*
X124930000Y-108951665D01*
X124930000Y-109234335D01*
X124985147Y-109511574D01*
X125093320Y-109772727D01*
X125250363Y-110007759D01*
X125450241Y-110207637D01*
X125682759Y-110363000D01*
X125450241Y-110518363D01*
X125250363Y-110718241D01*
X125093320Y-110953273D01*
X124985147Y-111214426D01*
X124930000Y-111491665D01*
X124930000Y-111774335D01*
X124985147Y-112051574D01*
X125093320Y-112312727D01*
X125250363Y-112547759D01*
X125450241Y-112747637D01*
X125685273Y-112904680D01*
X125695865Y-112909067D01*
X125509869Y-113020615D01*
X125301481Y-113209586D01*
X125133963Y-113435580D01*
X125013754Y-113689913D01*
X124973096Y-113823961D01*
X125095085Y-114046000D01*
X126238000Y-114046000D01*
X126238000Y-114026000D01*
X126492000Y-114026000D01*
X126492000Y-114046000D01*
X127634915Y-114046000D01*
X127756904Y-113823961D01*
X127716246Y-113689913D01*
X127596037Y-113435580D01*
X127428519Y-113209586D01*
X127220131Y-113020615D01*
X127034135Y-112909067D01*
X127044727Y-112904680D01*
X127279759Y-112747637D01*
X127479637Y-112547759D01*
X127636680Y-112312727D01*
X127744853Y-112051574D01*
X127800000Y-111774335D01*
X127800000Y-111491665D01*
X127744853Y-111214426D01*
X127636680Y-110953273D01*
X127479637Y-110718241D01*
X127279759Y-110518363D01*
X127047241Y-110363000D01*
X127279759Y-110207637D01*
X127479637Y-110007759D01*
X127636680Y-109772727D01*
X127744853Y-109511574D01*
X127800000Y-109234335D01*
X127800000Y-108951665D01*
X127744853Y-108674426D01*
X127636680Y-108413273D01*
X127479637Y-108178241D01*
X127279759Y-107978363D01*
X127047241Y-107823000D01*
X127279759Y-107667637D01*
X127479637Y-107467759D01*
X127636680Y-107232727D01*
X127744853Y-106971574D01*
X127800000Y-106694335D01*
X127800000Y-106411665D01*
X127744853Y-106134426D01*
X127636680Y-105873273D01*
X127479637Y-105638241D01*
X127279759Y-105438363D01*
X127047241Y-105283000D01*
X127279759Y-105127637D01*
X127479637Y-104927759D01*
X127636680Y-104692727D01*
X127744853Y-104431574D01*
X127800000Y-104154335D01*
X127800000Y-103871665D01*
X127744853Y-103594426D01*
X127636680Y-103333273D01*
X127479637Y-103098241D01*
X127279759Y-102898363D01*
X127047241Y-102743000D01*
X127279759Y-102587637D01*
X127479637Y-102387759D01*
X127636680Y-102152727D01*
X127744853Y-101891574D01*
X127800000Y-101614335D01*
X127800000Y-101331665D01*
X127744853Y-101054426D01*
X127636680Y-100793273D01*
X127479637Y-100558241D01*
X127279759Y-100358363D01*
X127047241Y-100203000D01*
X127279759Y-100047637D01*
X127479637Y-99847759D01*
X127636680Y-99612727D01*
X127744853Y-99351574D01*
X127800000Y-99074335D01*
X127800000Y-98791665D01*
X127744853Y-98514426D01*
X127636680Y-98253273D01*
X127479637Y-98018241D01*
X127279759Y-97818363D01*
X127047241Y-97663000D01*
X127279759Y-97507637D01*
X127479637Y-97307759D01*
X127636680Y-97072727D01*
X127744853Y-96811574D01*
X127800000Y-96534335D01*
X127800000Y-96251665D01*
X127744853Y-95974426D01*
X127636680Y-95713273D01*
X127479637Y-95478241D01*
X127279759Y-95278363D01*
X127047241Y-95123000D01*
X127279759Y-94967637D01*
X127479637Y-94767759D01*
X127636680Y-94532727D01*
X127744853Y-94271574D01*
X127800000Y-93994335D01*
X127800000Y-93711665D01*
X127744853Y-93434426D01*
X127636680Y-93173273D01*
X127479637Y-92938241D01*
X127281039Y-92739643D01*
X127289482Y-92738812D01*
X127409180Y-92702502D01*
X127519494Y-92643537D01*
X127616185Y-92564185D01*
X127695537Y-92467494D01*
X127754502Y-92357180D01*
X127790812Y-92237482D01*
X127803072Y-92113000D01*
X127803072Y-91171665D01*
X132550000Y-91171665D01*
X132550000Y-91454335D01*
X132605147Y-91731574D01*
X132713320Y-91992727D01*
X132870363Y-92227759D01*
X133070241Y-92427637D01*
X133302759Y-92583000D01*
X133070241Y-92738363D01*
X132870363Y-92938241D01*
X132713320Y-93173273D01*
X132605147Y-93434426D01*
X132550000Y-93711665D01*
X132550000Y-93994335D01*
X132605147Y-94271574D01*
X132713320Y-94532727D01*
X132870363Y-94767759D01*
X133070241Y-94967637D01*
X133302759Y-95123000D01*
X133070241Y-95278363D01*
X132870363Y-95478241D01*
X132713320Y-95713273D01*
X132605147Y-95974426D01*
X132550000Y-96251665D01*
X132550000Y-96534335D01*
X132605147Y-96811574D01*
X132713320Y-97072727D01*
X132870363Y-97307759D01*
X133070241Y-97507637D01*
X133302759Y-97663000D01*
X133070241Y-97818363D01*
X132870363Y-98018241D01*
X132713320Y-98253273D01*
X132605147Y-98514426D01*
X132550000Y-98791665D01*
X132550000Y-99074335D01*
X132605147Y-99351574D01*
X132713320Y-99612727D01*
X132870363Y-99847759D01*
X133070241Y-100047637D01*
X133302759Y-100203000D01*
X133070241Y-100358363D01*
X132870363Y-100558241D01*
X132713320Y-100793273D01*
X132605147Y-101054426D01*
X132550000Y-101331665D01*
X132550000Y-101614335D01*
X132605147Y-101891574D01*
X132713320Y-102152727D01*
X132870363Y-102387759D01*
X133070241Y-102587637D01*
X133302759Y-102743000D01*
X133070241Y-102898363D01*
X132870363Y-103098241D01*
X132713320Y-103333273D01*
X132605147Y-103594426D01*
X132550000Y-103871665D01*
X132550000Y-104154335D01*
X132605147Y-104431574D01*
X132713320Y-104692727D01*
X132870363Y-104927759D01*
X133070241Y-105127637D01*
X133302759Y-105283000D01*
X133070241Y-105438363D01*
X132870363Y-105638241D01*
X132713320Y-105873273D01*
X132605147Y-106134426D01*
X132550000Y-106411665D01*
X132550000Y-106694335D01*
X132605147Y-106971574D01*
X132713320Y-107232727D01*
X132870363Y-107467759D01*
X133070241Y-107667637D01*
X133302759Y-107823000D01*
X133070241Y-107978363D01*
X132870363Y-108178241D01*
X132713320Y-108413273D01*
X132605147Y-108674426D01*
X132550000Y-108951665D01*
X132550000Y-109234335D01*
X132605147Y-109511574D01*
X132713320Y-109772727D01*
X132870363Y-110007759D01*
X133070241Y-110207637D01*
X133302759Y-110363000D01*
X133070241Y-110518363D01*
X132870363Y-110718241D01*
X132713320Y-110953273D01*
X132605147Y-111214426D01*
X132550000Y-111491665D01*
X132550000Y-111774335D01*
X132605147Y-112051574D01*
X132713320Y-112312727D01*
X132870363Y-112547759D01*
X133070241Y-112747637D01*
X133302759Y-112903000D01*
X133070241Y-113058363D01*
X132870363Y-113258241D01*
X132713320Y-113493273D01*
X132605147Y-113754426D01*
X132550000Y-114031665D01*
X132550000Y-114314335D01*
X132605147Y-114591574D01*
X132713320Y-114852727D01*
X132870363Y-115087759D01*
X133070241Y-115287637D01*
X133305273Y-115444680D01*
X133566426Y-115552853D01*
X133843665Y-115608000D01*
X134126335Y-115608000D01*
X134403574Y-115552853D01*
X134664727Y-115444680D01*
X134899759Y-115287637D01*
X135099637Y-115087759D01*
X135256680Y-114852727D01*
X135364853Y-114591574D01*
X135420000Y-114314335D01*
X135420000Y-114031665D01*
X135380085Y-113831000D01*
X136814928Y-113831000D01*
X136814928Y-115531000D01*
X136827188Y-115655482D01*
X136863498Y-115775180D01*
X136922463Y-115885494D01*
X137001815Y-115982185D01*
X137098506Y-116061537D01*
X137208820Y-116120502D01*
X137328518Y-116156812D01*
X137453000Y-116169072D01*
X139153000Y-116169072D01*
X139277482Y-116156812D01*
X139397180Y-116120502D01*
X139507494Y-116061537D01*
X139604185Y-115982185D01*
X139683537Y-115885494D01*
X139742502Y-115775180D01*
X139764513Y-115702620D01*
X139896368Y-115834475D01*
X140139589Y-115996990D01*
X140409842Y-116108932D01*
X140696740Y-116166000D01*
X140989260Y-116166000D01*
X141276158Y-116108932D01*
X141546411Y-115996990D01*
X141789632Y-115834475D01*
X141996475Y-115627632D01*
X142113000Y-115453240D01*
X142229525Y-115627632D01*
X142436368Y-115834475D01*
X142679589Y-115996990D01*
X142949842Y-116108932D01*
X143236740Y-116166000D01*
X143529260Y-116166000D01*
X143816158Y-116108932D01*
X144086411Y-115996990D01*
X144329632Y-115834475D01*
X144405107Y-115759000D01*
X146476000Y-115759000D01*
X146476000Y-116309000D01*
X146526428Y-116567005D01*
X146626221Y-116810215D01*
X146771545Y-117029283D01*
X146956815Y-117215790D01*
X147174910Y-117362569D01*
X147417450Y-117463980D01*
X147477671Y-117474716D01*
X147684000Y-117351374D01*
X147684000Y-115759000D01*
X147938000Y-115759000D01*
X147938000Y-117351374D01*
X148144329Y-117474716D01*
X148204550Y-117463980D01*
X148447090Y-117362569D01*
X148665185Y-117215790D01*
X148850455Y-117029283D01*
X148995779Y-116810215D01*
X149095572Y-116567005D01*
X149146000Y-116309000D01*
X149146000Y-115759000D01*
X153876000Y-115759000D01*
X153876000Y-116309000D01*
X153926428Y-116567005D01*
X154026221Y-116810215D01*
X154171545Y-117029283D01*
X154356815Y-117215790D01*
X154574910Y-117362569D01*
X154817450Y-117463980D01*
X154877671Y-117474716D01*
X155084000Y-117351374D01*
X155084000Y-115759000D01*
X155338000Y-115759000D01*
X155338000Y-117351374D01*
X155544329Y-117474716D01*
X155604550Y-117463980D01*
X155847090Y-117362569D01*
X156065185Y-117215790D01*
X156250455Y-117029283D01*
X156395779Y-116810215D01*
X156495572Y-116567005D01*
X156546000Y-116309000D01*
X156546000Y-115759000D01*
X155338000Y-115759000D01*
X155084000Y-115759000D01*
X153876000Y-115759000D01*
X149146000Y-115759000D01*
X147938000Y-115759000D01*
X147684000Y-115759000D01*
X146476000Y-115759000D01*
X144405107Y-115759000D01*
X144536475Y-115627632D01*
X144698990Y-115384411D01*
X144810932Y-115114158D01*
X144842590Y-114955000D01*
X146476000Y-114955000D01*
X146476000Y-115505000D01*
X147684000Y-115505000D01*
X147684000Y-113912626D01*
X147938000Y-113912626D01*
X147938000Y-115505000D01*
X149146000Y-115505000D01*
X149146000Y-114955000D01*
X153876000Y-114955000D01*
X153876000Y-115505000D01*
X155084000Y-115505000D01*
X155084000Y-113912626D01*
X155338000Y-113912626D01*
X155338000Y-115505000D01*
X156546000Y-115505000D01*
X156546000Y-114955000D01*
X156495572Y-114696995D01*
X156479117Y-114656890D01*
X156673524Y-114656890D01*
X156718175Y-114804099D01*
X156843359Y-115066920D01*
X157017412Y-115300269D01*
X157233645Y-115495178D01*
X157483748Y-115644157D01*
X157758109Y-115741481D01*
X157988000Y-115620814D01*
X157988000Y-114427000D01*
X158242000Y-114427000D01*
X158242000Y-115620814D01*
X158471891Y-115741481D01*
X158746252Y-115644157D01*
X158996355Y-115495178D01*
X159212588Y-115300269D01*
X159335061Y-115136071D01*
X161713352Y-115136071D01*
X161768727Y-115652159D01*
X161923721Y-116147526D01*
X162146742Y-116564772D01*
X162513501Y-116780894D01*
X164181395Y-115113000D01*
X164540605Y-115113000D01*
X166208499Y-116780894D01*
X166575258Y-116564772D01*
X166815938Y-116104895D01*
X166962275Y-115606902D01*
X167008648Y-115089929D01*
X166953273Y-114573841D01*
X166798279Y-114078474D01*
X166575258Y-113661228D01*
X166208499Y-113445106D01*
X164540605Y-115113000D01*
X164181395Y-115113000D01*
X162513501Y-113445106D01*
X162146742Y-113661228D01*
X161906062Y-114121105D01*
X161759725Y-114619098D01*
X161713352Y-115136071D01*
X159335061Y-115136071D01*
X159386641Y-115066920D01*
X159511825Y-114804099D01*
X159556476Y-114656890D01*
X159435155Y-114427000D01*
X158242000Y-114427000D01*
X157988000Y-114427000D01*
X156794845Y-114427000D01*
X156673524Y-114656890D01*
X156479117Y-114656890D01*
X156395779Y-114453785D01*
X156250455Y-114234717D01*
X156065185Y-114048210D01*
X155847090Y-113901431D01*
X155604550Y-113800020D01*
X155544329Y-113789284D01*
X155338000Y-113912626D01*
X155084000Y-113912626D01*
X154877671Y-113789284D01*
X154817450Y-113800020D01*
X154574910Y-113901431D01*
X154356815Y-114048210D01*
X154171545Y-114234717D01*
X154026221Y-114453785D01*
X153926428Y-114696995D01*
X153876000Y-114955000D01*
X149146000Y-114955000D01*
X149095572Y-114696995D01*
X148995779Y-114453785D01*
X148850455Y-114234717D01*
X148665185Y-114048210D01*
X148447090Y-113901431D01*
X148204550Y-113800020D01*
X148144329Y-113789284D01*
X147938000Y-113912626D01*
X147684000Y-113912626D01*
X147477671Y-113789284D01*
X147417450Y-113800020D01*
X147174910Y-113901431D01*
X146956815Y-114048210D01*
X146771545Y-114234717D01*
X146626221Y-114453785D01*
X146526428Y-114696995D01*
X146476000Y-114955000D01*
X144842590Y-114955000D01*
X144868000Y-114827260D01*
X144868000Y-114534740D01*
X144810932Y-114247842D01*
X144698990Y-113977589D01*
X144536475Y-113734368D01*
X144329632Y-113527525D01*
X144153594Y-113409900D01*
X144383269Y-113238588D01*
X144578178Y-113022355D01*
X144727157Y-112772252D01*
X144824481Y-112497891D01*
X144703814Y-112268000D01*
X143510000Y-112268000D01*
X143510000Y-112288000D01*
X143256000Y-112288000D01*
X143256000Y-112268000D01*
X140970000Y-112268000D01*
X140970000Y-112288000D01*
X140716000Y-112288000D01*
X140716000Y-112268000D01*
X138430000Y-112268000D01*
X138430000Y-112288000D01*
X138176000Y-112288000D01*
X138176000Y-112268000D01*
X136982186Y-112268000D01*
X136861519Y-112497891D01*
X136958843Y-112772252D01*
X137107822Y-113022355D01*
X137284626Y-113218502D01*
X137208820Y-113241498D01*
X137098506Y-113300463D01*
X137001815Y-113379815D01*
X136922463Y-113476506D01*
X136863498Y-113586820D01*
X136827188Y-113706518D01*
X136814928Y-113831000D01*
X135380085Y-113831000D01*
X135364853Y-113754426D01*
X135256680Y-113493273D01*
X135099637Y-113258241D01*
X134899759Y-113058363D01*
X134667241Y-112903000D01*
X134899759Y-112747637D01*
X135099637Y-112547759D01*
X135256680Y-112312727D01*
X135364853Y-112051574D01*
X135418055Y-111784109D01*
X136861519Y-111784109D01*
X136982186Y-112014000D01*
X138176000Y-112014000D01*
X138176000Y-110820845D01*
X138430000Y-110820845D01*
X138430000Y-112014000D01*
X140716000Y-112014000D01*
X140716000Y-110820845D01*
X140970000Y-110820845D01*
X140970000Y-112014000D01*
X143256000Y-112014000D01*
X143256000Y-110820845D01*
X143510000Y-110820845D01*
X143510000Y-112014000D01*
X144703814Y-112014000D01*
X144824481Y-111784109D01*
X144727157Y-111509748D01*
X144578178Y-111259645D01*
X144383269Y-111043412D01*
X144337134Y-111009000D01*
X146476000Y-111009000D01*
X146476000Y-111559000D01*
X146526428Y-111817005D01*
X146626221Y-112060215D01*
X146771545Y-112279283D01*
X146956815Y-112465790D01*
X147174910Y-112612569D01*
X147417450Y-112713980D01*
X147477671Y-112724716D01*
X147684000Y-112601374D01*
X147684000Y-111009000D01*
X146476000Y-111009000D01*
X144337134Y-111009000D01*
X144149920Y-110869359D01*
X143887099Y-110744175D01*
X143739890Y-110699524D01*
X143510000Y-110820845D01*
X143256000Y-110820845D01*
X143026110Y-110699524D01*
X142878901Y-110744175D01*
X142616080Y-110869359D01*
X142382731Y-111043412D01*
X142187822Y-111259645D01*
X142113000Y-111385255D01*
X142038178Y-111259645D01*
X141843269Y-111043412D01*
X141609920Y-110869359D01*
X141347099Y-110744175D01*
X141199890Y-110699524D01*
X140970000Y-110820845D01*
X140716000Y-110820845D01*
X140486110Y-110699524D01*
X140338901Y-110744175D01*
X140076080Y-110869359D01*
X139842731Y-111043412D01*
X139647822Y-111259645D01*
X139573000Y-111385255D01*
X139498178Y-111259645D01*
X139303269Y-111043412D01*
X139069920Y-110869359D01*
X138807099Y-110744175D01*
X138659890Y-110699524D01*
X138430000Y-110820845D01*
X138176000Y-110820845D01*
X137946110Y-110699524D01*
X137798901Y-110744175D01*
X137536080Y-110869359D01*
X137302731Y-111043412D01*
X137107822Y-111259645D01*
X136958843Y-111509748D01*
X136861519Y-111784109D01*
X135418055Y-111784109D01*
X135420000Y-111774335D01*
X135420000Y-111491665D01*
X135364853Y-111214426D01*
X135256680Y-110953273D01*
X135099637Y-110718241D01*
X134899759Y-110518363D01*
X134667241Y-110363000D01*
X134899759Y-110207637D01*
X135099637Y-110007759D01*
X135256680Y-109772727D01*
X135364853Y-109511574D01*
X135420000Y-109234335D01*
X135420000Y-108951665D01*
X135364853Y-108674426D01*
X135256680Y-108413273D01*
X135099637Y-108178241D01*
X134899759Y-107978363D01*
X134667241Y-107823000D01*
X134899759Y-107667637D01*
X135099637Y-107467759D01*
X135256680Y-107232727D01*
X135364853Y-106971574D01*
X135420000Y-106694335D01*
X135420000Y-106411665D01*
X135364853Y-106134426D01*
X135256680Y-105873273D01*
X135099637Y-105638241D01*
X134899759Y-105438363D01*
X134667241Y-105283000D01*
X134899759Y-105127637D01*
X135099637Y-104927759D01*
X135256680Y-104692727D01*
X135364853Y-104431574D01*
X135420000Y-104154335D01*
X135420000Y-103871665D01*
X135364853Y-103594426D01*
X135256680Y-103333273D01*
X135099637Y-103098241D01*
X134899759Y-102898363D01*
X134667241Y-102743000D01*
X134899759Y-102587637D01*
X135099637Y-102387759D01*
X135256680Y-102152727D01*
X135364853Y-101891574D01*
X135420000Y-101614335D01*
X135420000Y-101331665D01*
X135364853Y-101054426D01*
X135256680Y-100793273D01*
X135099637Y-100558241D01*
X134899759Y-100358363D01*
X134667241Y-100203000D01*
X134899759Y-100047637D01*
X135099637Y-99847759D01*
X135256680Y-99612727D01*
X135364853Y-99351574D01*
X135420000Y-99074335D01*
X135420000Y-98791665D01*
X135364853Y-98514426D01*
X135256680Y-98253273D01*
X135099637Y-98018241D01*
X134899759Y-97818363D01*
X134667241Y-97663000D01*
X134899759Y-97507637D01*
X135099637Y-97307759D01*
X135256680Y-97072727D01*
X135364853Y-96811574D01*
X135420000Y-96534335D01*
X135420000Y-96251665D01*
X135364853Y-95974426D01*
X135256680Y-95713273D01*
X135099637Y-95478241D01*
X134899759Y-95278363D01*
X134667241Y-95123000D01*
X134899759Y-94967637D01*
X135099637Y-94767759D01*
X135256680Y-94532727D01*
X135364853Y-94271574D01*
X135420000Y-93994335D01*
X135420000Y-93711665D01*
X135366558Y-93443000D01*
X136900835Y-93443000D01*
X136892304Y-93463595D01*
X136841000Y-93721514D01*
X136841000Y-93984486D01*
X136892304Y-94242405D01*
X136992939Y-94485359D01*
X137139038Y-94704013D01*
X137324987Y-94889962D01*
X137543641Y-95036061D01*
X137753530Y-95123000D01*
X137543641Y-95209939D01*
X137324987Y-95356038D01*
X137139038Y-95541987D01*
X136992939Y-95760641D01*
X136892304Y-96003595D01*
X136841000Y-96261514D01*
X136841000Y-96524486D01*
X136892304Y-96782405D01*
X136992939Y-97025359D01*
X137139038Y-97244013D01*
X137324987Y-97429962D01*
X137543641Y-97576061D01*
X137753530Y-97663000D01*
X137543641Y-97749939D01*
X137324987Y-97896038D01*
X137139038Y-98081987D01*
X136992939Y-98300641D01*
X136892304Y-98543595D01*
X136841000Y-98801514D01*
X136841000Y-99064486D01*
X136892304Y-99322405D01*
X136992939Y-99565359D01*
X137139038Y-99784013D01*
X137324987Y-99969962D01*
X137543641Y-100116061D01*
X137753530Y-100203000D01*
X137543641Y-100289939D01*
X137324987Y-100436038D01*
X137139038Y-100621987D01*
X136992939Y-100840641D01*
X136892304Y-101083595D01*
X136841000Y-101341514D01*
X136841000Y-101604486D01*
X136892304Y-101862405D01*
X136992939Y-102105359D01*
X137139038Y-102324013D01*
X137324987Y-102509962D01*
X137543641Y-102656061D01*
X137753530Y-102743000D01*
X137543641Y-102829939D01*
X137324987Y-102976038D01*
X137139038Y-103161987D01*
X136992939Y-103380641D01*
X136892304Y-103623595D01*
X136841000Y-103881514D01*
X136841000Y-104144486D01*
X136892304Y-104402405D01*
X136992939Y-104645359D01*
X137139038Y-104864013D01*
X137324987Y-105049962D01*
X137543641Y-105196061D01*
X137753530Y-105283000D01*
X137543641Y-105369939D01*
X137324987Y-105516038D01*
X137139038Y-105701987D01*
X136992939Y-105920641D01*
X136892304Y-106163595D01*
X136841000Y-106421514D01*
X136841000Y-106684486D01*
X136892304Y-106942405D01*
X136992939Y-107185359D01*
X137139038Y-107404013D01*
X137324987Y-107589962D01*
X137543641Y-107736061D01*
X137753530Y-107823000D01*
X137543641Y-107909939D01*
X137324987Y-108056038D01*
X137139038Y-108241987D01*
X136992939Y-108460641D01*
X136892304Y-108703595D01*
X136841000Y-108961514D01*
X136841000Y-109224486D01*
X136892304Y-109482405D01*
X136992939Y-109725359D01*
X137139038Y-109944013D01*
X137324987Y-110129962D01*
X137543641Y-110276061D01*
X137786595Y-110376696D01*
X138044514Y-110428000D01*
X138307486Y-110428000D01*
X138565405Y-110376696D01*
X138808359Y-110276061D01*
X139027013Y-110129962D01*
X139212962Y-109944013D01*
X139359061Y-109725359D01*
X139459696Y-109482405D01*
X139511000Y-109224486D01*
X139511000Y-108961514D01*
X139459696Y-108703595D01*
X139359061Y-108460641D01*
X139212962Y-108241987D01*
X139027013Y-108056038D01*
X138808359Y-107909939D01*
X138598470Y-107823000D01*
X138808359Y-107736061D01*
X139027013Y-107589962D01*
X139212962Y-107404013D01*
X139359061Y-107185359D01*
X139459696Y-106942405D01*
X139511000Y-106684486D01*
X139511000Y-106421514D01*
X139459696Y-106163595D01*
X139359061Y-105920641D01*
X139212962Y-105701987D01*
X139027013Y-105516038D01*
X138808359Y-105369939D01*
X138598470Y-105283000D01*
X138808359Y-105196061D01*
X139027013Y-105049962D01*
X139212962Y-104864013D01*
X139359061Y-104645359D01*
X139459696Y-104402405D01*
X139511000Y-104144486D01*
X139511000Y-103881514D01*
X139459696Y-103623595D01*
X139359061Y-103380641D01*
X139212962Y-103161987D01*
X139027013Y-102976038D01*
X138808359Y-102829939D01*
X138598470Y-102743000D01*
X138808359Y-102656061D01*
X139027013Y-102509962D01*
X139212962Y-102324013D01*
X139359061Y-102105359D01*
X139459696Y-101862405D01*
X139511000Y-101604486D01*
X139511000Y-101341514D01*
X139459696Y-101083595D01*
X139359061Y-100840641D01*
X139212962Y-100621987D01*
X139027013Y-100436038D01*
X138808359Y-100289939D01*
X138598470Y-100203000D01*
X138808359Y-100116061D01*
X139027013Y-99969962D01*
X139212962Y-99784013D01*
X139359061Y-99565359D01*
X139459696Y-99322405D01*
X139511000Y-99064486D01*
X139511000Y-98801514D01*
X139459696Y-98543595D01*
X139359061Y-98300641D01*
X139212962Y-98081987D01*
X139027013Y-97896038D01*
X138808359Y-97749939D01*
X138598470Y-97663000D01*
X138808359Y-97576061D01*
X139027013Y-97429962D01*
X139212962Y-97244013D01*
X139359061Y-97025359D01*
X139459696Y-96782405D01*
X139511000Y-96524486D01*
X139511000Y-96261514D01*
X139459696Y-96003595D01*
X139359061Y-95760641D01*
X139212962Y-95541987D01*
X139027013Y-95356038D01*
X138808359Y-95209939D01*
X138598470Y-95123000D01*
X138808359Y-95036061D01*
X139027013Y-94889962D01*
X139212962Y-94704013D01*
X139359061Y-94485359D01*
X139459696Y-94242405D01*
X139488811Y-94096035D01*
X140999001Y-95606225D01*
X140999000Y-100541761D01*
X140994840Y-100584000D01*
X140999000Y-100626239D01*
X140999000Y-100626245D01*
X141004262Y-100679671D01*
X141010855Y-100746603D01*
X141011444Y-100752588D01*
X141060619Y-100914699D01*
X141140476Y-101064101D01*
X141247946Y-101195054D01*
X141280765Y-101221988D01*
X143380015Y-103321239D01*
X143406946Y-103354054D01*
X143537898Y-103461524D01*
X143687300Y-103541381D01*
X143800235Y-103575639D01*
X143849410Y-103590556D01*
X143866558Y-103592245D01*
X143975754Y-103603000D01*
X143975760Y-103603000D01*
X144017999Y-103607160D01*
X144060238Y-103603000D01*
X144520835Y-103603000D01*
X144512304Y-103623595D01*
X144461000Y-103881514D01*
X144461000Y-104144486D01*
X144512304Y-104402405D01*
X144612939Y-104645359D01*
X144759038Y-104864013D01*
X144944987Y-105049962D01*
X145163641Y-105196061D01*
X145373530Y-105283000D01*
X145163641Y-105369939D01*
X144944987Y-105516038D01*
X144759038Y-105701987D01*
X144612939Y-105920641D01*
X144512304Y-106163595D01*
X144461000Y-106421514D01*
X144461000Y-106684486D01*
X144512304Y-106942405D01*
X144612939Y-107185359D01*
X144759038Y-107404013D01*
X144944987Y-107589962D01*
X145163641Y-107736061D01*
X145373530Y-107823000D01*
X145163641Y-107909939D01*
X144944987Y-108056038D01*
X144759038Y-108241987D01*
X144612939Y-108460641D01*
X144512304Y-108703595D01*
X144461000Y-108961514D01*
X144461000Y-109224486D01*
X144512304Y-109482405D01*
X144612939Y-109725359D01*
X144759038Y-109944013D01*
X144944987Y-110129962D01*
X145163641Y-110276061D01*
X145406595Y-110376696D01*
X145664514Y-110428000D01*
X145927486Y-110428000D01*
X146185405Y-110376696D01*
X146428359Y-110276061D01*
X146476000Y-110244229D01*
X146476000Y-110755000D01*
X147684000Y-110755000D01*
X147684000Y-109162626D01*
X147938000Y-109162626D01*
X147938000Y-110755000D01*
X147958000Y-110755000D01*
X147958000Y-111009000D01*
X147938000Y-111009000D01*
X147938000Y-112601374D01*
X148144329Y-112724716D01*
X148204550Y-112713980D01*
X148447090Y-112612569D01*
X148665185Y-112465790D01*
X148850455Y-112279283D01*
X148995779Y-112060215D01*
X149095572Y-111817005D01*
X149146000Y-111559000D01*
X149146000Y-110892844D01*
X149155606Y-110902450D01*
X149349692Y-111032134D01*
X149526000Y-111105163D01*
X149526000Y-111298712D01*
X149571539Y-111527652D01*
X149660866Y-111743308D01*
X149790550Y-111937394D01*
X149955606Y-112102450D01*
X150149692Y-112232134D01*
X150365348Y-112321461D01*
X150594288Y-112367000D01*
X150827712Y-112367000D01*
X151056652Y-112321461D01*
X151272308Y-112232134D01*
X151466394Y-112102450D01*
X151511000Y-112057844D01*
X151555606Y-112102450D01*
X151749692Y-112232134D01*
X151965348Y-112321461D01*
X152194288Y-112367000D01*
X152427712Y-112367000D01*
X152656652Y-112321461D01*
X152872308Y-112232134D01*
X153066394Y-112102450D01*
X153231450Y-111937394D01*
X153361134Y-111743308D01*
X153450461Y-111527652D01*
X153496000Y-111298712D01*
X153496000Y-111103333D01*
X153639934Y-111048808D01*
X153704159Y-111014478D01*
X153705192Y-111009000D01*
X153876000Y-111009000D01*
X153876000Y-111559000D01*
X153926428Y-111817005D01*
X154026221Y-112060215D01*
X154171545Y-112279283D01*
X154356815Y-112465790D01*
X154574910Y-112612569D01*
X154817450Y-112713980D01*
X154877671Y-112724716D01*
X155084000Y-112601374D01*
X155084000Y-111009000D01*
X155338000Y-111009000D01*
X155338000Y-112601374D01*
X155544329Y-112724716D01*
X155604550Y-112713980D01*
X155847090Y-112612569D01*
X156065185Y-112465790D01*
X156250455Y-112279283D01*
X156395779Y-112060215D01*
X156495572Y-111817005D01*
X156546000Y-111559000D01*
X156546000Y-111009000D01*
X155338000Y-111009000D01*
X155084000Y-111009000D01*
X153876000Y-111009000D01*
X153705192Y-111009000D01*
X153745374Y-110795979D01*
X153111000Y-110161605D01*
X153096858Y-110175748D01*
X152917253Y-109996143D01*
X152931395Y-109982000D01*
X153290605Y-109982000D01*
X153876000Y-110567395D01*
X153876000Y-110755000D01*
X155084000Y-110755000D01*
X155084000Y-109162626D01*
X155338000Y-109162626D01*
X155338000Y-110755000D01*
X156546000Y-110755000D01*
X156546000Y-110205000D01*
X156495572Y-109946995D01*
X156395779Y-109703785D01*
X156250455Y-109484717D01*
X156065185Y-109298210D01*
X155847090Y-109151431D01*
X155604550Y-109050020D01*
X155544329Y-109039284D01*
X155338000Y-109162626D01*
X155084000Y-109162626D01*
X154877671Y-109039284D01*
X154817450Y-109050020D01*
X154574910Y-109151431D01*
X154356815Y-109298210D01*
X154184759Y-109471415D01*
X154177808Y-109453066D01*
X154143478Y-109388841D01*
X153924979Y-109347626D01*
X153290605Y-109982000D01*
X152931395Y-109982000D01*
X152917253Y-109967858D01*
X153096858Y-109788253D01*
X153111000Y-109802395D01*
X153745374Y-109168021D01*
X153704159Y-108949522D01*
X153491335Y-108853641D01*
X153263895Y-108801122D01*
X153030579Y-108793984D01*
X152800354Y-108832500D01*
X152582066Y-108915192D01*
X152517841Y-108949522D01*
X152476626Y-109168018D01*
X152359263Y-109050655D01*
X152307381Y-109102537D01*
X152266394Y-109061550D01*
X152135281Y-108973943D01*
X153061224Y-108048000D01*
X155499909Y-108048000D01*
X155515201Y-108070886D01*
X155708114Y-108263799D01*
X155934957Y-108415371D01*
X156187011Y-108519775D01*
X156454589Y-108573000D01*
X156727411Y-108573000D01*
X156754407Y-108567630D01*
X157382000Y-109195224D01*
X157382001Y-110271928D01*
X157265000Y-110271928D01*
X157140518Y-110284188D01*
X157020820Y-110320498D01*
X156910506Y-110379463D01*
X156813815Y-110458815D01*
X156734463Y-110555506D01*
X156675498Y-110665820D01*
X156639188Y-110785518D01*
X156626928Y-110910000D01*
X156626928Y-112610000D01*
X156639188Y-112734482D01*
X156675498Y-112854180D01*
X156734463Y-112964494D01*
X156813815Y-113061185D01*
X156910506Y-113140537D01*
X157020820Y-113199502D01*
X157101466Y-113223966D01*
X157017412Y-113299731D01*
X156843359Y-113533080D01*
X156718175Y-113795901D01*
X156673524Y-113943110D01*
X156794845Y-114173000D01*
X157988000Y-114173000D01*
X157988000Y-114153000D01*
X158242000Y-114153000D01*
X158242000Y-114173000D01*
X159435155Y-114173000D01*
X159556476Y-113943110D01*
X159511825Y-113795901D01*
X159386641Y-113533080D01*
X159212588Y-113299731D01*
X159174614Y-113265501D01*
X162693106Y-113265501D01*
X164361000Y-114933395D01*
X166028894Y-113265501D01*
X165812772Y-112898742D01*
X165352895Y-112658062D01*
X164854902Y-112511725D01*
X164337929Y-112465352D01*
X163821841Y-112520727D01*
X163326474Y-112675721D01*
X162909228Y-112898742D01*
X162693106Y-113265501D01*
X159174614Y-113265501D01*
X159128534Y-113223966D01*
X159209180Y-113199502D01*
X159319494Y-113140537D01*
X159416185Y-113061185D01*
X159495537Y-112964494D01*
X159554502Y-112854180D01*
X159590812Y-112734482D01*
X159603072Y-112610000D01*
X159603072Y-110910000D01*
X159590812Y-110785518D01*
X159554502Y-110665820D01*
X159495537Y-110555506D01*
X159416185Y-110458815D01*
X159319494Y-110379463D01*
X159209180Y-110320498D01*
X159102000Y-110287985D01*
X159102000Y-108881246D01*
X159106161Y-108839000D01*
X159089556Y-108670410D01*
X159040381Y-108508299D01*
X159009595Y-108450702D01*
X162127903Y-108450702D01*
X162199486Y-108694671D01*
X162454996Y-108815571D01*
X162729184Y-108884300D01*
X163011512Y-108898217D01*
X163291130Y-108856787D01*
X163557292Y-108761603D01*
X163682514Y-108694671D01*
X163754097Y-108450702D01*
X162941000Y-107637605D01*
X162127903Y-108450702D01*
X159009595Y-108450702D01*
X158989588Y-108413273D01*
X158960524Y-108358898D01*
X158853054Y-108227946D01*
X158820242Y-108201018D01*
X158147736Y-107528512D01*
X161500783Y-107528512D01*
X161542213Y-107808130D01*
X161637397Y-108074292D01*
X161704329Y-108199514D01*
X161948298Y-108271097D01*
X162761395Y-107458000D01*
X161948298Y-106644903D01*
X161704329Y-106716486D01*
X161583429Y-106971996D01*
X161514700Y-107246184D01*
X161500783Y-107528512D01*
X158147736Y-107528512D01*
X157970630Y-107351407D01*
X157976000Y-107324411D01*
X157976000Y-107051589D01*
X157922775Y-106784011D01*
X157818371Y-106531957D01*
X157666799Y-106305114D01*
X157473886Y-106112201D01*
X157247043Y-105960629D01*
X156994989Y-105856225D01*
X156727411Y-105803000D01*
X156454589Y-105803000D01*
X156187011Y-105856225D01*
X155934957Y-105960629D01*
X155708114Y-106112201D01*
X155515201Y-106305114D01*
X155499909Y-106328000D01*
X152747246Y-106328000D01*
X152705000Y-106323839D01*
X152536410Y-106340444D01*
X152374299Y-106389619D01*
X152333055Y-106411665D01*
X152224898Y-106469476D01*
X152093946Y-106576946D01*
X152067017Y-106609759D01*
X149879777Y-108797000D01*
X149794288Y-108797000D01*
X149565348Y-108842539D01*
X149349692Y-108931866D01*
X149155606Y-109061550D01*
X148990550Y-109226606D01*
X148860866Y-109420692D01*
X148839087Y-109473273D01*
X148665185Y-109298210D01*
X148447090Y-109151431D01*
X148204550Y-109050020D01*
X148144329Y-109039284D01*
X147938000Y-109162626D01*
X147684000Y-109162626D01*
X147477671Y-109039284D01*
X147417450Y-109050020D01*
X147174910Y-109151431D01*
X147131000Y-109180983D01*
X147131000Y-108961514D01*
X147079696Y-108703595D01*
X146979061Y-108460641D01*
X146832962Y-108241987D01*
X146647013Y-108056038D01*
X146428359Y-107909939D01*
X146218470Y-107823000D01*
X146428359Y-107736061D01*
X146647013Y-107589962D01*
X146832962Y-107404013D01*
X146979061Y-107185359D01*
X147079696Y-106942405D01*
X147131000Y-106684486D01*
X147131000Y-106421514D01*
X147079696Y-106163595D01*
X146979061Y-105920641D01*
X146832962Y-105701987D01*
X146647013Y-105516038D01*
X146428359Y-105369939D01*
X146218470Y-105283000D01*
X146428359Y-105196061D01*
X146647013Y-105049962D01*
X146832962Y-104864013D01*
X146979061Y-104645359D01*
X147079696Y-104402405D01*
X147131000Y-104144486D01*
X147131000Y-103881514D01*
X147079696Y-103623595D01*
X147071165Y-103603000D01*
X147405928Y-103603000D01*
X147405928Y-103670000D01*
X147418188Y-103794482D01*
X147454498Y-103914180D01*
X147513463Y-104024494D01*
X147592815Y-104121185D01*
X147689506Y-104200537D01*
X147799820Y-104259502D01*
X147919518Y-104295812D01*
X148044000Y-104308072D01*
X148111001Y-104308072D01*
X148111000Y-105810762D01*
X148096518Y-105812188D01*
X147976820Y-105848498D01*
X147866506Y-105907463D01*
X147769815Y-105986815D01*
X147690463Y-106083506D01*
X147631498Y-106193820D01*
X147595188Y-106313518D01*
X147582928Y-106438000D01*
X147582928Y-107938000D01*
X147595188Y-108062482D01*
X147631498Y-108182180D01*
X147690463Y-108292494D01*
X147769815Y-108389185D01*
X147866506Y-108468537D01*
X147976820Y-108527502D01*
X148096518Y-108563812D01*
X148221000Y-108576072D01*
X149721000Y-108576072D01*
X149845482Y-108563812D01*
X149965180Y-108527502D01*
X150075494Y-108468537D01*
X150172185Y-108389185D01*
X150251537Y-108292494D01*
X150310502Y-108182180D01*
X150346812Y-108062482D01*
X150359072Y-107938000D01*
X150359072Y-106438000D01*
X150346812Y-106313518D01*
X150310502Y-106193820D01*
X150251537Y-106083506D01*
X150172185Y-105986815D01*
X150075494Y-105907463D01*
X149965180Y-105848498D01*
X149845482Y-105812188D01*
X149831000Y-105810762D01*
X149831000Y-104369890D01*
X156673524Y-104369890D01*
X156718175Y-104517099D01*
X156843359Y-104779920D01*
X157017412Y-105013269D01*
X157233645Y-105208178D01*
X157483748Y-105357157D01*
X157758109Y-105454481D01*
X157988000Y-105333814D01*
X157988000Y-104140000D01*
X158242000Y-104140000D01*
X158242000Y-105333814D01*
X158471891Y-105454481D01*
X158746252Y-105357157D01*
X158996355Y-105208178D01*
X159212588Y-105013269D01*
X159386641Y-104779920D01*
X159511825Y-104517099D01*
X159556476Y-104369890D01*
X159435155Y-104140000D01*
X158242000Y-104140000D01*
X157988000Y-104140000D01*
X156794845Y-104140000D01*
X156673524Y-104369890D01*
X149831000Y-104369890D01*
X149831000Y-104276847D01*
X149888180Y-104259502D01*
X149998494Y-104200537D01*
X150095185Y-104121185D01*
X150174537Y-104024494D01*
X150233502Y-103914180D01*
X150249117Y-103862702D01*
X150530903Y-103862702D01*
X150602486Y-104106671D01*
X150857996Y-104227571D01*
X151132184Y-104296300D01*
X151414512Y-104310217D01*
X151694130Y-104268787D01*
X151960292Y-104173603D01*
X152085514Y-104106671D01*
X152157097Y-103862702D01*
X151344000Y-103049605D01*
X150530903Y-103862702D01*
X150249117Y-103862702D01*
X150269812Y-103794482D01*
X150282072Y-103670000D01*
X150282072Y-103662785D01*
X150351298Y-103683097D01*
X151164395Y-102870000D01*
X151523605Y-102870000D01*
X152336702Y-103683097D01*
X152580671Y-103611514D01*
X152701571Y-103356004D01*
X152770300Y-103081816D01*
X152784217Y-102799488D01*
X152742787Y-102519870D01*
X152647603Y-102253708D01*
X152580671Y-102128486D01*
X152336702Y-102056903D01*
X151523605Y-102870000D01*
X151164395Y-102870000D01*
X150351298Y-102056903D01*
X150282072Y-102077215D01*
X150282072Y-102070000D01*
X150269812Y-101945518D01*
X150249118Y-101877298D01*
X150530903Y-101877298D01*
X151344000Y-102690395D01*
X152157097Y-101877298D01*
X152085514Y-101633329D01*
X151830004Y-101512429D01*
X151555816Y-101443700D01*
X151273488Y-101429783D01*
X150993870Y-101471213D01*
X150727708Y-101566397D01*
X150602486Y-101633329D01*
X150530903Y-101877298D01*
X150249118Y-101877298D01*
X150233502Y-101825820D01*
X150174537Y-101715506D01*
X150095185Y-101618815D01*
X149998494Y-101539463D01*
X149888180Y-101480498D01*
X149768482Y-101444188D01*
X149644000Y-101431928D01*
X148044000Y-101431928D01*
X147919518Y-101444188D01*
X147799820Y-101480498D01*
X147689506Y-101539463D01*
X147592815Y-101618815D01*
X147513463Y-101715506D01*
X147454498Y-101825820D01*
X147437153Y-101883000D01*
X147071165Y-101883000D01*
X147079696Y-101862405D01*
X147131000Y-101604486D01*
X147131000Y-101341514D01*
X147079696Y-101083595D01*
X146979061Y-100840641D01*
X146832962Y-100621987D01*
X146647013Y-100436038D01*
X146428359Y-100289939D01*
X146218470Y-100203000D01*
X146428359Y-100116061D01*
X146647013Y-99969962D01*
X146832962Y-99784013D01*
X146979061Y-99565359D01*
X147079696Y-99322405D01*
X147131000Y-99064486D01*
X147131000Y-98801514D01*
X147079696Y-98543595D01*
X146979061Y-98300641D01*
X146832962Y-98081987D01*
X146647013Y-97896038D01*
X146428359Y-97749939D01*
X146218470Y-97663000D01*
X146428359Y-97576061D01*
X146647013Y-97429962D01*
X146832962Y-97244013D01*
X146979061Y-97025359D01*
X147079696Y-96782405D01*
X147131000Y-96524486D01*
X147131000Y-96261514D01*
X147079696Y-96003595D01*
X146979061Y-95760641D01*
X146832962Y-95541987D01*
X146647013Y-95356038D01*
X146428359Y-95209939D01*
X146218470Y-95123000D01*
X146428359Y-95036061D01*
X146647013Y-94889962D01*
X146832962Y-94704013D01*
X146979061Y-94485359D01*
X147079696Y-94242405D01*
X147131000Y-93984486D01*
X147131000Y-93721514D01*
X147079696Y-93463595D01*
X146979061Y-93220641D01*
X146832962Y-93001987D01*
X146647013Y-92816038D01*
X146428359Y-92669939D01*
X146218470Y-92583000D01*
X146428359Y-92496061D01*
X146647013Y-92349962D01*
X146832962Y-92164013D01*
X146979061Y-91945359D01*
X147079696Y-91702405D01*
X147131000Y-91444486D01*
X147131000Y-91181514D01*
X147079696Y-90923595D01*
X146979061Y-90680641D01*
X146833639Y-90463000D01*
X147482928Y-90463000D01*
X147482928Y-92163000D01*
X147495188Y-92287482D01*
X147531498Y-92407180D01*
X147590463Y-92517494D01*
X147669815Y-92614185D01*
X147766506Y-92693537D01*
X147876820Y-92752502D01*
X147949380Y-92774513D01*
X147817525Y-92906368D01*
X147655010Y-93149589D01*
X147543068Y-93419842D01*
X147486000Y-93706740D01*
X147486000Y-93999260D01*
X147543068Y-94286158D01*
X147655010Y-94556411D01*
X147817525Y-94799632D01*
X148024368Y-95006475D01*
X148198760Y-95123000D01*
X148024368Y-95239525D01*
X147817525Y-95446368D01*
X147655010Y-95689589D01*
X147543068Y-95959842D01*
X147486000Y-96246740D01*
X147486000Y-96539260D01*
X147543068Y-96826158D01*
X147655010Y-97096411D01*
X147817525Y-97339632D01*
X148024368Y-97546475D01*
X148267589Y-97708990D01*
X148537842Y-97820932D01*
X148824740Y-97878000D01*
X149117260Y-97878000D01*
X149404158Y-97820932D01*
X149674411Y-97708990D01*
X149917632Y-97546475D01*
X150124475Y-97339632D01*
X150286990Y-97096411D01*
X150398932Y-96826158D01*
X150456000Y-96539260D01*
X150456000Y-96246740D01*
X150398932Y-95959842D01*
X150286990Y-95689589D01*
X150124475Y-95446368D01*
X149917632Y-95239525D01*
X149743240Y-95123000D01*
X149917632Y-95006475D01*
X150124475Y-94799632D01*
X150286990Y-94556411D01*
X150398932Y-94286158D01*
X150456000Y-93999260D01*
X150456000Y-93706740D01*
X150398932Y-93419842D01*
X150286990Y-93149589D01*
X150124475Y-92906368D01*
X149992620Y-92774513D01*
X150065180Y-92752502D01*
X150175494Y-92693537D01*
X150272185Y-92614185D01*
X150351537Y-92517494D01*
X150410502Y-92407180D01*
X150446812Y-92287482D01*
X150459072Y-92163000D01*
X150459072Y-90463000D01*
X156626928Y-90463000D01*
X156626928Y-92163000D01*
X156639188Y-92287482D01*
X156675498Y-92407180D01*
X156734463Y-92517494D01*
X156813815Y-92614185D01*
X156910506Y-92693537D01*
X157020820Y-92752502D01*
X157093380Y-92774513D01*
X156961525Y-92906368D01*
X156799010Y-93149589D01*
X156687068Y-93419842D01*
X156630000Y-93706740D01*
X156630000Y-93999260D01*
X156687068Y-94286158D01*
X156799010Y-94556411D01*
X156961525Y-94799632D01*
X157168368Y-95006475D01*
X157342760Y-95123000D01*
X157168368Y-95239525D01*
X156961525Y-95446368D01*
X156799010Y-95689589D01*
X156687068Y-95959842D01*
X156630000Y-96246740D01*
X156630000Y-96539260D01*
X156687068Y-96826158D01*
X156799010Y-97096411D01*
X156961525Y-97339632D01*
X157168368Y-97546475D01*
X157342760Y-97663000D01*
X157168368Y-97779525D01*
X156961525Y-97986368D01*
X156799010Y-98229589D01*
X156687068Y-98499842D01*
X156630000Y-98786740D01*
X156630000Y-99079260D01*
X156687068Y-99366158D01*
X156799010Y-99636411D01*
X156961525Y-99879632D01*
X157168368Y-100086475D01*
X157342760Y-100203000D01*
X157168368Y-100319525D01*
X156961525Y-100526368D01*
X156799010Y-100769589D01*
X156687068Y-101039842D01*
X156630000Y-101326740D01*
X156630000Y-101619260D01*
X156687068Y-101906158D01*
X156799010Y-102176411D01*
X156961525Y-102419632D01*
X157168368Y-102626475D01*
X157350534Y-102748195D01*
X157233645Y-102817822D01*
X157017412Y-103012731D01*
X156843359Y-103246080D01*
X156718175Y-103508901D01*
X156673524Y-103656110D01*
X156794845Y-103886000D01*
X157988000Y-103886000D01*
X157988000Y-103866000D01*
X158242000Y-103866000D01*
X158242000Y-103886000D01*
X159435155Y-103886000D01*
X159556476Y-103656110D01*
X159511825Y-103508901D01*
X159386641Y-103246080D01*
X159212588Y-103012731D01*
X158996355Y-102817822D01*
X158879466Y-102748195D01*
X159061632Y-102626475D01*
X159268475Y-102419632D01*
X159430990Y-102176411D01*
X159542932Y-101906158D01*
X159600000Y-101619260D01*
X159600000Y-101326740D01*
X159542932Y-101039842D01*
X159430990Y-100769589D01*
X159268475Y-100526368D01*
X159061632Y-100319525D01*
X158887240Y-100203000D01*
X159061632Y-100086475D01*
X159268475Y-99879632D01*
X159430990Y-99636411D01*
X159542932Y-99366158D01*
X159600000Y-99079260D01*
X159600000Y-98786740D01*
X159542932Y-98499842D01*
X159430990Y-98229589D01*
X159268475Y-97986368D01*
X159061632Y-97779525D01*
X158887240Y-97663000D01*
X159061632Y-97546475D01*
X159110107Y-97498000D01*
X161502928Y-97498000D01*
X161502928Y-99098000D01*
X161515188Y-99222482D01*
X161551498Y-99342180D01*
X161610463Y-99452494D01*
X161689815Y-99549185D01*
X161786506Y-99628537D01*
X161841612Y-99657992D01*
X161826363Y-99673241D01*
X161669320Y-99908273D01*
X161561147Y-100169426D01*
X161506000Y-100446665D01*
X161506000Y-100729335D01*
X161561147Y-101006574D01*
X161669320Y-101267727D01*
X161826363Y-101502759D01*
X162026241Y-101702637D01*
X162071683Y-101733000D01*
X162026241Y-101763363D01*
X161826363Y-101963241D01*
X161669320Y-102198273D01*
X161561147Y-102459426D01*
X161506000Y-102736665D01*
X161506000Y-103019335D01*
X161561147Y-103296574D01*
X161669320Y-103557727D01*
X161826363Y-103792759D01*
X162026241Y-103992637D01*
X162071683Y-104023000D01*
X162026241Y-104053363D01*
X161826363Y-104253241D01*
X161669320Y-104488273D01*
X161561147Y-104749426D01*
X161506000Y-105026665D01*
X161506000Y-105309335D01*
X161561147Y-105586574D01*
X161669320Y-105847727D01*
X161826363Y-106082759D01*
X162026241Y-106282637D01*
X162156049Y-106369372D01*
X162127903Y-106465298D01*
X162941000Y-107278395D01*
X162955143Y-107264253D01*
X163134748Y-107443858D01*
X163120605Y-107458000D01*
X163933702Y-108271097D01*
X164177671Y-108199514D01*
X164298571Y-107944004D01*
X164367300Y-107669816D01*
X164368807Y-107639252D01*
X164434996Y-107670571D01*
X164709184Y-107739300D01*
X164991512Y-107753217D01*
X165271130Y-107711787D01*
X165473941Y-107639258D01*
X165521147Y-107876574D01*
X165629320Y-108137727D01*
X165786363Y-108372759D01*
X165986241Y-108572637D01*
X166221273Y-108729680D01*
X166482426Y-108837853D01*
X166759665Y-108893000D01*
X167042335Y-108893000D01*
X167319574Y-108837853D01*
X167580727Y-108729680D01*
X167815759Y-108572637D01*
X168015637Y-108372759D01*
X168172680Y-108137727D01*
X168280853Y-107876574D01*
X168336000Y-107599335D01*
X168336000Y-107316665D01*
X168280853Y-107039426D01*
X168172680Y-106778273D01*
X168015637Y-106543241D01*
X167815759Y-106343363D01*
X167770317Y-106313000D01*
X167815759Y-106282637D01*
X168015637Y-106082759D01*
X168172680Y-105847727D01*
X168280853Y-105586574D01*
X168336000Y-105309335D01*
X168336000Y-105026665D01*
X168280853Y-104749426D01*
X168172680Y-104488273D01*
X168015637Y-104253241D01*
X167815759Y-104053363D01*
X167770317Y-104023000D01*
X167815759Y-103992637D01*
X168015637Y-103792759D01*
X168172680Y-103557727D01*
X168280853Y-103296574D01*
X168336000Y-103019335D01*
X168336000Y-102736665D01*
X168280853Y-102459426D01*
X168172680Y-102198273D01*
X168015637Y-101963241D01*
X167815759Y-101763363D01*
X167770317Y-101733000D01*
X167815759Y-101702637D01*
X168015637Y-101502759D01*
X168172680Y-101267727D01*
X168280853Y-101006574D01*
X168336000Y-100729335D01*
X168336000Y-100446665D01*
X168280853Y-100169426D01*
X168172680Y-99908273D01*
X168015637Y-99673241D01*
X167815759Y-99473363D01*
X167770317Y-99443000D01*
X167815759Y-99412637D01*
X168015637Y-99212759D01*
X168172680Y-98977727D01*
X168280853Y-98716574D01*
X168336000Y-98439335D01*
X168336000Y-98156665D01*
X168280853Y-97879426D01*
X168172680Y-97618273D01*
X168015637Y-97383241D01*
X167815759Y-97183363D01*
X167580727Y-97026320D01*
X167319574Y-96918147D01*
X167042335Y-96863000D01*
X166759665Y-96863000D01*
X166482426Y-96918147D01*
X166345284Y-96974953D01*
X166319787Y-96802870D01*
X166224603Y-96536708D01*
X166157671Y-96411486D01*
X165913702Y-96339903D01*
X165100605Y-97153000D01*
X165114748Y-97167143D01*
X164935143Y-97346748D01*
X164921000Y-97332605D01*
X164906858Y-97346748D01*
X164727253Y-97167143D01*
X164741395Y-97153000D01*
X163928298Y-96339903D01*
X163684329Y-96411486D01*
X163563429Y-96666996D01*
X163515068Y-96859928D01*
X162141000Y-96859928D01*
X162016518Y-96872188D01*
X161896820Y-96908498D01*
X161786506Y-96967463D01*
X161689815Y-97046815D01*
X161610463Y-97143506D01*
X161551498Y-97253820D01*
X161515188Y-97373518D01*
X161502928Y-97498000D01*
X159110107Y-97498000D01*
X159268475Y-97339632D01*
X159430990Y-97096411D01*
X159542932Y-96826158D01*
X159600000Y-96539260D01*
X159600000Y-96246740D01*
X159582806Y-96160298D01*
X164107903Y-96160298D01*
X164921000Y-96973395D01*
X165734097Y-96160298D01*
X165662514Y-95916329D01*
X165407004Y-95795429D01*
X165132816Y-95726700D01*
X164850488Y-95712783D01*
X164570870Y-95754213D01*
X164304708Y-95849397D01*
X164179486Y-95916329D01*
X164107903Y-96160298D01*
X159582806Y-96160298D01*
X159542932Y-95959842D01*
X159430990Y-95689589D01*
X159268475Y-95446368D01*
X159061632Y-95239525D01*
X158887240Y-95123000D01*
X159061632Y-95006475D01*
X159268475Y-94799632D01*
X159430990Y-94556411D01*
X159542932Y-94286158D01*
X159600000Y-93999260D01*
X159600000Y-93706740D01*
X159542932Y-93419842D01*
X159430990Y-93149589D01*
X159268475Y-92906368D01*
X159136620Y-92774513D01*
X159209180Y-92752502D01*
X159319494Y-92693537D01*
X159416185Y-92614185D01*
X159495537Y-92517494D01*
X159554502Y-92407180D01*
X159590812Y-92287482D01*
X159603072Y-92163000D01*
X159603072Y-91960499D01*
X162693106Y-91960499D01*
X162909228Y-92327258D01*
X163369105Y-92567938D01*
X163867098Y-92714275D01*
X164384071Y-92760648D01*
X164900159Y-92705273D01*
X165395526Y-92550279D01*
X165812772Y-92327258D01*
X166028894Y-91960499D01*
X164361000Y-90292605D01*
X162693106Y-91960499D01*
X159603072Y-91960499D01*
X159603072Y-90463000D01*
X159590812Y-90338518D01*
X159554502Y-90218820D01*
X159510272Y-90136071D01*
X161713352Y-90136071D01*
X161768727Y-90652159D01*
X161923721Y-91147526D01*
X162146742Y-91564772D01*
X162513501Y-91780894D01*
X164181395Y-90113000D01*
X164540605Y-90113000D01*
X166208499Y-91780894D01*
X166575258Y-91564772D01*
X166815938Y-91104895D01*
X166962275Y-90606902D01*
X167008648Y-90089929D01*
X166953273Y-89573841D01*
X166798279Y-89078474D01*
X166575258Y-88661228D01*
X166208499Y-88445106D01*
X164540605Y-90113000D01*
X164181395Y-90113000D01*
X162513501Y-88445106D01*
X162146742Y-88661228D01*
X161906062Y-89121105D01*
X161759725Y-89619098D01*
X161713352Y-90136071D01*
X159510272Y-90136071D01*
X159495537Y-90108506D01*
X159416185Y-90011815D01*
X159319494Y-89932463D01*
X159209180Y-89873498D01*
X159089482Y-89837188D01*
X158965000Y-89824928D01*
X157265000Y-89824928D01*
X157140518Y-89837188D01*
X157020820Y-89873498D01*
X156910506Y-89932463D01*
X156813815Y-90011815D01*
X156734463Y-90108506D01*
X156675498Y-90218820D01*
X156639188Y-90338518D01*
X156626928Y-90463000D01*
X150459072Y-90463000D01*
X150446812Y-90338518D01*
X150410502Y-90218820D01*
X150351537Y-90108506D01*
X150272185Y-90011815D01*
X150175494Y-89932463D01*
X150065180Y-89873498D01*
X149945482Y-89837188D01*
X149821000Y-89824928D01*
X148121000Y-89824928D01*
X147996518Y-89837188D01*
X147876820Y-89873498D01*
X147766506Y-89932463D01*
X147669815Y-90011815D01*
X147590463Y-90108506D01*
X147531498Y-90218820D01*
X147495188Y-90338518D01*
X147482928Y-90463000D01*
X146833639Y-90463000D01*
X146832962Y-90461987D01*
X146647013Y-90276038D01*
X146428359Y-90129939D01*
X146185405Y-90029304D01*
X145927486Y-89978000D01*
X145664514Y-89978000D01*
X145406595Y-90029304D01*
X145163641Y-90129939D01*
X144944987Y-90276038D01*
X144759038Y-90461987D01*
X144612939Y-90680641D01*
X144512304Y-90923595D01*
X144461000Y-91181514D01*
X144461000Y-91444486D01*
X144512304Y-91702405D01*
X144612939Y-91945359D01*
X144759038Y-92164013D01*
X144944987Y-92349962D01*
X145163641Y-92496061D01*
X145373530Y-92583000D01*
X145163641Y-92669939D01*
X144944987Y-92816038D01*
X144759038Y-93001987D01*
X144612939Y-93220641D01*
X144512304Y-93463595D01*
X144461000Y-93721514D01*
X144461000Y-93984486D01*
X144512304Y-94242405D01*
X144612939Y-94485359D01*
X144759038Y-94704013D01*
X144944987Y-94889962D01*
X145163641Y-95036061D01*
X145373530Y-95123000D01*
X145163641Y-95209939D01*
X144944987Y-95356038D01*
X144759038Y-95541987D01*
X144612939Y-95760641D01*
X144512304Y-96003595D01*
X144461000Y-96261514D01*
X144461000Y-96524486D01*
X144512304Y-96782405D01*
X144612939Y-97025359D01*
X144759038Y-97244013D01*
X144944987Y-97429962D01*
X145163641Y-97576061D01*
X145373530Y-97663000D01*
X145163641Y-97749939D01*
X144944987Y-97896038D01*
X144759038Y-98081987D01*
X144612939Y-98300641D01*
X144512304Y-98543595D01*
X144461000Y-98801514D01*
X144461000Y-99064486D01*
X144512304Y-99322405D01*
X144612939Y-99565359D01*
X144759038Y-99784013D01*
X144944987Y-99969962D01*
X145163641Y-100116061D01*
X145373530Y-100203000D01*
X145163641Y-100289939D01*
X144944987Y-100436038D01*
X144759038Y-100621987D01*
X144612939Y-100840641D01*
X144512304Y-101083595D01*
X144461000Y-101341514D01*
X144461000Y-101604486D01*
X144512304Y-101862405D01*
X144520835Y-101883000D01*
X144374224Y-101883000D01*
X142719000Y-100227777D01*
X142719000Y-95292246D01*
X142723161Y-95250000D01*
X142706556Y-95081410D01*
X142657381Y-94919299D01*
X142629564Y-94867259D01*
X142577524Y-94769898D01*
X142470054Y-94638946D01*
X142437241Y-94612017D01*
X139829988Y-92004765D01*
X139803054Y-91971946D01*
X139672102Y-91864476D01*
X139522700Y-91784619D01*
X139434300Y-91757804D01*
X139436047Y-91754044D01*
X139468716Y-91646329D01*
X139345374Y-91440000D01*
X138303000Y-91440000D01*
X138303000Y-91460000D01*
X138049000Y-91460000D01*
X138049000Y-91440000D01*
X137006626Y-91440000D01*
X136883284Y-91646329D01*
X136906538Y-91723000D01*
X135611224Y-91723000D01*
X135407152Y-91518928D01*
X135420000Y-91454335D01*
X135420000Y-91171665D01*
X135381810Y-90979671D01*
X136883284Y-90979671D01*
X137006626Y-91186000D01*
X138049000Y-91186000D01*
X138049000Y-90142799D01*
X138303000Y-90142799D01*
X138303000Y-91186000D01*
X139345374Y-91186000D01*
X139468716Y-90979671D01*
X139436047Y-90871956D01*
X139325792Y-90634608D01*
X139171351Y-90423330D01*
X138978660Y-90246241D01*
X138755123Y-90110147D01*
X138509330Y-90020278D01*
X138303000Y-90142799D01*
X138049000Y-90142799D01*
X137842670Y-90020278D01*
X137596877Y-90110147D01*
X137373340Y-90246241D01*
X137180649Y-90423330D01*
X137026208Y-90634608D01*
X136915953Y-90871956D01*
X136883284Y-90979671D01*
X135381810Y-90979671D01*
X135364853Y-90894426D01*
X135256680Y-90633273D01*
X135099637Y-90398241D01*
X134899759Y-90198363D01*
X134664727Y-90041320D01*
X134403574Y-89933147D01*
X134126335Y-89878000D01*
X133843665Y-89878000D01*
X133566426Y-89933147D01*
X133305273Y-90041320D01*
X133070241Y-90198363D01*
X132870363Y-90398241D01*
X132713320Y-90633273D01*
X132605147Y-90894426D01*
X132550000Y-91171665D01*
X127803072Y-91171665D01*
X127803072Y-90513000D01*
X127790812Y-90388518D01*
X127754502Y-90268820D01*
X127695537Y-90158506D01*
X127616185Y-90061815D01*
X127519494Y-89982463D01*
X127409180Y-89923498D01*
X127289482Y-89887188D01*
X127165000Y-89874928D01*
X125565000Y-89874928D01*
X125440518Y-89887188D01*
X125320820Y-89923498D01*
X125210506Y-89982463D01*
X125113815Y-90061815D01*
X125034463Y-90158506D01*
X124975498Y-90268820D01*
X124939188Y-90388518D01*
X124926928Y-90513000D01*
X122860272Y-90513000D01*
X122893648Y-90140929D01*
X122838273Y-89624841D01*
X122683279Y-89129474D01*
X122460258Y-88712228D01*
X122093499Y-88496106D01*
X120425605Y-90164000D01*
X120066395Y-90164000D01*
X118398501Y-88496106D01*
X118031742Y-88712228D01*
X117791062Y-89172105D01*
X117644725Y-89670098D01*
X117598352Y-90187071D01*
X111454000Y-90187071D01*
X111454000Y-88316501D01*
X118578106Y-88316501D01*
X120246000Y-89984395D01*
X121913894Y-88316501D01*
X121883841Y-88265501D01*
X162693106Y-88265501D01*
X164361000Y-89933395D01*
X166028894Y-88265501D01*
X165812772Y-87898742D01*
X165352895Y-87658062D01*
X164854902Y-87511725D01*
X164337929Y-87465352D01*
X163821841Y-87520727D01*
X163326474Y-87675721D01*
X162909228Y-87898742D01*
X162693106Y-88265501D01*
X121883841Y-88265501D01*
X121697772Y-87949742D01*
X121237895Y-87709062D01*
X120739902Y-87562725D01*
X120222929Y-87516352D01*
X119706841Y-87571727D01*
X119211474Y-87726721D01*
X118794228Y-87949742D01*
X118578106Y-88316501D01*
X111454000Y-88316501D01*
X111454000Y-87451000D01*
X174550000Y-87451000D01*
X174550001Y-117654000D01*
%TA.AperFunction,Conductor*%
D24*
G36*
X174550001Y-117654000D02*
G01*
X165064030Y-117654000D01*
X165395526Y-117550279D01*
X165812772Y-117327258D01*
X166028894Y-116960499D01*
X164361000Y-115292605D01*
X162693106Y-116960499D01*
X162909228Y-117327258D01*
X163369105Y-117567938D01*
X163661979Y-117654000D01*
X121112028Y-117654000D01*
X121280526Y-117601279D01*
X121697772Y-117378258D01*
X121913894Y-117011499D01*
X120246000Y-115343605D01*
X118578106Y-117011499D01*
X118794228Y-117378258D01*
X119254105Y-117618938D01*
X119373423Y-117654000D01*
X111454000Y-117654000D01*
X111454000Y-115187071D01*
X117598352Y-115187071D01*
X117653727Y-115703159D01*
X117808721Y-116198526D01*
X118031742Y-116615772D01*
X118398501Y-116831894D01*
X120066395Y-115164000D01*
X120425605Y-115164000D01*
X122093499Y-116831894D01*
X122460258Y-116615772D01*
X122700938Y-116155895D01*
X122847275Y-115657902D01*
X122893648Y-115140929D01*
X122838273Y-114624841D01*
X122806108Y-114522039D01*
X124973096Y-114522039D01*
X125013754Y-114656087D01*
X125133963Y-114910420D01*
X125301481Y-115136414D01*
X125509869Y-115325385D01*
X125751119Y-115470070D01*
X126015960Y-115564909D01*
X126238000Y-115443624D01*
X126238000Y-114300000D01*
X126492000Y-114300000D01*
X126492000Y-115443624D01*
X126714040Y-115564909D01*
X126978881Y-115470070D01*
X127220131Y-115325385D01*
X127428519Y-115136414D01*
X127596037Y-114910420D01*
X127716246Y-114656087D01*
X127756904Y-114522039D01*
X127634915Y-114300000D01*
X126492000Y-114300000D01*
X126238000Y-114300000D01*
X125095085Y-114300000D01*
X124973096Y-114522039D01*
X122806108Y-114522039D01*
X122683279Y-114129474D01*
X122460258Y-113712228D01*
X122093499Y-113496106D01*
X120425605Y-115164000D01*
X120066395Y-115164000D01*
X118398501Y-113496106D01*
X118031742Y-113712228D01*
X117791062Y-114172105D01*
X117644725Y-114670098D01*
X117598352Y-115187071D01*
X111454000Y-115187071D01*
X111454000Y-113316501D01*
X118578106Y-113316501D01*
X120246000Y-114984395D01*
X121913894Y-113316501D01*
X121697772Y-112949742D01*
X121237895Y-112709062D01*
X120739902Y-112562725D01*
X120222929Y-112516352D01*
X119706841Y-112571727D01*
X119211474Y-112726721D01*
X118794228Y-112949742D01*
X118578106Y-113316501D01*
X111454000Y-113316501D01*
X111454000Y-109004000D01*
X120227928Y-109004000D01*
X120240188Y-109128482D01*
X120276498Y-109248180D01*
X120335463Y-109358494D01*
X120414815Y-109455185D01*
X120511506Y-109534537D01*
X120621820Y-109593502D01*
X120741518Y-109629812D01*
X120866000Y-109642072D01*
X121380250Y-109639000D01*
X121539000Y-109480250D01*
X121539000Y-108331000D01*
X121793000Y-108331000D01*
X121793000Y-109480250D01*
X121951750Y-109639000D01*
X122466000Y-109642072D01*
X122590482Y-109629812D01*
X122710180Y-109593502D01*
X122820494Y-109534537D01*
X122917185Y-109455185D01*
X122996537Y-109358494D01*
X123055502Y-109248180D01*
X123091812Y-109128482D01*
X123104072Y-109004000D01*
X123101000Y-108489750D01*
X122942250Y-108331000D01*
X121793000Y-108331000D01*
X121539000Y-108331000D01*
X120389750Y-108331000D01*
X120231000Y-108489750D01*
X120227928Y-109004000D01*
X111454000Y-109004000D01*
X111454000Y-98367665D01*
X117391000Y-98367665D01*
X117391000Y-98650335D01*
X117446147Y-98927574D01*
X117554320Y-99188727D01*
X117711363Y-99423759D01*
X117911241Y-99623637D01*
X118146273Y-99780680D01*
X118407426Y-99888853D01*
X118433301Y-99894000D01*
X118407426Y-99899147D01*
X118146273Y-100007320D01*
X117911241Y-100164363D01*
X117711363Y-100364241D01*
X117554320Y-100599273D01*
X117446147Y-100860426D01*
X117391000Y-101137665D01*
X117391000Y-101420335D01*
X117446147Y-101697574D01*
X117554320Y-101958727D01*
X117711363Y-102193759D01*
X117911241Y-102393637D01*
X118146273Y-102550680D01*
X118407426Y-102658853D01*
X118433301Y-102664000D01*
X118407426Y-102669147D01*
X118146273Y-102777320D01*
X117911241Y-102934363D01*
X117711363Y-103134241D01*
X117554320Y-103369273D01*
X117446147Y-103630426D01*
X117391000Y-103907665D01*
X117391000Y-104190335D01*
X117446147Y-104467574D01*
X117554320Y-104728727D01*
X117711363Y-104963759D01*
X117911241Y-105163637D01*
X118146273Y-105320680D01*
X118407426Y-105428853D01*
X118433301Y-105434000D01*
X118407426Y-105439147D01*
X118146273Y-105547320D01*
X117911241Y-105704363D01*
X117711363Y-105904241D01*
X117554320Y-106139273D01*
X117446147Y-106400426D01*
X117391000Y-106677665D01*
X117391000Y-106960335D01*
X117446147Y-107237574D01*
X117554320Y-107498727D01*
X117711363Y-107733759D01*
X117911241Y-107933637D01*
X118146273Y-108090680D01*
X118407426Y-108198853D01*
X118684665Y-108254000D01*
X118967335Y-108254000D01*
X119244574Y-108198853D01*
X119505727Y-108090680D01*
X119740759Y-107933637D01*
X119940637Y-107733759D01*
X120097680Y-107498727D01*
X120136917Y-107404000D01*
X120227928Y-107404000D01*
X120231000Y-107918250D01*
X120389750Y-108077000D01*
X121539000Y-108077000D01*
X121539000Y-108057000D01*
X121793000Y-108057000D01*
X121793000Y-108077000D01*
X122942250Y-108077000D01*
X123101000Y-107918250D01*
X123104072Y-107404000D01*
X123091812Y-107279518D01*
X123055502Y-107159820D01*
X122996537Y-107049506D01*
X122917185Y-106952815D01*
X122820494Y-106873463D01*
X122710180Y-106814498D01*
X122590482Y-106778188D01*
X122466000Y-106765928D01*
X122196387Y-106767539D01*
X122345727Y-106705680D01*
X122580759Y-106548637D01*
X122780637Y-106348759D01*
X122937680Y-106113727D01*
X123045853Y-105852574D01*
X123101000Y-105575335D01*
X123101000Y-105292665D01*
X123045853Y-105015426D01*
X122937680Y-104754273D01*
X122780637Y-104519241D01*
X122580759Y-104319363D01*
X122345727Y-104162320D01*
X122084574Y-104054147D01*
X122058699Y-104049000D01*
X122084574Y-104043853D01*
X122345727Y-103935680D01*
X122580759Y-103778637D01*
X122780637Y-103578759D01*
X122937680Y-103343727D01*
X123045853Y-103082574D01*
X123101000Y-102805335D01*
X123101000Y-102522665D01*
X123045853Y-102245426D01*
X122937680Y-101984273D01*
X122780637Y-101749241D01*
X122580759Y-101549363D01*
X122345727Y-101392320D01*
X122084574Y-101284147D01*
X122058699Y-101279000D01*
X122084574Y-101273853D01*
X122345727Y-101165680D01*
X122580759Y-101008637D01*
X122780637Y-100808759D01*
X122937680Y-100573727D01*
X123045853Y-100312574D01*
X123101000Y-100035335D01*
X123101000Y-99752665D01*
X123045853Y-99475426D01*
X122937680Y-99214273D01*
X122780637Y-98979241D01*
X122580759Y-98779363D01*
X122345727Y-98622320D01*
X122084574Y-98514147D01*
X122058699Y-98509000D01*
X122084574Y-98503853D01*
X122345727Y-98395680D01*
X122580759Y-98238637D01*
X122780637Y-98038759D01*
X122937680Y-97803727D01*
X123045853Y-97542574D01*
X123101000Y-97265335D01*
X123101000Y-96982665D01*
X123045853Y-96705426D01*
X122937680Y-96444273D01*
X122780637Y-96209241D01*
X122580759Y-96009363D01*
X122345727Y-95852320D01*
X122084574Y-95744147D01*
X121807335Y-95689000D01*
X121524665Y-95689000D01*
X121247426Y-95744147D01*
X120986273Y-95852320D01*
X120751241Y-96009363D01*
X120551363Y-96209241D01*
X120394320Y-96444273D01*
X120286147Y-96705426D01*
X120231000Y-96982665D01*
X120231000Y-97265335D01*
X120286147Y-97542574D01*
X120394320Y-97803727D01*
X120551363Y-98038759D01*
X120751241Y-98238637D01*
X120986273Y-98395680D01*
X121247426Y-98503853D01*
X121273301Y-98509000D01*
X121247426Y-98514147D01*
X120986273Y-98622320D01*
X120751241Y-98779363D01*
X120551363Y-98979241D01*
X120394320Y-99214273D01*
X120286147Y-99475426D01*
X120231000Y-99752665D01*
X120231000Y-100035335D01*
X120286147Y-100312574D01*
X120394320Y-100573727D01*
X120551363Y-100808759D01*
X120751241Y-101008637D01*
X120986273Y-101165680D01*
X121247426Y-101273853D01*
X121273301Y-101279000D01*
X121247426Y-101284147D01*
X120986273Y-101392320D01*
X120751241Y-101549363D01*
X120551363Y-101749241D01*
X120394320Y-101984273D01*
X120286147Y-102245426D01*
X120231000Y-102522665D01*
X120231000Y-102805335D01*
X120286147Y-103082574D01*
X120394320Y-103343727D01*
X120551363Y-103578759D01*
X120751241Y-103778637D01*
X120986273Y-103935680D01*
X121247426Y-104043853D01*
X121273301Y-104049000D01*
X121247426Y-104054147D01*
X120986273Y-104162320D01*
X120751241Y-104319363D01*
X120551363Y-104519241D01*
X120394320Y-104754273D01*
X120286147Y-105015426D01*
X120231000Y-105292665D01*
X120231000Y-105575335D01*
X120286147Y-105852574D01*
X120394320Y-106113727D01*
X120551363Y-106348759D01*
X120751241Y-106548637D01*
X120986273Y-106705680D01*
X121135613Y-106767539D01*
X120866000Y-106765928D01*
X120741518Y-106778188D01*
X120621820Y-106814498D01*
X120511506Y-106873463D01*
X120414815Y-106952815D01*
X120335463Y-107049506D01*
X120276498Y-107159820D01*
X120240188Y-107279518D01*
X120227928Y-107404000D01*
X120136917Y-107404000D01*
X120205853Y-107237574D01*
X120261000Y-106960335D01*
X120261000Y-106677665D01*
X120205853Y-106400426D01*
X120097680Y-106139273D01*
X119940637Y-105904241D01*
X119740759Y-105704363D01*
X119505727Y-105547320D01*
X119244574Y-105439147D01*
X119218699Y-105434000D01*
X119244574Y-105428853D01*
X119505727Y-105320680D01*
X119740759Y-105163637D01*
X119940637Y-104963759D01*
X120097680Y-104728727D01*
X120205853Y-104467574D01*
X120261000Y-104190335D01*
X120261000Y-103907665D01*
X120205853Y-103630426D01*
X120097680Y-103369273D01*
X119940637Y-103134241D01*
X119740759Y-102934363D01*
X119505727Y-102777320D01*
X119244574Y-102669147D01*
X119218699Y-102664000D01*
X119244574Y-102658853D01*
X119505727Y-102550680D01*
X119740759Y-102393637D01*
X119940637Y-102193759D01*
X120097680Y-101958727D01*
X120205853Y-101697574D01*
X120261000Y-101420335D01*
X120261000Y-101137665D01*
X120205853Y-100860426D01*
X120097680Y-100599273D01*
X119940637Y-100364241D01*
X119740759Y-100164363D01*
X119505727Y-100007320D01*
X119244574Y-99899147D01*
X119218699Y-99894000D01*
X119244574Y-99888853D01*
X119505727Y-99780680D01*
X119740759Y-99623637D01*
X119940637Y-99423759D01*
X120097680Y-99188727D01*
X120205853Y-98927574D01*
X120261000Y-98650335D01*
X120261000Y-98367665D01*
X120205853Y-98090426D01*
X120097680Y-97829273D01*
X119940637Y-97594241D01*
X119740759Y-97394363D01*
X119505727Y-97237320D01*
X119244574Y-97129147D01*
X118967335Y-97074000D01*
X118684665Y-97074000D01*
X118407426Y-97129147D01*
X118146273Y-97237320D01*
X117911241Y-97394363D01*
X117711363Y-97594241D01*
X117554320Y-97829273D01*
X117446147Y-98090426D01*
X117391000Y-98367665D01*
X111454000Y-98367665D01*
X111454000Y-92011499D01*
X118578106Y-92011499D01*
X118794228Y-92378258D01*
X119254105Y-92618938D01*
X119752098Y-92765275D01*
X120269071Y-92811648D01*
X120785159Y-92756273D01*
X121280526Y-92601279D01*
X121697772Y-92378258D01*
X121913894Y-92011499D01*
X120246000Y-90343605D01*
X118578106Y-92011499D01*
X111454000Y-92011499D01*
X111454000Y-90187071D01*
X117598352Y-90187071D01*
X117653727Y-90703159D01*
X117808721Y-91198526D01*
X118031742Y-91615772D01*
X118398501Y-91831894D01*
X120066395Y-90164000D01*
X120425605Y-90164000D01*
X122093499Y-91831894D01*
X122460258Y-91615772D01*
X122700938Y-91155895D01*
X122847275Y-90657902D01*
X122860272Y-90513000D01*
X124926928Y-90513000D01*
X124926928Y-92113000D01*
X124939188Y-92237482D01*
X124975498Y-92357180D01*
X125034463Y-92467494D01*
X125113815Y-92564185D01*
X125210506Y-92643537D01*
X125320820Y-92702502D01*
X125440518Y-92738812D01*
X125448961Y-92739643D01*
X125250363Y-92938241D01*
X125093320Y-93173273D01*
X124985147Y-93434426D01*
X124930000Y-93711665D01*
X124930000Y-93994335D01*
X124985147Y-94271574D01*
X125093320Y-94532727D01*
X125250363Y-94767759D01*
X125450241Y-94967637D01*
X125682759Y-95123000D01*
X125450241Y-95278363D01*
X125250363Y-95478241D01*
X125093320Y-95713273D01*
X124985147Y-95974426D01*
X124930000Y-96251665D01*
X124930000Y-96534335D01*
X124985147Y-96811574D01*
X125093320Y-97072727D01*
X125250363Y-97307759D01*
X125450241Y-97507637D01*
X125682759Y-97663000D01*
X125450241Y-97818363D01*
X125250363Y-98018241D01*
X125093320Y-98253273D01*
X124985147Y-98514426D01*
X124930000Y-98791665D01*
X124930000Y-99074335D01*
X124985147Y-99351574D01*
X125093320Y-99612727D01*
X125250363Y-99847759D01*
X125450241Y-100047637D01*
X125682759Y-100203000D01*
X125450241Y-100358363D01*
X125250363Y-100558241D01*
X125093320Y-100793273D01*
X124985147Y-101054426D01*
X124930000Y-101331665D01*
X124930000Y-101614335D01*
X124985147Y-101891574D01*
X125093320Y-102152727D01*
X125250363Y-102387759D01*
X125450241Y-102587637D01*
X125682759Y-102743000D01*
X125450241Y-102898363D01*
X125250363Y-103098241D01*
X125093320Y-103333273D01*
X124985147Y-103594426D01*
X124930000Y-103871665D01*
X124930000Y-104154335D01*
X124985147Y-104431574D01*
X125093320Y-104692727D01*
X125250363Y-104927759D01*
X125450241Y-105127637D01*
X125682759Y-105283000D01*
X125450241Y-105438363D01*
X125250363Y-105638241D01*
X125093320Y-105873273D01*
X124985147Y-106134426D01*
X124930000Y-106411665D01*
X124930000Y-106694335D01*
X124985147Y-106971574D01*
X125093320Y-107232727D01*
X125250363Y-107467759D01*
X125450241Y-107667637D01*
X125682759Y-107823000D01*
X125450241Y-107978363D01*
X125250363Y-108178241D01*
X125093320Y-108413273D01*
X124985147Y-108674426D01*
X124930000Y-108951665D01*
X124930000Y-109234335D01*
X124985147Y-109511574D01*
X125093320Y-109772727D01*
X125250363Y-110007759D01*
X125450241Y-110207637D01*
X125682759Y-110363000D01*
X125450241Y-110518363D01*
X125250363Y-110718241D01*
X125093320Y-110953273D01*
X124985147Y-111214426D01*
X124930000Y-111491665D01*
X124930000Y-111774335D01*
X124985147Y-112051574D01*
X125093320Y-112312727D01*
X125250363Y-112547759D01*
X125450241Y-112747637D01*
X125685273Y-112904680D01*
X125695865Y-112909067D01*
X125509869Y-113020615D01*
X125301481Y-113209586D01*
X125133963Y-113435580D01*
X125013754Y-113689913D01*
X124973096Y-113823961D01*
X125095085Y-114046000D01*
X126238000Y-114046000D01*
X126238000Y-114026000D01*
X126492000Y-114026000D01*
X126492000Y-114046000D01*
X127634915Y-114046000D01*
X127756904Y-113823961D01*
X127716246Y-113689913D01*
X127596037Y-113435580D01*
X127428519Y-113209586D01*
X127220131Y-113020615D01*
X127034135Y-112909067D01*
X127044727Y-112904680D01*
X127279759Y-112747637D01*
X127479637Y-112547759D01*
X127636680Y-112312727D01*
X127744853Y-112051574D01*
X127800000Y-111774335D01*
X127800000Y-111491665D01*
X127744853Y-111214426D01*
X127636680Y-110953273D01*
X127479637Y-110718241D01*
X127279759Y-110518363D01*
X127047241Y-110363000D01*
X127279759Y-110207637D01*
X127479637Y-110007759D01*
X127636680Y-109772727D01*
X127744853Y-109511574D01*
X127800000Y-109234335D01*
X127800000Y-108951665D01*
X127744853Y-108674426D01*
X127636680Y-108413273D01*
X127479637Y-108178241D01*
X127279759Y-107978363D01*
X127047241Y-107823000D01*
X127279759Y-107667637D01*
X127479637Y-107467759D01*
X127636680Y-107232727D01*
X127744853Y-106971574D01*
X127800000Y-106694335D01*
X127800000Y-106411665D01*
X127744853Y-106134426D01*
X127636680Y-105873273D01*
X127479637Y-105638241D01*
X127279759Y-105438363D01*
X127047241Y-105283000D01*
X127279759Y-105127637D01*
X127479637Y-104927759D01*
X127636680Y-104692727D01*
X127744853Y-104431574D01*
X127800000Y-104154335D01*
X127800000Y-103871665D01*
X127744853Y-103594426D01*
X127636680Y-103333273D01*
X127479637Y-103098241D01*
X127279759Y-102898363D01*
X127047241Y-102743000D01*
X127279759Y-102587637D01*
X127479637Y-102387759D01*
X127636680Y-102152727D01*
X127744853Y-101891574D01*
X127800000Y-101614335D01*
X127800000Y-101331665D01*
X127744853Y-101054426D01*
X127636680Y-100793273D01*
X127479637Y-100558241D01*
X127279759Y-100358363D01*
X127047241Y-100203000D01*
X127279759Y-100047637D01*
X127479637Y-99847759D01*
X127636680Y-99612727D01*
X127744853Y-99351574D01*
X127800000Y-99074335D01*
X127800000Y-98791665D01*
X127744853Y-98514426D01*
X127636680Y-98253273D01*
X127479637Y-98018241D01*
X127279759Y-97818363D01*
X127047241Y-97663000D01*
X127279759Y-97507637D01*
X127479637Y-97307759D01*
X127636680Y-97072727D01*
X127744853Y-96811574D01*
X127800000Y-96534335D01*
X127800000Y-96251665D01*
X127744853Y-95974426D01*
X127636680Y-95713273D01*
X127479637Y-95478241D01*
X127279759Y-95278363D01*
X127047241Y-95123000D01*
X127279759Y-94967637D01*
X127479637Y-94767759D01*
X127636680Y-94532727D01*
X127744853Y-94271574D01*
X127800000Y-93994335D01*
X127800000Y-93711665D01*
X127744853Y-93434426D01*
X127636680Y-93173273D01*
X127479637Y-92938241D01*
X127281039Y-92739643D01*
X127289482Y-92738812D01*
X127409180Y-92702502D01*
X127519494Y-92643537D01*
X127616185Y-92564185D01*
X127695537Y-92467494D01*
X127754502Y-92357180D01*
X127790812Y-92237482D01*
X127803072Y-92113000D01*
X127803072Y-91171665D01*
X132550000Y-91171665D01*
X132550000Y-91454335D01*
X132605147Y-91731574D01*
X132713320Y-91992727D01*
X132870363Y-92227759D01*
X133070241Y-92427637D01*
X133302759Y-92583000D01*
X133070241Y-92738363D01*
X132870363Y-92938241D01*
X132713320Y-93173273D01*
X132605147Y-93434426D01*
X132550000Y-93711665D01*
X132550000Y-93994335D01*
X132605147Y-94271574D01*
X132713320Y-94532727D01*
X132870363Y-94767759D01*
X133070241Y-94967637D01*
X133302759Y-95123000D01*
X133070241Y-95278363D01*
X132870363Y-95478241D01*
X132713320Y-95713273D01*
X132605147Y-95974426D01*
X132550000Y-96251665D01*
X132550000Y-96534335D01*
X132605147Y-96811574D01*
X132713320Y-97072727D01*
X132870363Y-97307759D01*
X133070241Y-97507637D01*
X133302759Y-97663000D01*
X133070241Y-97818363D01*
X132870363Y-98018241D01*
X132713320Y-98253273D01*
X132605147Y-98514426D01*
X132550000Y-98791665D01*
X132550000Y-99074335D01*
X132605147Y-99351574D01*
X132713320Y-99612727D01*
X132870363Y-99847759D01*
X133070241Y-100047637D01*
X133302759Y-100203000D01*
X133070241Y-100358363D01*
X132870363Y-100558241D01*
X132713320Y-100793273D01*
X132605147Y-101054426D01*
X132550000Y-101331665D01*
X132550000Y-101614335D01*
X132605147Y-101891574D01*
X132713320Y-102152727D01*
X132870363Y-102387759D01*
X133070241Y-102587637D01*
X133302759Y-102743000D01*
X133070241Y-102898363D01*
X132870363Y-103098241D01*
X132713320Y-103333273D01*
X132605147Y-103594426D01*
X132550000Y-103871665D01*
X132550000Y-104154335D01*
X132605147Y-104431574D01*
X132713320Y-104692727D01*
X132870363Y-104927759D01*
X133070241Y-105127637D01*
X133302759Y-105283000D01*
X133070241Y-105438363D01*
X132870363Y-105638241D01*
X132713320Y-105873273D01*
X132605147Y-106134426D01*
X132550000Y-106411665D01*
X132550000Y-106694335D01*
X132605147Y-106971574D01*
X132713320Y-107232727D01*
X132870363Y-107467759D01*
X133070241Y-107667637D01*
X133302759Y-107823000D01*
X133070241Y-107978363D01*
X132870363Y-108178241D01*
X132713320Y-108413273D01*
X132605147Y-108674426D01*
X132550000Y-108951665D01*
X132550000Y-109234335D01*
X132605147Y-109511574D01*
X132713320Y-109772727D01*
X132870363Y-110007759D01*
X133070241Y-110207637D01*
X133302759Y-110363000D01*
X133070241Y-110518363D01*
X132870363Y-110718241D01*
X132713320Y-110953273D01*
X132605147Y-111214426D01*
X132550000Y-111491665D01*
X132550000Y-111774335D01*
X132605147Y-112051574D01*
X132713320Y-112312727D01*
X132870363Y-112547759D01*
X133070241Y-112747637D01*
X133302759Y-112903000D01*
X133070241Y-113058363D01*
X132870363Y-113258241D01*
X132713320Y-113493273D01*
X132605147Y-113754426D01*
X132550000Y-114031665D01*
X132550000Y-114314335D01*
X132605147Y-114591574D01*
X132713320Y-114852727D01*
X132870363Y-115087759D01*
X133070241Y-115287637D01*
X133305273Y-115444680D01*
X133566426Y-115552853D01*
X133843665Y-115608000D01*
X134126335Y-115608000D01*
X134403574Y-115552853D01*
X134664727Y-115444680D01*
X134899759Y-115287637D01*
X135099637Y-115087759D01*
X135256680Y-114852727D01*
X135364853Y-114591574D01*
X135420000Y-114314335D01*
X135420000Y-114031665D01*
X135380085Y-113831000D01*
X136814928Y-113831000D01*
X136814928Y-115531000D01*
X136827188Y-115655482D01*
X136863498Y-115775180D01*
X136922463Y-115885494D01*
X137001815Y-115982185D01*
X137098506Y-116061537D01*
X137208820Y-116120502D01*
X137328518Y-116156812D01*
X137453000Y-116169072D01*
X139153000Y-116169072D01*
X139277482Y-116156812D01*
X139397180Y-116120502D01*
X139507494Y-116061537D01*
X139604185Y-115982185D01*
X139683537Y-115885494D01*
X139742502Y-115775180D01*
X139764513Y-115702620D01*
X139896368Y-115834475D01*
X140139589Y-115996990D01*
X140409842Y-116108932D01*
X140696740Y-116166000D01*
X140989260Y-116166000D01*
X141276158Y-116108932D01*
X141546411Y-115996990D01*
X141789632Y-115834475D01*
X141996475Y-115627632D01*
X142113000Y-115453240D01*
X142229525Y-115627632D01*
X142436368Y-115834475D01*
X142679589Y-115996990D01*
X142949842Y-116108932D01*
X143236740Y-116166000D01*
X143529260Y-116166000D01*
X143816158Y-116108932D01*
X144086411Y-115996990D01*
X144329632Y-115834475D01*
X144405107Y-115759000D01*
X146476000Y-115759000D01*
X146476000Y-116309000D01*
X146526428Y-116567005D01*
X146626221Y-116810215D01*
X146771545Y-117029283D01*
X146956815Y-117215790D01*
X147174910Y-117362569D01*
X147417450Y-117463980D01*
X147477671Y-117474716D01*
X147684000Y-117351374D01*
X147684000Y-115759000D01*
X147938000Y-115759000D01*
X147938000Y-117351374D01*
X148144329Y-117474716D01*
X148204550Y-117463980D01*
X148447090Y-117362569D01*
X148665185Y-117215790D01*
X148850455Y-117029283D01*
X148995779Y-116810215D01*
X149095572Y-116567005D01*
X149146000Y-116309000D01*
X149146000Y-115759000D01*
X153876000Y-115759000D01*
X153876000Y-116309000D01*
X153926428Y-116567005D01*
X154026221Y-116810215D01*
X154171545Y-117029283D01*
X154356815Y-117215790D01*
X154574910Y-117362569D01*
X154817450Y-117463980D01*
X154877671Y-117474716D01*
X155084000Y-117351374D01*
X155084000Y-115759000D01*
X155338000Y-115759000D01*
X155338000Y-117351374D01*
X155544329Y-117474716D01*
X155604550Y-117463980D01*
X155847090Y-117362569D01*
X156065185Y-117215790D01*
X156250455Y-117029283D01*
X156395779Y-116810215D01*
X156495572Y-116567005D01*
X156546000Y-116309000D01*
X156546000Y-115759000D01*
X155338000Y-115759000D01*
X155084000Y-115759000D01*
X153876000Y-115759000D01*
X149146000Y-115759000D01*
X147938000Y-115759000D01*
X147684000Y-115759000D01*
X146476000Y-115759000D01*
X144405107Y-115759000D01*
X144536475Y-115627632D01*
X144698990Y-115384411D01*
X144810932Y-115114158D01*
X144842590Y-114955000D01*
X146476000Y-114955000D01*
X146476000Y-115505000D01*
X147684000Y-115505000D01*
X147684000Y-113912626D01*
X147938000Y-113912626D01*
X147938000Y-115505000D01*
X149146000Y-115505000D01*
X149146000Y-114955000D01*
X153876000Y-114955000D01*
X153876000Y-115505000D01*
X155084000Y-115505000D01*
X155084000Y-113912626D01*
X155338000Y-113912626D01*
X155338000Y-115505000D01*
X156546000Y-115505000D01*
X156546000Y-114955000D01*
X156495572Y-114696995D01*
X156479117Y-114656890D01*
X156673524Y-114656890D01*
X156718175Y-114804099D01*
X156843359Y-115066920D01*
X157017412Y-115300269D01*
X157233645Y-115495178D01*
X157483748Y-115644157D01*
X157758109Y-115741481D01*
X157988000Y-115620814D01*
X157988000Y-114427000D01*
X158242000Y-114427000D01*
X158242000Y-115620814D01*
X158471891Y-115741481D01*
X158746252Y-115644157D01*
X158996355Y-115495178D01*
X159212588Y-115300269D01*
X159335061Y-115136071D01*
X161713352Y-115136071D01*
X161768727Y-115652159D01*
X161923721Y-116147526D01*
X162146742Y-116564772D01*
X162513501Y-116780894D01*
X164181395Y-115113000D01*
X164540605Y-115113000D01*
X166208499Y-116780894D01*
X166575258Y-116564772D01*
X166815938Y-116104895D01*
X166962275Y-115606902D01*
X167008648Y-115089929D01*
X166953273Y-114573841D01*
X166798279Y-114078474D01*
X166575258Y-113661228D01*
X166208499Y-113445106D01*
X164540605Y-115113000D01*
X164181395Y-115113000D01*
X162513501Y-113445106D01*
X162146742Y-113661228D01*
X161906062Y-114121105D01*
X161759725Y-114619098D01*
X161713352Y-115136071D01*
X159335061Y-115136071D01*
X159386641Y-115066920D01*
X159511825Y-114804099D01*
X159556476Y-114656890D01*
X159435155Y-114427000D01*
X158242000Y-114427000D01*
X157988000Y-114427000D01*
X156794845Y-114427000D01*
X156673524Y-114656890D01*
X156479117Y-114656890D01*
X156395779Y-114453785D01*
X156250455Y-114234717D01*
X156065185Y-114048210D01*
X155847090Y-113901431D01*
X155604550Y-113800020D01*
X155544329Y-113789284D01*
X155338000Y-113912626D01*
X155084000Y-113912626D01*
X154877671Y-113789284D01*
X154817450Y-113800020D01*
X154574910Y-113901431D01*
X154356815Y-114048210D01*
X154171545Y-114234717D01*
X154026221Y-114453785D01*
X153926428Y-114696995D01*
X153876000Y-114955000D01*
X149146000Y-114955000D01*
X149095572Y-114696995D01*
X148995779Y-114453785D01*
X148850455Y-114234717D01*
X148665185Y-114048210D01*
X148447090Y-113901431D01*
X148204550Y-113800020D01*
X148144329Y-113789284D01*
X147938000Y-113912626D01*
X147684000Y-113912626D01*
X147477671Y-113789284D01*
X147417450Y-113800020D01*
X147174910Y-113901431D01*
X146956815Y-114048210D01*
X146771545Y-114234717D01*
X146626221Y-114453785D01*
X146526428Y-114696995D01*
X146476000Y-114955000D01*
X144842590Y-114955000D01*
X144868000Y-114827260D01*
X144868000Y-114534740D01*
X144810932Y-114247842D01*
X144698990Y-113977589D01*
X144536475Y-113734368D01*
X144329632Y-113527525D01*
X144153594Y-113409900D01*
X144383269Y-113238588D01*
X144578178Y-113022355D01*
X144727157Y-112772252D01*
X144824481Y-112497891D01*
X144703814Y-112268000D01*
X143510000Y-112268000D01*
X143510000Y-112288000D01*
X143256000Y-112288000D01*
X143256000Y-112268000D01*
X140970000Y-112268000D01*
X140970000Y-112288000D01*
X140716000Y-112288000D01*
X140716000Y-112268000D01*
X138430000Y-112268000D01*
X138430000Y-112288000D01*
X138176000Y-112288000D01*
X138176000Y-112268000D01*
X136982186Y-112268000D01*
X136861519Y-112497891D01*
X136958843Y-112772252D01*
X137107822Y-113022355D01*
X137284626Y-113218502D01*
X137208820Y-113241498D01*
X137098506Y-113300463D01*
X137001815Y-113379815D01*
X136922463Y-113476506D01*
X136863498Y-113586820D01*
X136827188Y-113706518D01*
X136814928Y-113831000D01*
X135380085Y-113831000D01*
X135364853Y-113754426D01*
X135256680Y-113493273D01*
X135099637Y-113258241D01*
X134899759Y-113058363D01*
X134667241Y-112903000D01*
X134899759Y-112747637D01*
X135099637Y-112547759D01*
X135256680Y-112312727D01*
X135364853Y-112051574D01*
X135418055Y-111784109D01*
X136861519Y-111784109D01*
X136982186Y-112014000D01*
X138176000Y-112014000D01*
X138176000Y-110820845D01*
X138430000Y-110820845D01*
X138430000Y-112014000D01*
X140716000Y-112014000D01*
X140716000Y-110820845D01*
X140970000Y-110820845D01*
X140970000Y-112014000D01*
X143256000Y-112014000D01*
X143256000Y-110820845D01*
X143510000Y-110820845D01*
X143510000Y-112014000D01*
X144703814Y-112014000D01*
X144824481Y-111784109D01*
X144727157Y-111509748D01*
X144578178Y-111259645D01*
X144383269Y-111043412D01*
X144337134Y-111009000D01*
X146476000Y-111009000D01*
X146476000Y-111559000D01*
X146526428Y-111817005D01*
X146626221Y-112060215D01*
X146771545Y-112279283D01*
X146956815Y-112465790D01*
X147174910Y-112612569D01*
X147417450Y-112713980D01*
X147477671Y-112724716D01*
X147684000Y-112601374D01*
X147684000Y-111009000D01*
X146476000Y-111009000D01*
X144337134Y-111009000D01*
X144149920Y-110869359D01*
X143887099Y-110744175D01*
X143739890Y-110699524D01*
X143510000Y-110820845D01*
X143256000Y-110820845D01*
X143026110Y-110699524D01*
X142878901Y-110744175D01*
X142616080Y-110869359D01*
X142382731Y-111043412D01*
X142187822Y-111259645D01*
X142113000Y-111385255D01*
X142038178Y-111259645D01*
X141843269Y-111043412D01*
X141609920Y-110869359D01*
X141347099Y-110744175D01*
X141199890Y-110699524D01*
X140970000Y-110820845D01*
X140716000Y-110820845D01*
X140486110Y-110699524D01*
X140338901Y-110744175D01*
X140076080Y-110869359D01*
X139842731Y-111043412D01*
X139647822Y-111259645D01*
X139573000Y-111385255D01*
X139498178Y-111259645D01*
X139303269Y-111043412D01*
X139069920Y-110869359D01*
X138807099Y-110744175D01*
X138659890Y-110699524D01*
X138430000Y-110820845D01*
X138176000Y-110820845D01*
X137946110Y-110699524D01*
X137798901Y-110744175D01*
X137536080Y-110869359D01*
X137302731Y-111043412D01*
X137107822Y-111259645D01*
X136958843Y-111509748D01*
X136861519Y-111784109D01*
X135418055Y-111784109D01*
X135420000Y-111774335D01*
X135420000Y-111491665D01*
X135364853Y-111214426D01*
X135256680Y-110953273D01*
X135099637Y-110718241D01*
X134899759Y-110518363D01*
X134667241Y-110363000D01*
X134899759Y-110207637D01*
X135099637Y-110007759D01*
X135256680Y-109772727D01*
X135364853Y-109511574D01*
X135420000Y-109234335D01*
X135420000Y-108951665D01*
X135364853Y-108674426D01*
X135256680Y-108413273D01*
X135099637Y-108178241D01*
X134899759Y-107978363D01*
X134667241Y-107823000D01*
X134899759Y-107667637D01*
X135099637Y-107467759D01*
X135256680Y-107232727D01*
X135364853Y-106971574D01*
X135420000Y-106694335D01*
X135420000Y-106411665D01*
X135364853Y-106134426D01*
X135256680Y-105873273D01*
X135099637Y-105638241D01*
X134899759Y-105438363D01*
X134667241Y-105283000D01*
X134899759Y-105127637D01*
X135099637Y-104927759D01*
X135256680Y-104692727D01*
X135364853Y-104431574D01*
X135420000Y-104154335D01*
X135420000Y-103871665D01*
X135364853Y-103594426D01*
X135256680Y-103333273D01*
X135099637Y-103098241D01*
X134899759Y-102898363D01*
X134667241Y-102743000D01*
X134899759Y-102587637D01*
X135099637Y-102387759D01*
X135256680Y-102152727D01*
X135364853Y-101891574D01*
X135420000Y-101614335D01*
X135420000Y-101331665D01*
X135364853Y-101054426D01*
X135256680Y-100793273D01*
X135099637Y-100558241D01*
X134899759Y-100358363D01*
X134667241Y-100203000D01*
X134899759Y-100047637D01*
X135099637Y-99847759D01*
X135256680Y-99612727D01*
X135364853Y-99351574D01*
X135420000Y-99074335D01*
X135420000Y-98791665D01*
X135364853Y-98514426D01*
X135256680Y-98253273D01*
X135099637Y-98018241D01*
X134899759Y-97818363D01*
X134667241Y-97663000D01*
X134899759Y-97507637D01*
X135099637Y-97307759D01*
X135256680Y-97072727D01*
X135364853Y-96811574D01*
X135420000Y-96534335D01*
X135420000Y-96251665D01*
X135364853Y-95974426D01*
X135256680Y-95713273D01*
X135099637Y-95478241D01*
X134899759Y-95278363D01*
X134667241Y-95123000D01*
X134899759Y-94967637D01*
X135099637Y-94767759D01*
X135256680Y-94532727D01*
X135364853Y-94271574D01*
X135420000Y-93994335D01*
X135420000Y-93711665D01*
X135366558Y-93443000D01*
X136900835Y-93443000D01*
X136892304Y-93463595D01*
X136841000Y-93721514D01*
X136841000Y-93984486D01*
X136892304Y-94242405D01*
X136992939Y-94485359D01*
X137139038Y-94704013D01*
X137324987Y-94889962D01*
X137543641Y-95036061D01*
X137753530Y-95123000D01*
X137543641Y-95209939D01*
X137324987Y-95356038D01*
X137139038Y-95541987D01*
X136992939Y-95760641D01*
X136892304Y-96003595D01*
X136841000Y-96261514D01*
X136841000Y-96524486D01*
X136892304Y-96782405D01*
X136992939Y-97025359D01*
X137139038Y-97244013D01*
X137324987Y-97429962D01*
X137543641Y-97576061D01*
X137753530Y-97663000D01*
X137543641Y-97749939D01*
X137324987Y-97896038D01*
X137139038Y-98081987D01*
X136992939Y-98300641D01*
X136892304Y-98543595D01*
X136841000Y-98801514D01*
X136841000Y-99064486D01*
X136892304Y-99322405D01*
X136992939Y-99565359D01*
X137139038Y-99784013D01*
X137324987Y-99969962D01*
X137543641Y-100116061D01*
X137753530Y-100203000D01*
X137543641Y-100289939D01*
X137324987Y-100436038D01*
X137139038Y-100621987D01*
X136992939Y-100840641D01*
X136892304Y-101083595D01*
X136841000Y-101341514D01*
X136841000Y-101604486D01*
X136892304Y-101862405D01*
X136992939Y-102105359D01*
X137139038Y-102324013D01*
X137324987Y-102509962D01*
X137543641Y-102656061D01*
X137753530Y-102743000D01*
X137543641Y-102829939D01*
X137324987Y-102976038D01*
X137139038Y-103161987D01*
X136992939Y-103380641D01*
X136892304Y-103623595D01*
X136841000Y-103881514D01*
X136841000Y-104144486D01*
X136892304Y-104402405D01*
X136992939Y-104645359D01*
X137139038Y-104864013D01*
X137324987Y-105049962D01*
X137543641Y-105196061D01*
X137753530Y-105283000D01*
X137543641Y-105369939D01*
X137324987Y-105516038D01*
X137139038Y-105701987D01*
X136992939Y-105920641D01*
X136892304Y-106163595D01*
X136841000Y-106421514D01*
X136841000Y-106684486D01*
X136892304Y-106942405D01*
X136992939Y-107185359D01*
X137139038Y-107404013D01*
X137324987Y-107589962D01*
X137543641Y-107736061D01*
X137753530Y-107823000D01*
X137543641Y-107909939D01*
X137324987Y-108056038D01*
X137139038Y-108241987D01*
X136992939Y-108460641D01*
X136892304Y-108703595D01*
X136841000Y-108961514D01*
X136841000Y-109224486D01*
X136892304Y-109482405D01*
X136992939Y-109725359D01*
X137139038Y-109944013D01*
X137324987Y-110129962D01*
X137543641Y-110276061D01*
X137786595Y-110376696D01*
X138044514Y-110428000D01*
X138307486Y-110428000D01*
X138565405Y-110376696D01*
X138808359Y-110276061D01*
X139027013Y-110129962D01*
X139212962Y-109944013D01*
X139359061Y-109725359D01*
X139459696Y-109482405D01*
X139511000Y-109224486D01*
X139511000Y-108961514D01*
X139459696Y-108703595D01*
X139359061Y-108460641D01*
X139212962Y-108241987D01*
X139027013Y-108056038D01*
X138808359Y-107909939D01*
X138598470Y-107823000D01*
X138808359Y-107736061D01*
X139027013Y-107589962D01*
X139212962Y-107404013D01*
X139359061Y-107185359D01*
X139459696Y-106942405D01*
X139511000Y-106684486D01*
X139511000Y-106421514D01*
X139459696Y-106163595D01*
X139359061Y-105920641D01*
X139212962Y-105701987D01*
X139027013Y-105516038D01*
X138808359Y-105369939D01*
X138598470Y-105283000D01*
X138808359Y-105196061D01*
X139027013Y-105049962D01*
X139212962Y-104864013D01*
X139359061Y-104645359D01*
X139459696Y-104402405D01*
X139511000Y-104144486D01*
X139511000Y-103881514D01*
X139459696Y-103623595D01*
X139359061Y-103380641D01*
X139212962Y-103161987D01*
X139027013Y-102976038D01*
X138808359Y-102829939D01*
X138598470Y-102743000D01*
X138808359Y-102656061D01*
X139027013Y-102509962D01*
X139212962Y-102324013D01*
X139359061Y-102105359D01*
X139459696Y-101862405D01*
X139511000Y-101604486D01*
X139511000Y-101341514D01*
X139459696Y-101083595D01*
X139359061Y-100840641D01*
X139212962Y-100621987D01*
X139027013Y-100436038D01*
X138808359Y-100289939D01*
X138598470Y-100203000D01*
X138808359Y-100116061D01*
X139027013Y-99969962D01*
X139212962Y-99784013D01*
X139359061Y-99565359D01*
X139459696Y-99322405D01*
X139511000Y-99064486D01*
X139511000Y-98801514D01*
X139459696Y-98543595D01*
X139359061Y-98300641D01*
X139212962Y-98081987D01*
X139027013Y-97896038D01*
X138808359Y-97749939D01*
X138598470Y-97663000D01*
X138808359Y-97576061D01*
X139027013Y-97429962D01*
X139212962Y-97244013D01*
X139359061Y-97025359D01*
X139459696Y-96782405D01*
X139511000Y-96524486D01*
X139511000Y-96261514D01*
X139459696Y-96003595D01*
X139359061Y-95760641D01*
X139212962Y-95541987D01*
X139027013Y-95356038D01*
X138808359Y-95209939D01*
X138598470Y-95123000D01*
X138808359Y-95036061D01*
X139027013Y-94889962D01*
X139212962Y-94704013D01*
X139359061Y-94485359D01*
X139459696Y-94242405D01*
X139488811Y-94096035D01*
X140999001Y-95606225D01*
X140999000Y-100541761D01*
X140994840Y-100584000D01*
X140999000Y-100626239D01*
X140999000Y-100626245D01*
X141004262Y-100679671D01*
X141010855Y-100746603D01*
X141011444Y-100752588D01*
X141060619Y-100914699D01*
X141140476Y-101064101D01*
X141247946Y-101195054D01*
X141280765Y-101221988D01*
X143380015Y-103321239D01*
X143406946Y-103354054D01*
X143537898Y-103461524D01*
X143687300Y-103541381D01*
X143800235Y-103575639D01*
X143849410Y-103590556D01*
X143866558Y-103592245D01*
X143975754Y-103603000D01*
X143975760Y-103603000D01*
X144017999Y-103607160D01*
X144060238Y-103603000D01*
X144520835Y-103603000D01*
X144512304Y-103623595D01*
X144461000Y-103881514D01*
X144461000Y-104144486D01*
X144512304Y-104402405D01*
X144612939Y-104645359D01*
X144759038Y-104864013D01*
X144944987Y-105049962D01*
X145163641Y-105196061D01*
X145373530Y-105283000D01*
X145163641Y-105369939D01*
X144944987Y-105516038D01*
X144759038Y-105701987D01*
X144612939Y-105920641D01*
X144512304Y-106163595D01*
X144461000Y-106421514D01*
X144461000Y-106684486D01*
X144512304Y-106942405D01*
X144612939Y-107185359D01*
X144759038Y-107404013D01*
X144944987Y-107589962D01*
X145163641Y-107736061D01*
X145373530Y-107823000D01*
X145163641Y-107909939D01*
X144944987Y-108056038D01*
X144759038Y-108241987D01*
X144612939Y-108460641D01*
X144512304Y-108703595D01*
X144461000Y-108961514D01*
X144461000Y-109224486D01*
X144512304Y-109482405D01*
X144612939Y-109725359D01*
X144759038Y-109944013D01*
X144944987Y-110129962D01*
X145163641Y-110276061D01*
X145406595Y-110376696D01*
X145664514Y-110428000D01*
X145927486Y-110428000D01*
X146185405Y-110376696D01*
X146428359Y-110276061D01*
X146476000Y-110244229D01*
X146476000Y-110755000D01*
X147684000Y-110755000D01*
X147684000Y-109162626D01*
X147938000Y-109162626D01*
X147938000Y-110755000D01*
X147958000Y-110755000D01*
X147958000Y-111009000D01*
X147938000Y-111009000D01*
X147938000Y-112601374D01*
X148144329Y-112724716D01*
X148204550Y-112713980D01*
X148447090Y-112612569D01*
X148665185Y-112465790D01*
X148850455Y-112279283D01*
X148995779Y-112060215D01*
X149095572Y-111817005D01*
X149146000Y-111559000D01*
X149146000Y-110892844D01*
X149155606Y-110902450D01*
X149349692Y-111032134D01*
X149526000Y-111105163D01*
X149526000Y-111298712D01*
X149571539Y-111527652D01*
X149660866Y-111743308D01*
X149790550Y-111937394D01*
X149955606Y-112102450D01*
X150149692Y-112232134D01*
X150365348Y-112321461D01*
X150594288Y-112367000D01*
X150827712Y-112367000D01*
X151056652Y-112321461D01*
X151272308Y-112232134D01*
X151466394Y-112102450D01*
X151511000Y-112057844D01*
X151555606Y-112102450D01*
X151749692Y-112232134D01*
X151965348Y-112321461D01*
X152194288Y-112367000D01*
X152427712Y-112367000D01*
X152656652Y-112321461D01*
X152872308Y-112232134D01*
X153066394Y-112102450D01*
X153231450Y-111937394D01*
X153361134Y-111743308D01*
X153450461Y-111527652D01*
X153496000Y-111298712D01*
X153496000Y-111103333D01*
X153639934Y-111048808D01*
X153704159Y-111014478D01*
X153705192Y-111009000D01*
X153876000Y-111009000D01*
X153876000Y-111559000D01*
X153926428Y-111817005D01*
X154026221Y-112060215D01*
X154171545Y-112279283D01*
X154356815Y-112465790D01*
X154574910Y-112612569D01*
X154817450Y-112713980D01*
X154877671Y-112724716D01*
X155084000Y-112601374D01*
X155084000Y-111009000D01*
X155338000Y-111009000D01*
X155338000Y-112601374D01*
X155544329Y-112724716D01*
X155604550Y-112713980D01*
X155847090Y-112612569D01*
X156065185Y-112465790D01*
X156250455Y-112279283D01*
X156395779Y-112060215D01*
X156495572Y-111817005D01*
X156546000Y-111559000D01*
X156546000Y-111009000D01*
X155338000Y-111009000D01*
X155084000Y-111009000D01*
X153876000Y-111009000D01*
X153705192Y-111009000D01*
X153745374Y-110795979D01*
X153111000Y-110161605D01*
X153096858Y-110175748D01*
X152917253Y-109996143D01*
X152931395Y-109982000D01*
X153290605Y-109982000D01*
X153876000Y-110567395D01*
X153876000Y-110755000D01*
X155084000Y-110755000D01*
X155084000Y-109162626D01*
X155338000Y-109162626D01*
X155338000Y-110755000D01*
X156546000Y-110755000D01*
X156546000Y-110205000D01*
X156495572Y-109946995D01*
X156395779Y-109703785D01*
X156250455Y-109484717D01*
X156065185Y-109298210D01*
X155847090Y-109151431D01*
X155604550Y-109050020D01*
X155544329Y-109039284D01*
X155338000Y-109162626D01*
X155084000Y-109162626D01*
X154877671Y-109039284D01*
X154817450Y-109050020D01*
X154574910Y-109151431D01*
X154356815Y-109298210D01*
X154184759Y-109471415D01*
X154177808Y-109453066D01*
X154143478Y-109388841D01*
X153924979Y-109347626D01*
X153290605Y-109982000D01*
X152931395Y-109982000D01*
X152917253Y-109967858D01*
X153096858Y-109788253D01*
X153111000Y-109802395D01*
X153745374Y-109168021D01*
X153704159Y-108949522D01*
X153491335Y-108853641D01*
X153263895Y-108801122D01*
X153030579Y-108793984D01*
X152800354Y-108832500D01*
X152582066Y-108915192D01*
X152517841Y-108949522D01*
X152476626Y-109168018D01*
X152359263Y-109050655D01*
X152307381Y-109102537D01*
X152266394Y-109061550D01*
X152135281Y-108973943D01*
X153061224Y-108048000D01*
X155499909Y-108048000D01*
X155515201Y-108070886D01*
X155708114Y-108263799D01*
X155934957Y-108415371D01*
X156187011Y-108519775D01*
X156454589Y-108573000D01*
X156727411Y-108573000D01*
X156754407Y-108567630D01*
X157382000Y-109195224D01*
X157382001Y-110271928D01*
X157265000Y-110271928D01*
X157140518Y-110284188D01*
X157020820Y-110320498D01*
X156910506Y-110379463D01*
X156813815Y-110458815D01*
X156734463Y-110555506D01*
X156675498Y-110665820D01*
X156639188Y-110785518D01*
X156626928Y-110910000D01*
X156626928Y-112610000D01*
X156639188Y-112734482D01*
X156675498Y-112854180D01*
X156734463Y-112964494D01*
X156813815Y-113061185D01*
X156910506Y-113140537D01*
X157020820Y-113199502D01*
X157101466Y-113223966D01*
X157017412Y-113299731D01*
X156843359Y-113533080D01*
X156718175Y-113795901D01*
X156673524Y-113943110D01*
X156794845Y-114173000D01*
X157988000Y-114173000D01*
X157988000Y-114153000D01*
X158242000Y-114153000D01*
X158242000Y-114173000D01*
X159435155Y-114173000D01*
X159556476Y-113943110D01*
X159511825Y-113795901D01*
X159386641Y-113533080D01*
X159212588Y-113299731D01*
X159174614Y-113265501D01*
X162693106Y-113265501D01*
X164361000Y-114933395D01*
X166028894Y-113265501D01*
X165812772Y-112898742D01*
X165352895Y-112658062D01*
X164854902Y-112511725D01*
X164337929Y-112465352D01*
X163821841Y-112520727D01*
X163326474Y-112675721D01*
X162909228Y-112898742D01*
X162693106Y-113265501D01*
X159174614Y-113265501D01*
X159128534Y-113223966D01*
X159209180Y-113199502D01*
X159319494Y-113140537D01*
X159416185Y-113061185D01*
X159495537Y-112964494D01*
X159554502Y-112854180D01*
X159590812Y-112734482D01*
X159603072Y-112610000D01*
X159603072Y-110910000D01*
X159590812Y-110785518D01*
X159554502Y-110665820D01*
X159495537Y-110555506D01*
X159416185Y-110458815D01*
X159319494Y-110379463D01*
X159209180Y-110320498D01*
X159102000Y-110287985D01*
X159102000Y-108881246D01*
X159106161Y-108839000D01*
X159089556Y-108670410D01*
X159040381Y-108508299D01*
X159009595Y-108450702D01*
X162127903Y-108450702D01*
X162199486Y-108694671D01*
X162454996Y-108815571D01*
X162729184Y-108884300D01*
X163011512Y-108898217D01*
X163291130Y-108856787D01*
X163557292Y-108761603D01*
X163682514Y-108694671D01*
X163754097Y-108450702D01*
X162941000Y-107637605D01*
X162127903Y-108450702D01*
X159009595Y-108450702D01*
X158989588Y-108413273D01*
X158960524Y-108358898D01*
X158853054Y-108227946D01*
X158820242Y-108201018D01*
X158147736Y-107528512D01*
X161500783Y-107528512D01*
X161542213Y-107808130D01*
X161637397Y-108074292D01*
X161704329Y-108199514D01*
X161948298Y-108271097D01*
X162761395Y-107458000D01*
X161948298Y-106644903D01*
X161704329Y-106716486D01*
X161583429Y-106971996D01*
X161514700Y-107246184D01*
X161500783Y-107528512D01*
X158147736Y-107528512D01*
X157970630Y-107351407D01*
X157976000Y-107324411D01*
X157976000Y-107051589D01*
X157922775Y-106784011D01*
X157818371Y-106531957D01*
X157666799Y-106305114D01*
X157473886Y-106112201D01*
X157247043Y-105960629D01*
X156994989Y-105856225D01*
X156727411Y-105803000D01*
X156454589Y-105803000D01*
X156187011Y-105856225D01*
X155934957Y-105960629D01*
X155708114Y-106112201D01*
X155515201Y-106305114D01*
X155499909Y-106328000D01*
X152747246Y-106328000D01*
X152705000Y-106323839D01*
X152536410Y-106340444D01*
X152374299Y-106389619D01*
X152333055Y-106411665D01*
X152224898Y-106469476D01*
X152093946Y-106576946D01*
X152067017Y-106609759D01*
X149879777Y-108797000D01*
X149794288Y-108797000D01*
X149565348Y-108842539D01*
X149349692Y-108931866D01*
X149155606Y-109061550D01*
X148990550Y-109226606D01*
X148860866Y-109420692D01*
X148839087Y-109473273D01*
X148665185Y-109298210D01*
X148447090Y-109151431D01*
X148204550Y-109050020D01*
X148144329Y-109039284D01*
X147938000Y-109162626D01*
X147684000Y-109162626D01*
X147477671Y-109039284D01*
X147417450Y-109050020D01*
X147174910Y-109151431D01*
X147131000Y-109180983D01*
X147131000Y-108961514D01*
X147079696Y-108703595D01*
X146979061Y-108460641D01*
X146832962Y-108241987D01*
X146647013Y-108056038D01*
X146428359Y-107909939D01*
X146218470Y-107823000D01*
X146428359Y-107736061D01*
X146647013Y-107589962D01*
X146832962Y-107404013D01*
X146979061Y-107185359D01*
X147079696Y-106942405D01*
X147131000Y-106684486D01*
X147131000Y-106421514D01*
X147079696Y-106163595D01*
X146979061Y-105920641D01*
X146832962Y-105701987D01*
X146647013Y-105516038D01*
X146428359Y-105369939D01*
X146218470Y-105283000D01*
X146428359Y-105196061D01*
X146647013Y-105049962D01*
X146832962Y-104864013D01*
X146979061Y-104645359D01*
X147079696Y-104402405D01*
X147131000Y-104144486D01*
X147131000Y-103881514D01*
X147079696Y-103623595D01*
X147071165Y-103603000D01*
X147405928Y-103603000D01*
X147405928Y-103670000D01*
X147418188Y-103794482D01*
X147454498Y-103914180D01*
X147513463Y-104024494D01*
X147592815Y-104121185D01*
X147689506Y-104200537D01*
X147799820Y-104259502D01*
X147919518Y-104295812D01*
X148044000Y-104308072D01*
X148111001Y-104308072D01*
X148111000Y-105810762D01*
X148096518Y-105812188D01*
X147976820Y-105848498D01*
X147866506Y-105907463D01*
X147769815Y-105986815D01*
X147690463Y-106083506D01*
X147631498Y-106193820D01*
X147595188Y-106313518D01*
X147582928Y-106438000D01*
X147582928Y-107938000D01*
X147595188Y-108062482D01*
X147631498Y-108182180D01*
X147690463Y-108292494D01*
X147769815Y-108389185D01*
X147866506Y-108468537D01*
X147976820Y-108527502D01*
X148096518Y-108563812D01*
X148221000Y-108576072D01*
X149721000Y-108576072D01*
X149845482Y-108563812D01*
X149965180Y-108527502D01*
X150075494Y-108468537D01*
X150172185Y-108389185D01*
X150251537Y-108292494D01*
X150310502Y-108182180D01*
X150346812Y-108062482D01*
X150359072Y-107938000D01*
X150359072Y-106438000D01*
X150346812Y-106313518D01*
X150310502Y-106193820D01*
X150251537Y-106083506D01*
X150172185Y-105986815D01*
X150075494Y-105907463D01*
X149965180Y-105848498D01*
X149845482Y-105812188D01*
X149831000Y-105810762D01*
X149831000Y-104369890D01*
X156673524Y-104369890D01*
X156718175Y-104517099D01*
X156843359Y-104779920D01*
X157017412Y-105013269D01*
X157233645Y-105208178D01*
X157483748Y-105357157D01*
X157758109Y-105454481D01*
X157988000Y-105333814D01*
X157988000Y-104140000D01*
X158242000Y-104140000D01*
X158242000Y-105333814D01*
X158471891Y-105454481D01*
X158746252Y-105357157D01*
X158996355Y-105208178D01*
X159212588Y-105013269D01*
X159386641Y-104779920D01*
X159511825Y-104517099D01*
X159556476Y-104369890D01*
X159435155Y-104140000D01*
X158242000Y-104140000D01*
X157988000Y-104140000D01*
X156794845Y-104140000D01*
X156673524Y-104369890D01*
X149831000Y-104369890D01*
X149831000Y-104276847D01*
X149888180Y-104259502D01*
X149998494Y-104200537D01*
X150095185Y-104121185D01*
X150174537Y-104024494D01*
X150233502Y-103914180D01*
X150249117Y-103862702D01*
X150530903Y-103862702D01*
X150602486Y-104106671D01*
X150857996Y-104227571D01*
X151132184Y-104296300D01*
X151414512Y-104310217D01*
X151694130Y-104268787D01*
X151960292Y-104173603D01*
X152085514Y-104106671D01*
X152157097Y-103862702D01*
X151344000Y-103049605D01*
X150530903Y-103862702D01*
X150249117Y-103862702D01*
X150269812Y-103794482D01*
X150282072Y-103670000D01*
X150282072Y-103662785D01*
X150351298Y-103683097D01*
X151164395Y-102870000D01*
X151523605Y-102870000D01*
X152336702Y-103683097D01*
X152580671Y-103611514D01*
X152701571Y-103356004D01*
X152770300Y-103081816D01*
X152784217Y-102799488D01*
X152742787Y-102519870D01*
X152647603Y-102253708D01*
X152580671Y-102128486D01*
X152336702Y-102056903D01*
X151523605Y-102870000D01*
X151164395Y-102870000D01*
X150351298Y-102056903D01*
X150282072Y-102077215D01*
X150282072Y-102070000D01*
X150269812Y-101945518D01*
X150249118Y-101877298D01*
X150530903Y-101877298D01*
X151344000Y-102690395D01*
X152157097Y-101877298D01*
X152085514Y-101633329D01*
X151830004Y-101512429D01*
X151555816Y-101443700D01*
X151273488Y-101429783D01*
X150993870Y-101471213D01*
X150727708Y-101566397D01*
X150602486Y-101633329D01*
X150530903Y-101877298D01*
X150249118Y-101877298D01*
X150233502Y-101825820D01*
X150174537Y-101715506D01*
X150095185Y-101618815D01*
X149998494Y-101539463D01*
X149888180Y-101480498D01*
X149768482Y-101444188D01*
X149644000Y-101431928D01*
X148044000Y-101431928D01*
X147919518Y-101444188D01*
X147799820Y-101480498D01*
X147689506Y-101539463D01*
X147592815Y-101618815D01*
X147513463Y-101715506D01*
X147454498Y-101825820D01*
X147437153Y-101883000D01*
X147071165Y-101883000D01*
X147079696Y-101862405D01*
X147131000Y-101604486D01*
X147131000Y-101341514D01*
X147079696Y-101083595D01*
X146979061Y-100840641D01*
X146832962Y-100621987D01*
X146647013Y-100436038D01*
X146428359Y-100289939D01*
X146218470Y-100203000D01*
X146428359Y-100116061D01*
X146647013Y-99969962D01*
X146832962Y-99784013D01*
X146979061Y-99565359D01*
X147079696Y-99322405D01*
X147131000Y-99064486D01*
X147131000Y-98801514D01*
X147079696Y-98543595D01*
X146979061Y-98300641D01*
X146832962Y-98081987D01*
X146647013Y-97896038D01*
X146428359Y-97749939D01*
X146218470Y-97663000D01*
X146428359Y-97576061D01*
X146647013Y-97429962D01*
X146832962Y-97244013D01*
X146979061Y-97025359D01*
X147079696Y-96782405D01*
X147131000Y-96524486D01*
X147131000Y-96261514D01*
X147079696Y-96003595D01*
X146979061Y-95760641D01*
X146832962Y-95541987D01*
X146647013Y-95356038D01*
X146428359Y-95209939D01*
X146218470Y-95123000D01*
X146428359Y-95036061D01*
X146647013Y-94889962D01*
X146832962Y-94704013D01*
X146979061Y-94485359D01*
X147079696Y-94242405D01*
X147131000Y-93984486D01*
X147131000Y-93721514D01*
X147079696Y-93463595D01*
X146979061Y-93220641D01*
X146832962Y-93001987D01*
X146647013Y-92816038D01*
X146428359Y-92669939D01*
X146218470Y-92583000D01*
X146428359Y-92496061D01*
X146647013Y-92349962D01*
X146832962Y-92164013D01*
X146979061Y-91945359D01*
X147079696Y-91702405D01*
X147131000Y-91444486D01*
X147131000Y-91181514D01*
X147079696Y-90923595D01*
X146979061Y-90680641D01*
X146833639Y-90463000D01*
X147482928Y-90463000D01*
X147482928Y-92163000D01*
X147495188Y-92287482D01*
X147531498Y-92407180D01*
X147590463Y-92517494D01*
X147669815Y-92614185D01*
X147766506Y-92693537D01*
X147876820Y-92752502D01*
X147949380Y-92774513D01*
X147817525Y-92906368D01*
X147655010Y-93149589D01*
X147543068Y-93419842D01*
X147486000Y-93706740D01*
X147486000Y-93999260D01*
X147543068Y-94286158D01*
X147655010Y-94556411D01*
X147817525Y-94799632D01*
X148024368Y-95006475D01*
X148198760Y-95123000D01*
X148024368Y-95239525D01*
X147817525Y-95446368D01*
X147655010Y-95689589D01*
X147543068Y-95959842D01*
X147486000Y-96246740D01*
X147486000Y-96539260D01*
X147543068Y-96826158D01*
X147655010Y-97096411D01*
X147817525Y-97339632D01*
X148024368Y-97546475D01*
X148267589Y-97708990D01*
X148537842Y-97820932D01*
X148824740Y-97878000D01*
X149117260Y-97878000D01*
X149404158Y-97820932D01*
X149674411Y-97708990D01*
X149917632Y-97546475D01*
X150124475Y-97339632D01*
X150286990Y-97096411D01*
X150398932Y-96826158D01*
X150456000Y-96539260D01*
X150456000Y-96246740D01*
X150398932Y-95959842D01*
X150286990Y-95689589D01*
X150124475Y-95446368D01*
X149917632Y-95239525D01*
X149743240Y-95123000D01*
X149917632Y-95006475D01*
X150124475Y-94799632D01*
X150286990Y-94556411D01*
X150398932Y-94286158D01*
X150456000Y-93999260D01*
X150456000Y-93706740D01*
X150398932Y-93419842D01*
X150286990Y-93149589D01*
X150124475Y-92906368D01*
X149992620Y-92774513D01*
X150065180Y-92752502D01*
X150175494Y-92693537D01*
X150272185Y-92614185D01*
X150351537Y-92517494D01*
X150410502Y-92407180D01*
X150446812Y-92287482D01*
X150459072Y-92163000D01*
X150459072Y-90463000D01*
X156626928Y-90463000D01*
X156626928Y-92163000D01*
X156639188Y-92287482D01*
X156675498Y-92407180D01*
X156734463Y-92517494D01*
X156813815Y-92614185D01*
X156910506Y-92693537D01*
X157020820Y-92752502D01*
X157093380Y-92774513D01*
X156961525Y-92906368D01*
X156799010Y-93149589D01*
X156687068Y-93419842D01*
X156630000Y-93706740D01*
X156630000Y-93999260D01*
X156687068Y-94286158D01*
X156799010Y-94556411D01*
X156961525Y-94799632D01*
X157168368Y-95006475D01*
X157342760Y-95123000D01*
X157168368Y-95239525D01*
X156961525Y-95446368D01*
X156799010Y-95689589D01*
X156687068Y-95959842D01*
X156630000Y-96246740D01*
X156630000Y-96539260D01*
X156687068Y-96826158D01*
X156799010Y-97096411D01*
X156961525Y-97339632D01*
X157168368Y-97546475D01*
X157342760Y-97663000D01*
X157168368Y-97779525D01*
X156961525Y-97986368D01*
X156799010Y-98229589D01*
X156687068Y-98499842D01*
X156630000Y-98786740D01*
X156630000Y-99079260D01*
X156687068Y-99366158D01*
X156799010Y-99636411D01*
X156961525Y-99879632D01*
X157168368Y-100086475D01*
X157342760Y-100203000D01*
X157168368Y-100319525D01*
X156961525Y-100526368D01*
X156799010Y-100769589D01*
X156687068Y-101039842D01*
X156630000Y-101326740D01*
X156630000Y-101619260D01*
X156687068Y-101906158D01*
X156799010Y-102176411D01*
X156961525Y-102419632D01*
X157168368Y-102626475D01*
X157350534Y-102748195D01*
X157233645Y-102817822D01*
X157017412Y-103012731D01*
X156843359Y-103246080D01*
X156718175Y-103508901D01*
X156673524Y-103656110D01*
X156794845Y-103886000D01*
X157988000Y-103886000D01*
X157988000Y-103866000D01*
X158242000Y-103866000D01*
X158242000Y-103886000D01*
X159435155Y-103886000D01*
X159556476Y-103656110D01*
X159511825Y-103508901D01*
X159386641Y-103246080D01*
X159212588Y-103012731D01*
X158996355Y-102817822D01*
X158879466Y-102748195D01*
X159061632Y-102626475D01*
X159268475Y-102419632D01*
X159430990Y-102176411D01*
X159542932Y-101906158D01*
X159600000Y-101619260D01*
X159600000Y-101326740D01*
X159542932Y-101039842D01*
X159430990Y-100769589D01*
X159268475Y-100526368D01*
X159061632Y-100319525D01*
X158887240Y-100203000D01*
X159061632Y-100086475D01*
X159268475Y-99879632D01*
X159430990Y-99636411D01*
X159542932Y-99366158D01*
X159600000Y-99079260D01*
X159600000Y-98786740D01*
X159542932Y-98499842D01*
X159430990Y-98229589D01*
X159268475Y-97986368D01*
X159061632Y-97779525D01*
X158887240Y-97663000D01*
X159061632Y-97546475D01*
X159110107Y-97498000D01*
X161502928Y-97498000D01*
X161502928Y-99098000D01*
X161515188Y-99222482D01*
X161551498Y-99342180D01*
X161610463Y-99452494D01*
X161689815Y-99549185D01*
X161786506Y-99628537D01*
X161841612Y-99657992D01*
X161826363Y-99673241D01*
X161669320Y-99908273D01*
X161561147Y-100169426D01*
X161506000Y-100446665D01*
X161506000Y-100729335D01*
X161561147Y-101006574D01*
X161669320Y-101267727D01*
X161826363Y-101502759D01*
X162026241Y-101702637D01*
X162071683Y-101733000D01*
X162026241Y-101763363D01*
X161826363Y-101963241D01*
X161669320Y-102198273D01*
X161561147Y-102459426D01*
X161506000Y-102736665D01*
X161506000Y-103019335D01*
X161561147Y-103296574D01*
X161669320Y-103557727D01*
X161826363Y-103792759D01*
X162026241Y-103992637D01*
X162071683Y-104023000D01*
X162026241Y-104053363D01*
X161826363Y-104253241D01*
X161669320Y-104488273D01*
X161561147Y-104749426D01*
X161506000Y-105026665D01*
X161506000Y-105309335D01*
X161561147Y-105586574D01*
X161669320Y-105847727D01*
X161826363Y-106082759D01*
X162026241Y-106282637D01*
X162156049Y-106369372D01*
X162127903Y-106465298D01*
X162941000Y-107278395D01*
X162955143Y-107264253D01*
X163134748Y-107443858D01*
X163120605Y-107458000D01*
X163933702Y-108271097D01*
X164177671Y-108199514D01*
X164298571Y-107944004D01*
X164367300Y-107669816D01*
X164368807Y-107639252D01*
X164434996Y-107670571D01*
X164709184Y-107739300D01*
X164991512Y-107753217D01*
X165271130Y-107711787D01*
X165473941Y-107639258D01*
X165521147Y-107876574D01*
X165629320Y-108137727D01*
X165786363Y-108372759D01*
X165986241Y-108572637D01*
X166221273Y-108729680D01*
X166482426Y-108837853D01*
X166759665Y-108893000D01*
X167042335Y-108893000D01*
X167319574Y-108837853D01*
X167580727Y-108729680D01*
X167815759Y-108572637D01*
X168015637Y-108372759D01*
X168172680Y-108137727D01*
X168280853Y-107876574D01*
X168336000Y-107599335D01*
X168336000Y-107316665D01*
X168280853Y-107039426D01*
X168172680Y-106778273D01*
X168015637Y-106543241D01*
X167815759Y-106343363D01*
X167770317Y-106313000D01*
X167815759Y-106282637D01*
X168015637Y-106082759D01*
X168172680Y-105847727D01*
X168280853Y-105586574D01*
X168336000Y-105309335D01*
X168336000Y-105026665D01*
X168280853Y-104749426D01*
X168172680Y-104488273D01*
X168015637Y-104253241D01*
X167815759Y-104053363D01*
X167770317Y-104023000D01*
X167815759Y-103992637D01*
X168015637Y-103792759D01*
X168172680Y-103557727D01*
X168280853Y-103296574D01*
X168336000Y-103019335D01*
X168336000Y-102736665D01*
X168280853Y-102459426D01*
X168172680Y-102198273D01*
X168015637Y-101963241D01*
X167815759Y-101763363D01*
X167770317Y-101733000D01*
X167815759Y-101702637D01*
X168015637Y-101502759D01*
X168172680Y-101267727D01*
X168280853Y-101006574D01*
X168336000Y-100729335D01*
X168336000Y-100446665D01*
X168280853Y-100169426D01*
X168172680Y-99908273D01*
X168015637Y-99673241D01*
X167815759Y-99473363D01*
X167770317Y-99443000D01*
X167815759Y-99412637D01*
X168015637Y-99212759D01*
X168172680Y-98977727D01*
X168280853Y-98716574D01*
X168336000Y-98439335D01*
X168336000Y-98156665D01*
X168280853Y-97879426D01*
X168172680Y-97618273D01*
X168015637Y-97383241D01*
X167815759Y-97183363D01*
X167580727Y-97026320D01*
X167319574Y-96918147D01*
X167042335Y-96863000D01*
X166759665Y-96863000D01*
X166482426Y-96918147D01*
X166345284Y-96974953D01*
X166319787Y-96802870D01*
X166224603Y-96536708D01*
X166157671Y-96411486D01*
X165913702Y-96339903D01*
X165100605Y-97153000D01*
X165114748Y-97167143D01*
X164935143Y-97346748D01*
X164921000Y-97332605D01*
X164906858Y-97346748D01*
X164727253Y-97167143D01*
X164741395Y-97153000D01*
X163928298Y-96339903D01*
X163684329Y-96411486D01*
X163563429Y-96666996D01*
X163515068Y-96859928D01*
X162141000Y-96859928D01*
X162016518Y-96872188D01*
X161896820Y-96908498D01*
X161786506Y-96967463D01*
X161689815Y-97046815D01*
X161610463Y-97143506D01*
X161551498Y-97253820D01*
X161515188Y-97373518D01*
X161502928Y-97498000D01*
X159110107Y-97498000D01*
X159268475Y-97339632D01*
X159430990Y-97096411D01*
X159542932Y-96826158D01*
X159600000Y-96539260D01*
X159600000Y-96246740D01*
X159582806Y-96160298D01*
X164107903Y-96160298D01*
X164921000Y-96973395D01*
X165734097Y-96160298D01*
X165662514Y-95916329D01*
X165407004Y-95795429D01*
X165132816Y-95726700D01*
X164850488Y-95712783D01*
X164570870Y-95754213D01*
X164304708Y-95849397D01*
X164179486Y-95916329D01*
X164107903Y-96160298D01*
X159582806Y-96160298D01*
X159542932Y-95959842D01*
X159430990Y-95689589D01*
X159268475Y-95446368D01*
X159061632Y-95239525D01*
X158887240Y-95123000D01*
X159061632Y-95006475D01*
X159268475Y-94799632D01*
X159430990Y-94556411D01*
X159542932Y-94286158D01*
X159600000Y-93999260D01*
X159600000Y-93706740D01*
X159542932Y-93419842D01*
X159430990Y-93149589D01*
X159268475Y-92906368D01*
X159136620Y-92774513D01*
X159209180Y-92752502D01*
X159319494Y-92693537D01*
X159416185Y-92614185D01*
X159495537Y-92517494D01*
X159554502Y-92407180D01*
X159590812Y-92287482D01*
X159603072Y-92163000D01*
X159603072Y-91960499D01*
X162693106Y-91960499D01*
X162909228Y-92327258D01*
X163369105Y-92567938D01*
X163867098Y-92714275D01*
X164384071Y-92760648D01*
X164900159Y-92705273D01*
X165395526Y-92550279D01*
X165812772Y-92327258D01*
X166028894Y-91960499D01*
X164361000Y-90292605D01*
X162693106Y-91960499D01*
X159603072Y-91960499D01*
X159603072Y-90463000D01*
X159590812Y-90338518D01*
X159554502Y-90218820D01*
X159510272Y-90136071D01*
X161713352Y-90136071D01*
X161768727Y-90652159D01*
X161923721Y-91147526D01*
X162146742Y-91564772D01*
X162513501Y-91780894D01*
X164181395Y-90113000D01*
X164540605Y-90113000D01*
X166208499Y-91780894D01*
X166575258Y-91564772D01*
X166815938Y-91104895D01*
X166962275Y-90606902D01*
X167008648Y-90089929D01*
X166953273Y-89573841D01*
X166798279Y-89078474D01*
X166575258Y-88661228D01*
X166208499Y-88445106D01*
X164540605Y-90113000D01*
X164181395Y-90113000D01*
X162513501Y-88445106D01*
X162146742Y-88661228D01*
X161906062Y-89121105D01*
X161759725Y-89619098D01*
X161713352Y-90136071D01*
X159510272Y-90136071D01*
X159495537Y-90108506D01*
X159416185Y-90011815D01*
X159319494Y-89932463D01*
X159209180Y-89873498D01*
X159089482Y-89837188D01*
X158965000Y-89824928D01*
X157265000Y-89824928D01*
X157140518Y-89837188D01*
X157020820Y-89873498D01*
X156910506Y-89932463D01*
X156813815Y-90011815D01*
X156734463Y-90108506D01*
X156675498Y-90218820D01*
X156639188Y-90338518D01*
X156626928Y-90463000D01*
X150459072Y-90463000D01*
X150446812Y-90338518D01*
X150410502Y-90218820D01*
X150351537Y-90108506D01*
X150272185Y-90011815D01*
X150175494Y-89932463D01*
X150065180Y-89873498D01*
X149945482Y-89837188D01*
X149821000Y-89824928D01*
X148121000Y-89824928D01*
X147996518Y-89837188D01*
X147876820Y-89873498D01*
X147766506Y-89932463D01*
X147669815Y-90011815D01*
X147590463Y-90108506D01*
X147531498Y-90218820D01*
X147495188Y-90338518D01*
X147482928Y-90463000D01*
X146833639Y-90463000D01*
X146832962Y-90461987D01*
X146647013Y-90276038D01*
X146428359Y-90129939D01*
X146185405Y-90029304D01*
X145927486Y-89978000D01*
X145664514Y-89978000D01*
X145406595Y-90029304D01*
X145163641Y-90129939D01*
X144944987Y-90276038D01*
X144759038Y-90461987D01*
X144612939Y-90680641D01*
X144512304Y-90923595D01*
X144461000Y-91181514D01*
X144461000Y-91444486D01*
X144512304Y-91702405D01*
X144612939Y-91945359D01*
X144759038Y-92164013D01*
X144944987Y-92349962D01*
X145163641Y-92496061D01*
X145373530Y-92583000D01*
X145163641Y-92669939D01*
X144944987Y-92816038D01*
X144759038Y-93001987D01*
X144612939Y-93220641D01*
X144512304Y-93463595D01*
X144461000Y-93721514D01*
X144461000Y-93984486D01*
X144512304Y-94242405D01*
X144612939Y-94485359D01*
X144759038Y-94704013D01*
X144944987Y-94889962D01*
X145163641Y-95036061D01*
X145373530Y-95123000D01*
X145163641Y-95209939D01*
X144944987Y-95356038D01*
X144759038Y-95541987D01*
X144612939Y-95760641D01*
X144512304Y-96003595D01*
X144461000Y-96261514D01*
X144461000Y-96524486D01*
X144512304Y-96782405D01*
X144612939Y-97025359D01*
X144759038Y-97244013D01*
X144944987Y-97429962D01*
X145163641Y-97576061D01*
X145373530Y-97663000D01*
X145163641Y-97749939D01*
X144944987Y-97896038D01*
X144759038Y-98081987D01*
X144612939Y-98300641D01*
X144512304Y-98543595D01*
X144461000Y-98801514D01*
X144461000Y-99064486D01*
X144512304Y-99322405D01*
X144612939Y-99565359D01*
X144759038Y-99784013D01*
X144944987Y-99969962D01*
X145163641Y-100116061D01*
X145373530Y-100203000D01*
X145163641Y-100289939D01*
X144944987Y-100436038D01*
X144759038Y-100621987D01*
X144612939Y-100840641D01*
X144512304Y-101083595D01*
X144461000Y-101341514D01*
X144461000Y-101604486D01*
X144512304Y-101862405D01*
X144520835Y-101883000D01*
X144374224Y-101883000D01*
X142719000Y-100227777D01*
X142719000Y-95292246D01*
X142723161Y-95250000D01*
X142706556Y-95081410D01*
X142657381Y-94919299D01*
X142629564Y-94867259D01*
X142577524Y-94769898D01*
X142470054Y-94638946D01*
X142437241Y-94612017D01*
X139829988Y-92004765D01*
X139803054Y-91971946D01*
X139672102Y-91864476D01*
X139522700Y-91784619D01*
X139434300Y-91757804D01*
X139436047Y-91754044D01*
X139468716Y-91646329D01*
X139345374Y-91440000D01*
X138303000Y-91440000D01*
X138303000Y-91460000D01*
X138049000Y-91460000D01*
X138049000Y-91440000D01*
X137006626Y-91440000D01*
X136883284Y-91646329D01*
X136906538Y-91723000D01*
X135611224Y-91723000D01*
X135407152Y-91518928D01*
X135420000Y-91454335D01*
X135420000Y-91171665D01*
X135381810Y-90979671D01*
X136883284Y-90979671D01*
X137006626Y-91186000D01*
X138049000Y-91186000D01*
X138049000Y-90142799D01*
X138303000Y-90142799D01*
X138303000Y-91186000D01*
X139345374Y-91186000D01*
X139468716Y-90979671D01*
X139436047Y-90871956D01*
X139325792Y-90634608D01*
X139171351Y-90423330D01*
X138978660Y-90246241D01*
X138755123Y-90110147D01*
X138509330Y-90020278D01*
X138303000Y-90142799D01*
X138049000Y-90142799D01*
X137842670Y-90020278D01*
X137596877Y-90110147D01*
X137373340Y-90246241D01*
X137180649Y-90423330D01*
X137026208Y-90634608D01*
X136915953Y-90871956D01*
X136883284Y-90979671D01*
X135381810Y-90979671D01*
X135364853Y-90894426D01*
X135256680Y-90633273D01*
X135099637Y-90398241D01*
X134899759Y-90198363D01*
X134664727Y-90041320D01*
X134403574Y-89933147D01*
X134126335Y-89878000D01*
X133843665Y-89878000D01*
X133566426Y-89933147D01*
X133305273Y-90041320D01*
X133070241Y-90198363D01*
X132870363Y-90398241D01*
X132713320Y-90633273D01*
X132605147Y-90894426D01*
X132550000Y-91171665D01*
X127803072Y-91171665D01*
X127803072Y-90513000D01*
X127790812Y-90388518D01*
X127754502Y-90268820D01*
X127695537Y-90158506D01*
X127616185Y-90061815D01*
X127519494Y-89982463D01*
X127409180Y-89923498D01*
X127289482Y-89887188D01*
X127165000Y-89874928D01*
X125565000Y-89874928D01*
X125440518Y-89887188D01*
X125320820Y-89923498D01*
X125210506Y-89982463D01*
X125113815Y-90061815D01*
X125034463Y-90158506D01*
X124975498Y-90268820D01*
X124939188Y-90388518D01*
X124926928Y-90513000D01*
X122860272Y-90513000D01*
X122893648Y-90140929D01*
X122838273Y-89624841D01*
X122683279Y-89129474D01*
X122460258Y-88712228D01*
X122093499Y-88496106D01*
X120425605Y-90164000D01*
X120066395Y-90164000D01*
X118398501Y-88496106D01*
X118031742Y-88712228D01*
X117791062Y-89172105D01*
X117644725Y-89670098D01*
X117598352Y-90187071D01*
X111454000Y-90187071D01*
X111454000Y-88316501D01*
X118578106Y-88316501D01*
X120246000Y-89984395D01*
X121913894Y-88316501D01*
X121883841Y-88265501D01*
X162693106Y-88265501D01*
X164361000Y-89933395D01*
X166028894Y-88265501D01*
X165812772Y-87898742D01*
X165352895Y-87658062D01*
X164854902Y-87511725D01*
X164337929Y-87465352D01*
X163821841Y-87520727D01*
X163326474Y-87675721D01*
X162909228Y-87898742D01*
X162693106Y-88265501D01*
X121883841Y-88265501D01*
X121697772Y-87949742D01*
X121237895Y-87709062D01*
X120739902Y-87562725D01*
X120222929Y-87516352D01*
X119706841Y-87571727D01*
X119211474Y-87726721D01*
X118794228Y-87949742D01*
X118578106Y-88316501D01*
X111454000Y-88316501D01*
X111454000Y-87451000D01*
X174550000Y-87451000D01*
X174550001Y-117654000D01*
G37*
%TD.AperFunction*%
D23*
X165114748Y-106298858D02*
X165100605Y-106313000D01*
X165114748Y-106327143D01*
X164935143Y-106506748D01*
X164921000Y-106492605D01*
X164906858Y-106506748D01*
X164727253Y-106327143D01*
X164741395Y-106313000D01*
X164727253Y-106298858D01*
X164906858Y-106119253D01*
X164921000Y-106133395D01*
X164935143Y-106119253D01*
X165114748Y-106298858D01*
%TA.AperFunction,Conductor*%
D24*
G36*
X165114748Y-106298858D02*
G01*
X165100605Y-106313000D01*
X165114748Y-106327143D01*
X164935143Y-106506748D01*
X164921000Y-106492605D01*
X164906858Y-106506748D01*
X164727253Y-106327143D01*
X164741395Y-106313000D01*
X164727253Y-106298858D01*
X164906858Y-106119253D01*
X164921000Y-106133395D01*
X164935143Y-106119253D01*
X165114748Y-106298858D01*
G37*
%TD.AperFunction*%
D23*
X165114748Y-101718858D02*
X165100605Y-101733000D01*
X165114748Y-101747143D01*
X164935143Y-101926748D01*
X164921000Y-101912605D01*
X164906858Y-101926748D01*
X164727253Y-101747143D01*
X164741395Y-101733000D01*
X164727253Y-101718858D01*
X164906858Y-101539253D01*
X164921000Y-101553395D01*
X164935143Y-101539253D01*
X165114748Y-101718858D01*
%TA.AperFunction,Conductor*%
D24*
G36*
X165114748Y-101718858D02*
G01*
X165100605Y-101733000D01*
X165114748Y-101747143D01*
X164935143Y-101926748D01*
X164921000Y-101912605D01*
X164906858Y-101926748D01*
X164727253Y-101747143D01*
X164741395Y-101733000D01*
X164727253Y-101718858D01*
X164906858Y-101539253D01*
X164921000Y-101553395D01*
X164935143Y-101539253D01*
X165114748Y-101718858D01*
G37*
%TD.AperFunction*%
D23*
X165114748Y-99428858D02*
X165100605Y-99443000D01*
X165114748Y-99457143D01*
X164935143Y-99636748D01*
X164921000Y-99622605D01*
X164906858Y-99636748D01*
X164727253Y-99457143D01*
X164741395Y-99443000D01*
X164727253Y-99428858D01*
X164906858Y-99249253D01*
X164921000Y-99263395D01*
X164935143Y-99249253D01*
X165114748Y-99428858D01*
%TA.AperFunction,Conductor*%
D24*
G36*
X165114748Y-99428858D02*
G01*
X165100605Y-99443000D01*
X165114748Y-99457143D01*
X164935143Y-99636748D01*
X164921000Y-99622605D01*
X164906858Y-99636748D01*
X164727253Y-99457143D01*
X164741395Y-99443000D01*
X164727253Y-99428858D01*
X164906858Y-99249253D01*
X164921000Y-99263395D01*
X164935143Y-99249253D01*
X165114748Y-99428858D01*
G37*
%TD.AperFunction*%
%TD*%
M02*
