M48
; DRILL file {KiCad 5.1.7} date Mon Nov 23 22:38:17 2020
; FORMAT={-:-/ absolute / metric / decimal}
; #@! TF.CreationDate,2020-11-23T22:38:17+01:00
; #@! TF.GenerationSoftware,Kicad,Pcbnew,5.1.7
; #@! TF.FileFunction,Plated,1,2,PTH
FMAT,2
METRIC
T1C0.400
T2C0.700
T3C0.750
T4C0.800
T5C1.000
T6C3.200
%
G90
G05
T1
X150.292Y-110.871
X151.092Y-112.071
X151.892Y-110.871
X152.692Y-112.071
X153.492Y-110.871
T2
X138.176Y-101.473
X145.796Y-101.473
X138.176Y-106.553
X145.796Y-106.553
X138.176Y-96.393
X145.796Y-96.393
X138.176Y-109.093
X145.796Y-109.093
X138.176Y-104.013
X145.796Y-104.013
X138.176Y-93.853
X145.796Y-93.853
X138.176Y-98.933
X145.796Y-98.933
X138.176Y-91.313
X145.796Y-91.313
T3
X148.844Y-107.569
X159.004Y-107.569
T4
X126.365Y-91.313
X126.365Y-93.853
X126.365Y-96.393
X126.365Y-98.933
X126.365Y-101.473
X126.365Y-104.013
X126.365Y-106.553
X126.365Y-109.093
X126.365Y-111.633
X126.365Y-114.173
X133.985Y-91.313
X133.985Y-93.853
X133.985Y-96.393
X133.985Y-98.933
X133.985Y-101.473
X133.985Y-104.013
X133.985Y-106.553
X133.985Y-109.093
X133.985Y-111.633
X133.985Y-114.173
X148.844Y-102.743
X151.344Y-102.743
T5
X118.826Y-98.509
X118.826Y-101.279
X118.826Y-104.049
X118.826Y-106.819
X121.666Y-97.124
X121.666Y-99.894
X121.666Y-102.664
X121.666Y-105.434
X121.666Y-108.204
X150.241Y-91.313
X150.241Y-93.853
X150.241Y-96.393
X157.226Y-91.313
X157.226Y-93.853
X157.226Y-96.393
X157.226Y-98.933
X157.226Y-101.473
X157.226Y-104.013
X138.303Y-112.141
X138.303Y-114.681
X140.843Y-112.141
X140.843Y-114.681
X143.383Y-112.141
X143.383Y-114.681
X158.496Y-111.887
X158.496Y-114.427
X162.941Y-98.298
X162.941Y-100.588
X162.941Y-102.878
X162.941Y-105.168
X162.941Y-107.458
X164.921Y-97.153
X164.921Y-99.443
X164.921Y-101.733
X164.921Y-104.023
X164.921Y-106.313
X166.901Y-98.298
X166.901Y-100.588
X166.901Y-102.878
X166.901Y-105.168
X166.901Y-107.458
T6
X164.361Y-90.113
X164.361Y-115.113
X120.246Y-90.164
X120.246Y-115.164
T4
G00X148.192Y-111.221
M15
G01X148.192Y-112.321
M16
G05
G00X148.192Y-115.971
M15
G01X148.192Y-117.071
M16
G05
G00X155.592Y-111.221
M15
G01X155.592Y-112.321
M16
G05
G00X155.592Y-115.971
M15
G01X155.592Y-117.071
M16
G05
T0
M30
